<?xml version="1.0" encoding="utf-8"?>
<!-- Generator: Adobe Illustrator 27.5.0, SVG Export Plug-In . SVG Version: 6.00 Build 0)  -->
<svg version="1.1" id="Layer_1" xmlns="http://www.w3.org/2000/svg" xmlns:xlink="http://www.w3.org/1999/xlink" x="0px" y="0px"
	 viewBox="0 0 1564.04 1428.14" style="enable-background:new 0 0 1564.04 1428.14;" xml:space="preserve">
<style type="text/css">
	.st0{fill:#FFFFFF;}
	.st1{opacity:0.3;}
	.st2{fill:#B12226;}
	.st3{fill:#231F20;}
	.st4{fill:#1D1D1B;}
	.st5{fill:none;}
	.st6{clip-path:url(#SVGID_00000144332794311946971410000013671462629177856427_);}
	.st7{clip-path:url(#SVGID_00000042015183740711399120000018288908685146368394_);fill:#408342;}
	.st8{clip-path:url(#SVGID_00000042015183740711399120000018288908685146368394_);fill:#1D1D1B;}
	.st9{clip-path:url(#SVGID_00000042015183740711399120000018288908685146368394_);fill:#C62F28;}
	.st10{clip-path:url(#SVGID_00000042015183740711399120000018288908685146368394_);fill:#010101;}
	.st11{fill:none;stroke:#010101;stroke-width:2;stroke-miterlimit:10;}
	.st12{fill:none;stroke:#010101;stroke-width:1.7922;stroke-miterlimit:10;}
	.st13{fill:none;stroke:#FFFFFF;stroke-width:4;stroke-miterlimit:10;}
	.st14{opacity:0.07;}
	.st15{clip-path:url(#SVGID_00000080907736457514709050000012440241805372098212_);}
	.st16{clip-path:url(#SVGID_00000026885419996652658050000006755436742673304999_);fill:#408342;}
	.st17{clip-path:url(#SVGID_00000026885419996652658050000006755436742673304999_);fill:#1D1D1B;}
	.st18{clip-path:url(#SVGID_00000026885419996652658050000006755436742673304999_);fill:#C62F28;}
	.st19{clip-path:url(#SVGID_00000026885419996652658050000006755436742673304999_);fill:#010101;}
	.st20{clip-path:url(#SVGID_00000107585630439005750390000004737522418693414572_);}
	.st21{clip-path:url(#SVGID_00000017482474641520048740000008810641906594521478_);fill:#408342;}
	.st22{clip-path:url(#SVGID_00000017482474641520048740000008810641906594521478_);fill:#1D1D1B;}
	.st23{clip-path:url(#SVGID_00000017482474641520048740000008810641906594521478_);fill:#C62F28;}
	.st24{clip-path:url(#SVGID_00000017482474641520048740000008810641906594521478_);fill:#010101;}
	.st25{clip-path:url(#SVGID_00000112597452276460278150000003160307287950285448_);}
	.st26{clip-path:url(#SVGID_00000042706141348715663150000015676228547299981446_);fill:#408342;}
	.st27{clip-path:url(#SVGID_00000042706141348715663150000015676228547299981446_);fill:#1D1D1B;}
	.st28{clip-path:url(#SVGID_00000042706141348715663150000015676228547299981446_);fill:#C62F28;}
	.st29{clip-path:url(#SVGID_00000042706141348715663150000015676228547299981446_);fill:#010101;}
	.st30{clip-path:url(#SVGID_00000171710119670693412490000007355877178610492572_);}
	.st31{clip-path:url(#SVGID_00000179608340780579002900000009586676707399097768_);fill:#408342;}
	.st32{clip-path:url(#SVGID_00000179608340780579002900000009586676707399097768_);fill:#1D1D1B;}
	.st33{clip-path:url(#SVGID_00000179608340780579002900000009586676707399097768_);fill:#C62F28;}
	.st34{clip-path:url(#SVGID_00000179608340780579002900000009586676707399097768_);fill:#010101;}
	.st35{clip-path:url(#SVGID_00000123421392079076693350000013994409097655895703_);}
	.st36{clip-path:url(#SVGID_00000063606012267042963460000016225168084583242393_);fill:#408342;}
	.st37{clip-path:url(#SVGID_00000063606012267042963460000016225168084583242393_);fill:#1D1D1B;}
	.st38{clip-path:url(#SVGID_00000063606012267042963460000016225168084583242393_);fill:#C62F28;}
	.st39{clip-path:url(#SVGID_00000063606012267042963460000016225168084583242393_);fill:#010101;}
</style>
<g>
	<path class="st2" d="M903.64,579.45c0.27,1.53,0.18,3.99-0.28,7.37c-0.37,2.71-0.82,5.16-1.37,7.36l-0.2-0.2
		c-0.27-0.68-0.4-1.72-0.37-3.1c0.03-1.53-0.04-2.6-0.22-3.21l-0.49,0.16c-0.22,0.12-1.37,1.14-3.45,3.06
		c-2.25,2.07-3.59,3.28-4.03,3.63c-2.87,2.23-6.27,4.37-10.2,6.41c-1.97,1.02-3.76,1.47-5.37,1.34c-1.94-0.16-3.39-1.17-4.35-3.03
		c-0.3-0.59-0.55-1.56-0.73-2.91c-0.21-1.52-0.09-2.35,0.35-2.48l0.22,0.19c0.01,0.34,0.1,0.65,0.25,0.96
		c1.26,2.43,4.43,2.32,9.5-0.31c4.92-2.55,10.25-6.41,16.01-11.57c1.39-1.24,2.79-2.61,4.22-4.09l0.3,0.11L903.64,579.45z
		 M887.93,577.7c0.25,0.6,0.46,1.84,0.65,3.74c-0.27,0.4-1.12,1.12-2.55,2.14c-1.36,0.99-2.32,1.62-2.88,1.89l-0.58,0.27
		c-0.66-1.27-0.92-2.45-0.79-3.55c0.33-0.41,1.3-1.2,2.91-2.36C886.2,578.75,887.28,578.04,887.93,577.7z"/>
	<path class="st2" d="M913.83,576.06c0.23,0.49,0.14,1.51-0.26,3.06c-0.4,1.55-0.82,2.41-1.27,2.59c-1.42-3.68-4.04-9.57-7.86-17.65
		c0.39-1.28,1.01-2.83,1.86-4.65L913.83,576.06z"/>
	<path class="st2" d="M932.96,555.92c1.53,2.75,2.08,4.79,1.65,6.11c-0.58,1.82-1.73,3.72-3.44,5.72c-1.64,1.94-3.33,3.39-5.06,4.35
		c-0.88,0.49-2.12,1.01-3.74,1.56c-1.8,0.62-2.77,0.76-2.88,0.44c2.94-3.46,7.24-8.72,12.88-15.78c-0.02-0.4-0.03-0.79-0.04-1.17
		c0.03-0.69,0.14-1.1,0.35-1.24L932.96,555.92z"/>
	<path class="st2" d="M950.49,551.98c-0.98,0.94-2.91,3.03-5.79,6.27l-0.36-0.04c-2.7-3.56-6.78-8.88-12.22-15.95
		c0.03-2.48,0.23-4.12,0.6-4.9l11.33,14.22l0.53-0.37c0.47-0.33,1.49-1.42,3.07-3.29L950.49,551.98z"/>
	<path class="st2" d="M956.92,535.29c0.52,0.66,0.88,1.8,1.07,3.43c0.26,2.23-0.41,4.56-2,6.98c-0.31,0.47-3.29,3.75-6.56,7.43
		l-1.88-5.09c2.09-2.08,3.7-3.82,4.84-5.2l0.01-0.59c-0.4-0.21-0.68-0.41-0.87-0.58c-0.3-1.22-0.51-2.13-0.63-2.75
		c-0.23-1.18-0.32-2.09-0.27-2.72c0.5-0.4,1.58-0.74,3.21-1.04C955.59,534.86,956.61,534.9,956.92,535.29z"/>
	<path class="st2" d="M975.14,516.72c0.38,0.35,0.67,1.34,0.88,2.94c0.2,1.61,0.13,2.57-0.22,2.9c-2.93-3.13-6.07-6.11-9.41-8.93
		c-0.12-1.36-0.14-3.05-0.06-5.08c1.51,1.38,3.71,3.41,6.6,6.08L975.14,516.72z M983.77,504.77c0.51,0.55,1.01,2.05,1.5,4.51
		c0.18,0.79,0.35,1.59,0.53,2.41c0.17,0.94,0.21,1.75,0.11,2.43l-0.37,2.55c-0.31,2.13-1.76,5.39-4.35,9.79
		c-2.53,4.3-4.7,7.29-6.48,8.96c-0.91,0.85-2.33,1.89-4.26,3.1c-2.18,1.38-3.41,1.86-3.67,1.45l12.17-21.29
		c2.16-3.78,3.38-6.52,3.65-8.22c0.13-0.78-0.14-1.53-0.82-2.25c-0.72-0.77-1.86-1.88-3.41-3.33c-1.55-1.45-2.69-2.56-3.41-3.33
		l-0.18-2.47c-0.1-1.23-0.04-2.05,0.16-2.46l4.51,4C981.18,502.14,982.61,503.52,983.77,504.77z M990.96,529.45
		c0.41,0.44,0.18,2.2-0.7,5.28c-0.88,3.07-1.62,4.89-2.2,5.43c-0.33,0.31-0.6,0.39-0.82,0.26c0.12-0.7,0.28-1.74,0.47-3.11
		l-0.12-0.29c-1.45,0.49-2.39,0.51-2.83,0.04c-0.68-0.73-0.75-2.15-0.2-4.25c0.52-1.95,1.17-3.29,1.94-4.01l0.25-0.01
		c0.03,1.71,0.17,2.69,0.41,2.95c0.38,0.4,0.98,0.22,1.82-0.56c-0.08,0.07,0.41-0.51,1.46-1.73
		C990.68,529.33,990.85,529.34,990.96,529.45z"/>
	<path class="st2" d="M996.67,503.85c0.41,0.35,0.76,1.31,1.05,2.88s0.27,2.53-0.07,2.88c-2.84-2.75-7.69-6.98-14.56-12.7
		c-0.19-1.32-0.28-2.99-0.27-5L996.67,503.85z"/>
	<path class="st2" d="M1025.62,478.33c-1.07,1.56-1.86,2.87-2.38,3.94c0.45,0.9,0.99,2.22,1.63,3.98c0.29,1.4,0,3.18-0.85,5.33
		c-0.76,1.91-1.69,3.48-2.79,4.73c-2.21,2.5-4.72,2.52-7.52,0.04c-1.57-1.38-2.76-3.59-3.59-6.62l0.05-0.14
		c0.12-0.16,0.24-0.18,0.36-0.08c0.09,0.08,0.37,0.56,0.84,1.42c0.46,0.87,0.88,1.46,1.24,1.78c0.84,0.75,1.85,1.01,3.03,0.78
		c1.08-0.19,2-0.72,2.77-1.59c1.07-1.2,1.96-2.61,2.69-4.21c0.91-2.03,1.07-3.56,0.48-4.59c-2.81-2.44-7.1-5.91-12.89-10.44
		c-0.24-1.21-0.4-2.75-0.47-4.6l5.74,4.72c2.64,2.17,4.71,3.67,6.2,4.52l0.22-0.13c0.46-0.52,0.97-1.24,1.52-2.16L1025.62,478.33z"
		/>
	<path class="st2" d="M1033.64,456.73c0.3,0.46,1.02,1.89,2.15,4.28l-8.24,13.76c0.42,1.28,0.94,3.21,1.55,5.78l-0.13-0.01
		l-2.41-4.15c-0.38,0.78-0.92,1.8-1.6,3.06l-3.75-3.33c0.61-1.09,1.62-2.85,3.05-5.29c-0.81-2.05-1.36-4.12-1.66-6.21
		c-0.42-2.89-0.16-4.87,0.81-5.95c0.76-0.85,2.54-1.26,5.34-1.21C1031.53,457.51,1033.17,457.27,1033.64,456.73z M1029.16,462.61
		c-0.53-0.35-1.18-0.44-1.95-0.28c-0.78,0.16-1.38,0.48-1.8,0.96c-0.99,1.11-1.07,3.14-0.26,6.11
		C1026.03,467.9,1027.37,465.64,1029.16,462.61z M1037.38,473.21c0.79,1.32,1.35,2.7,1.69,4.15c-1.45,0.93-2.57,1.43-3.37,1.49
		l-0.08-0.07c-0.21-0.19-0.54-0.84-0.99-1.95c-0.43-1.05-0.67-1.77-0.74-2.16c0.25-0.28,0.8-0.59,1.65-0.93
		C1036.33,473.42,1036.94,473.25,1037.38,473.21z"/>
	<path class="st2" d="M1027.61,432.48c0.42,0.41,0.27,2.18-0.46,5.31c-0.73,3.13-1.37,4.97-1.91,5.54c-0.31,0.32-0.58,0.42-0.81,0.3
		c0.09-0.71,0.19-1.75,0.31-3.13l-0.14-0.28c-1.42,0.57-2.36,0.62-2.82,0.18c-0.72-0.7-0.85-2.11-0.41-4.24
		c0.42-1.98,1-3.35,1.74-4.1l0.25-0.02l0.1,1.51c0.05,0.7,0.2,1.17,0.46,1.42c0.4,0.38,1.14,0.01,2.24-1.12
		c0.1-0.1,0.41-0.55,0.93-1.34C1027.32,432.37,1027.49,432.37,1027.61,432.48z M1043.93,451.77c0.41,0.35,0.76,1.31,1.04,2.89
		c0.28,1.58,0.25,2.55-0.1,2.91c-1.78-1.73-6.44-5.82-13.97-12.27c-0.18-1.32-0.27-2.99-0.27-5L1043.93,451.77z"/>
	<path class="st2" d="M1080.67,424.58c-1.41,1.79-2.62,3.13-3.65,4.02c-0.27,0.23-0.53,0.42-0.78,0.57
		c4.27,6.7,3.13,12.89-3.42,18.57c-3.39,2.94-6.23,3.08-8.53,0.44c-2.94-3.39-4.53-8.19-4.79-14.4c-0.05-1.4-0.01-2.15,0.12-2.27
		c0.27-0.23,0.88-0.49,1.83-0.77c0.95-0.28,1.56-0.35,1.81-0.22c0.24,0.55,0.61,1.98,1.12,4.28c-1.32,0.6-2.56,1.01-3.7,1.22
		c0.07,1.01,0.37,2.21,0.92,3.62c0.55,1.41,1.14,2.48,1.78,3.22c1.76,2.03,4,1.85,6.75-0.52c1.15-1,2.48-2.58,4.01-4.75
		c1.86-2.65,2.49-4.33,1.88-5.03c-1.62-1.86-3.53-2.7-5.73-2.52c-0.7-1.66-0.97-3.3-0.79-4.92c0.52-0.03,1.48-0.08,2.86-0.18
		c0.82-0.07,1.67-0.51,2.57-1.34c0.23-0.22,1.08-1.03,2.49-2.66L1080.67,424.58z"/>
	<path class="st2" d="M1085.79,409.49c0.51,0.67,0.86,1.81,1.03,3.44c0.24,2.23-0.46,4.55-2.07,6.96c-0.32,0.47-2.13,2.53-5.43,6.17
		l-1.92-5.11c2.11-2.06,2.63-2.59,3.78-3.95l0.02-0.59c-0.39-0.22-0.68-0.41-0.86-0.59c-0.29-1.22-0.49-2.14-0.6-2.75
		c-0.22-1.19-0.3-2.1-0.24-2.73c0.51-0.39,1.58-0.73,3.22-1C1084.46,409.04,1085.49,409.09,1085.79,409.49z"/>
	<path class="st2" d="M1136.87,386.35c-2.81,2.61-4.77,4.26-5.87,4.96c-0.69,0.44-1.2,0.63-1.51,0.58
		c-0.17-0.27-0.48-1.23-0.91-2.88c-4.1,6.15-8.72,10.86-13.86,14.13c-2.35,1.49-4.58,2.48-6.68,2.97c-3.06,0.71-5.2,0.11-6.41-1.8
		c-0.57-0.91-0.95-2.22-1.14-3.95c-0.19-1.63-0.14-3.01,0.14-4.12l0.26-0.29l0.34-0.12l0.22,0.15c0.01,0.69,0.31,1.49,0.9,2.42
		c1.09,1.72,2.83,2.22,5.22,1.52c1.26-0.38,3.09-1.32,5.47-2.84c2.56-1.63,5.25-3.66,8.06-6.1c3.07-2.67,5.4-5.08,7-7.23
		c0.24-0.45,0.65-1.1,1.23-1.96l0.21,0.09c0.03,0.09,0.14,1.13,0.33,3.12c0.29,0.19,0.73,0.11,1.32-0.27c0.5-0.32,1.5-1.17,3-2.57
		L1136.87,386.35z M1124.21,403.12c0.34,1.48,0.49,2.97,0.43,4.49c-2.09,0.61-3.3,0.76-3.62,0.45c-0.17-0.47-0.33-1.21-0.49-2.23
		c-0.18-1.11-0.23-1.86-0.14-2.23c0.29-0.18,0.91-0.32,1.86-0.42C1123.1,403.09,1123.76,403.07,1124.21,403.12z"/>
	<path class="st2" d="M1156.49,375.35c-1.36,0.93-2.29,1.85-5.01,3.89c-0.18,0.15-0.4,0.23-0.63,0.24c-0.29,0.03-0.48-0.08-0.55-0.3
		c-0.5-1.63-0.91-2.71-1.22-3.26l-0.55,0.28l-9.31,7.95c-0.07,1.31-0.2,3.29-0.41,5.91l-0.09,0.05c-0.1-0.15-0.28-0.91-0.52-2.3
		l-0.22-2.42c-0.65,0.62-1.75,1.32-2.87,2.59l-2.49-4.33c0.41-0.59,1.95-1.93,4.63-4.29c-0.13-2.09,0.01-4.23,0.42-6.43
		c0.54-2.91,1.43-4.72,2.69-5.44c1.19-0.69,3.05-0.46,5.57,0.66c2.43,1.08,4.02,1.33,4.76,0.76c0.15,0.51,0.36,1.78,0.62,3.82
		l0.46-0.11c1.61-0.93,2.74-2.05,3.36-2.58L1156.49,375.35z M1144.57,373.08c-0.13-0.23-0.32-0.41-0.56-0.54
		c-1.54-0.35-2.61-0.35-3.22-0.01c-1.32,0.76-2.05,2.66-2.19,5.71C1139.36,377.49,1141.35,375.77,1144.57,373.08z"/>
	<path class="st2" d="M1161.98,364.45l0.36,0.41c1.49,2.63,0.73,5.17-2.26,7.62c-0.79,0.64-2.18,1.75-4.17,3.34l-2.45-4.34
		C1155.06,370.18,1157.9,367.84,1161.98,364.45z M1166.81,377.63c0.23,1.49,0.3,2.97,0.22,4.43l-0.06,0.06
		c-1.31,0.37-2.5,0.49-3.56,0.35l-0.05-0.09c-0.18-0.31-0.3-1.05-0.38-2.23c-0.08-1.18-0.06-1.93,0.06-2.27
		c0.3-0.17,0.95-0.29,1.96-0.38C1166.01,377.42,1166.61,377.46,1166.81,377.63z"/>
	<path class="st2" d="M1204.28,347.58c-0.77,0.59-2.09,1.66-3.95,3.21c-1.78,1.54-2.68,2.55-2.68,3.03c0.65-0.1,1.83-0.29,3.55-0.55
		c1.89-0.29,2.89-0.35,2.99-0.18c0.43,0.7,0.76,1.98,1,3.82c0.24,1.84,0.21,3.12-0.08,3.84c-2.37,5.91-5.31,9.92-8.81,12.05
		c-4.22,2.56-7.53,1.86-9.92-2.1c-0.75-1.24-1.27-2.8-1.56-4.7c-0.32-2.08-0.2-3.7,0.37-4.87l0.57,0.22
		c-0.39,1.8-0.13,3.45,0.78,4.95c0.77,1.27,1.88,2.02,3.35,2.26c1.39,0.22,2.73-0.06,4.03-0.85c2.72-1.65,5.32-4.35,7.81-8.12
		l-0.21-0.34c-3.53,0.83-5.41,1.06-5.62,0.71l-0.9-1.49c-0.22-0.37-0.2-1.81,0.07-4.33c0.34-3.17,0.73-5.12,1.18-5.86
		c0.13-0.23,1.82-1.83,5.32-4.91L1204.28,347.58z"/>
	<path class="st2" d="M1202.03,333.97l-8.65-10.76c0.04-1.36,0.23-3.03,0.56-5c4.23,4.98,6.8,8.1,7.71,9.39
		c0.56,0.79,0.86,1.83,0.91,3.13C1202.61,331.95,1202.43,333.03,1202.03,333.97z M1223.83,333.3c-4.77,4.83-7.99,7.83-9.65,9.01
		c-2.59,1.84-4.6,2.27-6.02,1.28c-1.29,1.27-2.65,2.63-4.06,4.1l-2.88-4.06c0.6-0.58,1.41-1.38,2.45-2.39
		c0.76-0.76,1.3-1.45,1.64-2.09c-0.74-2.34-1-5.28-0.76-8.8c0.28-4.08,1.27-6.72,2.96-7.92c2.22-1.57,4.17-1.17,5.85,1.21
		c0.13,0.19,0.53,1.76,1.18,4.72c0.47,2.18-0.31,5.12-2.36,8.81c0.28-0.09,0.6-0.26,0.95-0.51c0.98-0.69,3.58-3.16,7.82-7.42
		L1223.83,333.3z M1212.04,327.76c-0.33-0.47-0.94-0.63-1.84-0.5c-0.76,0.1-1.4,0.33-1.91,0.7c-1.14,0.81-1.9,2.26-2.28,4.36
		s-0.17,3.72,0.63,4.86c0.87-0.79,1.92-2.18,3.17-4.19C1211.26,330.69,1211.99,328.95,1212.04,327.76z"/>
	<path class="st2" d="M1235.8,323.04l-4.75,5.56c-0.07,0.08-0.15,0.16-0.23,0.23c-0.56,0.47-1.49,0.45-2.79-0.04l-0.27,0.22
		c-0.34,0.29-2.41,2.31-4.52,4.91l-2.68-4.28c0.11-0.12,1.04-0.97,2.11-2.3c0.57-0.68,0.83-1.25,0.76-1.68
		c-0.39-0.28-0.86-0.67-1.41-1.19c-0.62-1.83-0.95-3.24-1-4.22c0.37-0.54,0.78-1,1.25-1.39c2.05-1.7,3.75-1.74,5.11-0.1
		c0.55,0.66,0.89,1.38,1.01,2.17c0.06,0.44,0.16,1.23,0.3,2.37c0.18,0.08,0.35,0.06,0.5-0.07c0.34-0.29,1.48-1.62,3.42-4.01
		L1235.8,323.04z"/>
	<path class="st2" d="M1227.92,299.79c0.61,1.29,1.04,2.73,1.29,4.32l-0.04,0.07c-1.24,0.69-2.36,1.07-3.35,1.14
		c-0.75-1.28-1.23-2.71-1.46-4.27C1225.86,300.28,1227.04,299.85,1227.92,299.79z M1238.65,311.11l0.45,0.32
		c1.17,1.23,1.65,2.59,1.44,4.06c-0.17,1.27-0.77,2.57-1.77,3.9c-0.6,0.77-2.12,2.56-3.61,4.47l-2.96-4.08
		C1233.38,318.2,1235.54,315.32,1238.65,311.11z"/>
	<path class="st0" d="M1321.22,390.23c1.09-1.64,2.45-2.42,4.48-2.31c1.02,0.06,2.28,0.61,2.74,1.58c0.43,0.92,0.26,2.09,1.06,2.86
		c0.72,0.69,1.97,1.47,2.96,1.52c1.75,0.09,3.5-0.53,5.19-0.89c2.44-0.52,4.73-1.6,7.17-2.19c2.83-0.69,5.33-2.08,8.09-2.99
		c1.99-0.66,3.99-1.31,5.99-1.95c1.05-0.33,1.91-0.4,2.96-0.51c1.21-0.12,2.31-0.79,3.47-1.12c1.38-0.4,2.85-0.49,4.19-0.96
		c1.46-0.52,2.85-1.23,4.31-1.7c1.14-0.36,2.3-0.46,3.44-0.77c5.59-1.53,10.45-4.75,14.79-8.45c1.95-1.66,3.94-3.21,5.75-5.03
		c0.01,0.67-0.84,1.3-1.21,1.8c-0.49,0.66-0.89,1.39-1.38,2.05c-0.67,0.91-1.41,1.74-2.11,2.6c-0.95,1.17-1.92,2.09-3.24,2.88
		c-1.48,0.89-2.8,2.05-4.3,2.91c-2.51,1.45-5.01,2.75-7.71,3.89c-1.35,0.57-2.86,0.93-4.17,1.43c-0.94,0.36-0.4,0.46-0.68,1.21
		c-0.32,0.86-2.01,1.69-2.83,1.89c-0.4,0.1-0.9,0.03-1.32,0.14c-0.96,0.25-1.9,1.03-2.77,1.54c-2.59,1.51-5.69,2.64-8.51,3.57
		c-2.04,0.67-4.16,1.94-6.04,3.02c-2.62,1.5-5.45,2.9-8.23,4.05c-1.18,0.49-2.37,0.66-3.64,0.72c-1.09,0.05-2.21,0.43-3.3,0.4
		c-0.12,0,0.78,1.96,0.87,2.12c0.48,0.86,0.83,1.81,1.13,2.75c0.31,0.97,0.38,1.83,1.07,2.59c1.43,1.59,4.43,2.14,6.42,2.66
		c1.96,0.51,3.8,1.37,5.63,2.24c0.82,0.39,1.63,0.84,2.47,1.16c0.75,0.29,1.39,0.16,2.18,0.27c0.6,0.09,1.28,0.2,1.84,0.38
		c-0.94-0.1-1.89,0.46-2.8,0.58c0.17,0.29,0.48,0.54,0.63,0.86c-0.48,0.12-0.92,0.11-1.36-0.05c0.29,0.37,0.74,0.65,1.21,0.82
		c-0.58,0.44-1.65-0.16-2.23,0.1c-0.52,0.24-0.47,0.62-1.11,0.77c-0.64,0.15-1.39,0.04-1.98-0.15c0.33,0.29,1.95,0.86,1.52,1.28
		c-0.4,0.39-1.69-0.44-2.18-0.47c-0.01,0.43,0.14,0.81,0.22,1.19c-0.44-0.03-0.78-0.36-1.19-0.52c0.05,0.23,0.02,0.53,0.06,0.77
		c-0.6,0.11-1.31-0.35-1.78-0.61c0.09,0.85,0.95,1.38,0.8,2.23c-0.52,0.04-1.24-0.79-1.43-1.2c0.12,0.18,0.55,0.94,0.25,1.15
		c-0.34,0.24-0.64-0.29-0.92-0.43c-0.62-0.32-1.27-0.26-1.86,0c-1.17,0.53-0.32,1.38-1.01,2.35c-0.49,0.68-1.1,0.36-1.82-0.09
		c-0.3,0.31-0.58,1.02-1.13,0.69c-0.5-0.3-0.46-1.71-0.57-2.21c-0.2,0.74-0.44,1.49-0.5,2.24c-0.85,0.02-1.35-0.52-2.1-0.79
		c-0.45-0.16-1.04,0.05-1.46-0.17c-0.32-0.16-0.32-0.69-0.77-0.67c-0.63,0.03-1.07,1.33-2.02,0.62c-0.39-0.29-0.58-1.52-0.76-2.06
		c-0.27,0.85,0.08,3.14-1.34,2.12c-0.76-0.55-1.09-1.85-1.58-2.64c-0.07,0.72,0.58,2.7-0.54,2.41c-0.43-0.11-1.34-0.99-1.44-1.4
		c-2.02,0.68-2.6-2.71-3.06-3.98c-0.33,2.58-1.58,1-2.82,0.17c0.19-0.23,0.35-0.5,0.52-0.74c-0.45-0.2-1.93,0.54-1.77-0.48
		c-0.41-0.03-0.66-0.32-0.96-0.58c-0.52-0.44-0.48-0.36-1.06-0.56c-0.69-0.25-1.84-0.74-2.18-1.44c0.34-0.13,0.68-0.26,1.03-0.35
		c-0.78-0.04-3.29,0.07-2.99-1.13c-1.14,0.74-3.99-1.19-3.24-2.42c-0.91,1.19-2.24-0.48-2.75-1.21c0.99-0.75,1.56-0.32,2.68-0.19
		c1.24,0.14,2.55-0.33,3.8-0.4c1.85-0.1,3.64-0.5,5.32-1.23c-1.04-0.99-0.83-2.88-1.09-4.19c-0.34-1.76-0.74-3.46-0.57-5.27
		c0.08-0.92,0.55-1.94,0.21-2.76c-0.42-1-1.66-2.28-2.44-3.07c-1.07-1.1-2.42-1.95-3.55-3.01c-1.14-1.07-2.22-2.11-3.42-3.1
		c-1.37-1.12-3.12-1.88-4.2-3.31c-0.88-1.17-2.15-2.23-3.3-3.14c-3.2-2.56-7.07-4.8-9.67-8.02c-0.77-0.96-1.31-2.11-2.04-3.1
		c-0.85-1.15-1.78-2.28-2.55-3.48c-1.58-2.44-3.21-4.66-5.03-6.9c-1.73-2.15-2.67-5.15-3.12-7.83c-0.15-0.89-0.39-1.75-0.57-2.64
		c-0.08-0.41-0.49-2.42-0.08-2.75c0.94-0.77,1.52,1.95,1.8,2.51c0.29,0.58,0.43,1.65,0.82,2.11c0.59,0.7,0.36,0.01,1.15,0.08
		c1.14,0.09,1.81,2.39,2.29,3.26c0.45,0.83,0.92,2.37,1.58,2.9c0.56,0.44,1.12,0.58,1.63,1.38c0.47,0.74,0.9,1.45,1.43,2.14
		c0.61,0.79,1.1,2.43,1.9,2.82c0.18,0.09,0.52-0.15,0.78-0.02c0.26,0.14,0.42,0.6,0.58,0.84c0.39,0.59,0.83,1.12,1.28,1.66
		c0.71,0.85,1.32,1.74,1.88,2.69c0.27,0.46,0.5,1.01,0.88,1.4c0.47,0.49,0.67,0.3,1.25,0.54c0.83,0.34,1.27,1.13,1.93,1.7
		c0.69,0.59,1.43,1.13,2.1,1.77c1.42,1.34,2.97,2.53,4.39,3.9c2.87,2.77,5.58,5.6,8.89,7.91c1.34,0.93,2.5,2.11,3.83,3.04
		C1318.55,388.05,1321.29,390.13,1321.22,390.23z"/>
	<path class="st3" d="M1340.17,425.49c-0.16,0-0.34-0.05-0.54-0.16c-0.12-0.07-0.23-0.17-0.31-0.29l-0.03,0.38l-0.46,0.01
		c-0.69,0-1.19-0.26-1.63-0.51c-0.2-0.11-0.41-0.23-0.64-0.31c-0.12-0.04-0.31-0.04-0.51-0.04c-0.32,0.01-0.67,0.01-1.01-0.16
		c-0.26-0.13-0.4-0.35-0.49-0.51c-0.03-0.04-0.07-0.11-0.09-0.13c0,0.04-0.17,0.19-0.28,0.29c-0.37,0.34-1.07,0.96-2.01,0.26
		c-0.1-0.08-0.2-0.18-0.27-0.3c-0.11,0.28-0.27,0.51-0.54,0.64c-0.36,0.17-0.79,0.08-1.27-0.27c-0.29-0.21-0.52-0.49-0.72-0.8
		c-0.06,0.19-0.15,0.36-0.3,0.49c-0.17,0.15-0.47,0.29-0.94,0.17c-0.47-0.12-1.2-0.76-1.57-1.31c-0.38,0.05-0.73-0.01-1.07-0.19
		c-0.92-0.48-1.42-1.7-1.77-2.79c-0.1,0.11-0.22,0.2-0.37,0.26c-0.68,0.28-1.39-0.26-2.07-0.79c-0.21-0.16-0.41-0.32-0.62-0.46
		l-0.48-0.32l0.23-0.27c-0.37,0.03-0.73,0-1-0.26c-0.08-0.08-0.17-0.21-0.22-0.39c-0.28-0.12-0.49-0.31-0.67-0.47l-0.13-0.11
		c-0.33-0.28-0.35-0.29-0.59-0.37l-0.31-0.1c-1.32-0.47-2.15-1.04-2.47-1.7l-0.07-0.14c-0.75-0.08-1.4-0.27-1.74-0.71
		c-0.04-0.05-0.08-0.11-0.11-0.18c-0.88,0.09-1.96-0.42-2.68-1.13c-0.34-0.34-0.57-0.69-0.68-1.04c-0.08,0.01-0.15,0.01-0.21,0.01
		c-0.93-0.02-1.82-1.02-2.4-1.85l-0.28-0.4l0.39-0.3c0.93-0.71,1.62-0.57,2.35-0.42c0.21,0.04,0.44,0.09,0.7,0.12
		c0.67,0.08,1.39-0.05,2.14-0.18c0.51-0.09,1.04-0.19,1.57-0.21c1.58-0.08,3.1-0.4,4.53-0.94c-0.47-0.8-0.56-1.81-0.64-2.72
		c-0.03-0.4-0.07-0.8-0.13-1.14l-0.1-0.49c-0.31-1.58-0.64-3.21-0.48-4.92c0.03-0.32,0.1-0.65,0.17-0.97
		c0.13-0.58,0.25-1.13,0.08-1.54c-0.38-0.91-1.6-2.16-2.32-2.9c-0.57-0.59-1.21-1.09-1.89-1.62c-0.55-0.44-1.13-0.89-1.65-1.38
		l-0.45-0.42c-0.99-0.93-1.92-1.81-2.95-2.65c-0.47-0.38-0.98-0.72-1.52-1.07c-0.99-0.65-2.02-1.33-2.76-2.32
		c-0.84-1.12-2.05-2.12-3.21-3.05c-0.94-0.75-1.97-1.5-2.96-2.21c-2.42-1.75-4.92-3.57-6.79-5.88c-0.44-0.55-0.81-1.15-1.16-1.73
		c-0.3-0.49-0.58-0.95-0.9-1.39c-0.25-0.33-0.5-0.67-0.76-1c-0.62-0.81-1.25-1.64-1.81-2.5c-1.51-2.33-3.1-4.5-4.99-6.86
		c-1.94-2.41-2.83-5.71-3.23-8.06c-0.08-0.5-0.2-0.98-0.31-1.47c-0.09-0.38-0.18-0.77-0.25-1.15c-0.44-2.27-0.28-2.93,0.09-3.24
		c0.28-0.23,0.6-0.3,0.91-0.22c0.71,0.2,1.09,1.19,1.48,2.36c0.08,0.24,0.14,0.43,0.2,0.54c0.14,0.28,0.24,0.62,0.34,0.96
		c0.12,0.4,0.25,0.86,0.41,1.04c0.01,0.02,0.03,0.03,0.04,0.04c0.17-0.09,0.42-0.17,0.77-0.14c1.18,0.1,1.83,1.59,2.35,2.78
		c0.13,0.29,0.24,0.55,0.34,0.74c0.15,0.27,0.3,0.62,0.46,0.99c0.28,0.65,0.64,1.47,0.99,1.75c0.16,0.12,0.31,0.22,0.47,0.32
		c0.4,0.25,0.86,0.54,1.27,1.18l0.24,0.38c0.38,0.6,0.74,1.17,1.17,1.72c0.25,0.33,0.47,0.75,0.69,1.19
		c0.28,0.54,0.62,1.21,0.96,1.44c0.02,0,0.03-0.01,0.05-0.01c0.19-0.04,0.5-0.12,0.81,0.04c0.32,0.17,0.5,0.52,0.65,0.8
		c0.04,0.08,0.08,0.15,0.12,0.21c0.39,0.58,0.83,1.12,1.25,1.62c0.69,0.83,1.32,1.73,1.93,2.76c0.08,0.14,0.16,0.28,0.24,0.43
		c0.18,0.33,0.35,0.65,0.57,0.88c0.19,0.2,0.25,0.21,0.46,0.25c0.15,0.03,0.35,0.07,0.61,0.17c0.65,0.26,1.07,0.73,1.48,1.18
		c0.19,0.21,0.38,0.42,0.59,0.6c0.26,0.22,0.53,0.44,0.8,0.66c0.44,0.36,0.89,0.72,1.33,1.13c0.67,0.63,1.38,1.24,2.07,1.83
		c0.77,0.66,1.57,1.34,2.32,2.07c0.47,0.45,0.94,0.91,1.4,1.37c2.41,2.36,4.69,4.59,7.42,6.5c0.69,0.48,1.35,1.03,1.97,1.56
		c0.6,0.51,1.22,1.03,1.86,1.48c1.31,0.92,2.09,1.53,2.55,1.96c1.17-1.48,2.64-2.13,4.56-2.02c1.13,0.06,2.61,0.67,3.18,1.87
		c0.19,0.41,0.28,0.84,0.36,1.25c0.12,0.59,0.22,1.1,0.6,1.46c0.66,0.64,1.81,1.34,2.63,1.38c1.21,0.07,2.48-0.25,3.7-0.56
		c0.45-0.11,0.91-0.23,1.35-0.32c1.26-0.27,2.53-0.7,3.75-1.13c1.1-0.38,2.24-0.78,3.41-1.06c1.64-0.4,3.14-1.02,4.73-1.69
		c1.07-0.45,2.18-0.91,3.33-1.29c1.99-0.66,4-1.32,6-1.95c1.03-0.33,1.87-0.41,2.85-0.51l0.22-0.02c0.68-0.07,1.34-0.33,2.03-0.62
		c0.43-0.18,0.88-0.36,1.34-0.49c0.63-0.18,1.28-0.3,1.91-0.42c0.79-0.15,1.54-0.28,2.25-0.53c0.64-0.23,1.27-0.5,1.9-0.76
		c0.78-0.33,1.6-0.68,2.43-0.94c0.66-0.21,1.32-0.33,1.97-0.45c0.5-0.09,1-0.19,1.5-0.32c4.82-1.32,9.46-3.97,14.6-8.35
		c0.51-0.43,1.01-0.85,1.52-1.28c1.41-1.18,2.87-2.39,4.2-3.72l0.85-0.86l0.02,1.21c0.01,0.69-0.52,1.25-0.95,1.7
		c-0.14,0.14-0.27,0.28-0.36,0.41c-0.24,0.32-0.45,0.66-0.67,0.99c-0.23,0.36-0.46,0.72-0.71,1.06c-0.47,0.63-0.97,1.23-1.46,1.82
		c-0.22,0.27-0.44,0.53-0.66,0.8c-1.07,1.31-2.11,2.24-3.37,3c-0.69,0.41-1.35,0.9-2,1.37c-0.74,0.53-1.5,1.09-2.31,1.55
		c-2.83,1.63-5.3,2.87-7.76,3.92c-0.79,0.33-1.62,0.6-2.43,0.85c-0.6,0.19-1.19,0.37-1.75,0.59c-0.13,0.05-0.21,0.09-0.26,0.11
		c0,0.22,0,0.47-0.13,0.8c-0.41,1.1-2.31,1.99-3.19,2.2c-0.24,0.06-0.49,0.07-0.73,0.08c-0.21,0.01-0.41,0.02-0.57,0.06
		c-0.59,0.16-1.22,0.57-1.83,0.97c-0.28,0.18-0.55,0.36-0.81,0.51c-2.68,1.57-5.86,2.71-8.61,3.61c-1.8,0.59-3.71,1.69-5.4,2.66
		l-0.54,0.31c-2.65,1.52-5.52,2.93-8.29,4.08c-1.37,0.57-2.76,0.71-3.82,0.76c-0.45,0.02-0.91,0.1-1.4,0.19
		c-0.4,0.07-0.82,0.15-1.23,0.19c0.22,0.53,0.56,1.26,0.63,1.39c0.55,0.98,0.91,2.03,1.17,2.84c0.08,0.25,0.14,0.48,0.2,0.72
		c0.18,0.67,0.32,1.2,0.76,1.69c1.14,1.26,3.46,1.84,5.33,2.3c0.29,0.07,0.57,0.14,0.84,0.21c2.07,0.54,4.01,1.46,5.72,2.27
		c0.27,0.13,0.53,0.26,0.8,0.39c0.54,0.27,1.09,0.54,1.64,0.76c0.4,0.16,0.77,0.17,1.2,0.18c0.28,0.01,0.56,0.02,0.87,0.06
		c0.61,0.09,1.32,0.2,1.93,0.4l4.79,1.54l-5.01-0.55c-0.46-0.05-0.96,0.11-1.5,0.28c-0.12,0.04-0.24,0.07-0.35,0.11
		c0.07,0.1,0.14,0.21,0.2,0.33l0.26,0.56l-0.32,0.08l0.5,0.18l-0.75,0.57c-0.49,0.37-1.12,0.28-1.63,0.2
		c-0.24-0.04-0.58-0.09-0.69-0.04c-0.13,0.06-0.2,0.13-0.29,0.24c-0.17,0.19-0.4,0.44-0.92,0.56c-0.05,0.01-0.1,0.02-0.15,0.03
		c0.08,0.11,0.13,0.22,0.15,0.35c0.03,0.23-0.05,0.45-0.22,0.62c-0.48,0.46-1.22,0.19-1.9-0.09c0.03,0.11,0.06,0.22,0.08,0.33
		l0.14,0.67l-0.68-0.05c-0.21-0.02-0.39-0.07-0.56-0.15l0.05,0.29l-0.5,0.09c-0.28,0.05-0.56,0.02-0.83-0.05
		c0.19,0.35,0.34,0.76,0.26,1.25l-0.07,0.4l-0.4,0.03c-0.28,0.02-0.55-0.08-0.81-0.24c-0.03,0.04-0.07,0.07-0.12,0.1
		c-0.57,0.4-1.08-0.07-1.3-0.27c-0.05-0.04-0.12-0.11-0.15-0.13c-0.43-0.22-0.91-0.22-1.42,0.01c-0.37,0.17-0.38,0.29-0.39,0.73
		c-0.01,0.38-0.03,0.91-0.42,1.46c-0.64,0.89-1.49,0.62-2.11,0.28C1340.96,425.12,1340.63,425.49,1340.17,425.49z M1339.38,420.51
		l0.44,2.06c0.03,0.15,0.05,0.37,0.08,0.61c0.03,0.31,0.1,1.12,0.26,1.27c0.04-0.02,0.16-0.19,0.24-0.29
		c0.09-0.12,0.17-0.23,0.26-0.32l0.29-0.3l0.35,0.22c0.9,0.56,0.98,0.44,1.14,0.23c0.21-0.29,0.22-0.57,0.23-0.89
		c0.01-0.5,0.04-1.2,0.99-1.63c0.78-0.35,1.59-0.35,2.29,0c-0.01-0.01-0.01-0.03-0.02-0.04l0.81-0.46
		c-0.11-0.22-0.19-0.46-0.22-0.74l-0.11-0.98l1.03,0.57c0.23,0.13,0.54,0.31,0.82,0.4c0-0.03-0.01-0.07-0.01-0.1l-0.21-0.94
		l0.89,0.35c0.1,0.04,0.2,0.09,0.29,0.14c-0.01-0.11-0.02-0.22-0.02-0.34l0.01-0.54l0.54,0.04c0.07,0.01,0.15,0.02,0.24,0.04
		l-1.81-1.57l2.35,0.74c0.62,0.19,1.24,0.24,1.72,0.14c0.21-0.05,0.26-0.11,0.39-0.25c0.13-0.14,0.3-0.33,0.62-0.48
		c0.27-0.13,0.57-0.14,0.86-0.11c-0.01-0.01-0.02-0.02-0.02-0.03l-1.15-1.43l1.72,0.63c0.07,0.02,0.13,0.04,0.2,0.06
		c-0.03-0.04-0.06-0.09-0.08-0.13l-0.39-0.67l0.77-0.1c0.01,0,0.03,0,0.04-0.01c-0.43-0.01-0.88-0.05-1.38-0.24
		c-0.59-0.23-1.17-0.52-1.72-0.8c-0.26-0.13-0.52-0.26-0.78-0.38c-1.67-0.79-3.57-1.69-5.54-2.2c-0.26-0.07-0.54-0.14-0.82-0.21
		c-2-0.49-4.49-1.11-5.85-2.61c-0.61-0.67-0.8-1.4-0.99-2.11c-0.06-0.22-0.12-0.44-0.19-0.67c-0.24-0.76-0.59-1.76-1.09-2.66
		c-0.01-0.02-1.17-2.13-0.87-2.63l0.15-0.25l0.31,0c0.55,0.01,1.12-0.09,1.73-0.2c0.5-0.09,1.01-0.18,1.53-0.21
		c1.46-0.07,2.5-0.27,3.47-0.68c2.73-1.14,5.56-2.53,8.17-4.03l0.54-0.31c1.73-0.99,3.7-2.12,5.59-2.75c2.7-0.89,5.81-2,8.42-3.52
		c0.25-0.15,0.5-0.31,0.76-0.49c0.68-0.45,1.38-0.91,2.14-1.11c0.27-0.07,0.55-0.08,0.79-0.09c0.18-0.01,0.37-0.01,0.53-0.05
		c0.82-0.2,2.25-0.98,2.47-1.57c0.07-0.18,0.06-0.29,0.06-0.41c-0.01-0.56,0.21-0.83,0.92-1.1c0.58-0.22,1.19-0.41,1.81-0.61
		c0.78-0.25,1.59-0.5,2.34-0.82c2.42-1.03,4.86-2.26,7.65-3.86c0.76-0.44,1.5-0.97,2.22-1.49c0.66-0.48,1.35-0.98,2.07-1.41
		c1.17-0.71,2.1-1.53,3.11-2.77c0.22-0.27,0.44-0.54,0.67-0.81c0.48-0.58,0.97-1.16,1.43-1.78c0.09-0.13,0.19-0.26,0.27-0.39
		c-0.4,0.33-0.79,0.66-1.18,0.99c-0.51,0.42-1.01,0.84-1.51,1.27c-5.26,4.48-10.02,7.2-14.99,8.56c-0.52,0.14-1.05,0.24-1.58,0.34
		c-0.64,0.12-1.24,0.23-1.84,0.42c-0.79,0.25-1.58,0.59-2.34,0.91c-0.65,0.28-1.3,0.55-1.96,0.79c-0.79,0.28-1.61,0.43-2.4,0.58
		c-0.63,0.12-1.23,0.23-1.81,0.4c-0.41,0.12-0.81,0.28-1.24,0.45c-0.73,0.3-1.49,0.6-2.32,0.69l-0.22,0.02
		c-0.96,0.09-1.71,0.17-2.64,0.46c-2,0.63-4,1.29-5.99,1.95c-1.11,0.37-2.2,0.83-3.26,1.27c-1.55,0.65-3.16,1.32-4.88,1.74
		c-1.12,0.27-2.24,0.66-3.32,1.03c-1.25,0.43-2.54,0.88-3.87,1.16c-0.44,0.09-0.87,0.2-1.32,0.31c-1.3,0.33-2.64,0.65-4,0.59
		c-1.13-0.06-2.49-0.91-3.28-1.66c-0.61-0.59-0.76-1.34-0.89-2c-0.07-0.37-0.14-0.72-0.28-1.01c-0.37-0.77-1.46-1.24-2.31-1.29
		c-1.78-0.09-3,0.53-4.03,2.08l-0.43-0.28l-0.42,0.27c-0.24-0.28-2.45-1.97-2.77-2.2c-0.68-0.48-1.32-1.01-1.93-1.53
		c-0.61-0.52-1.24-1.05-1.9-1.51c-2.8-1.96-5.21-4.32-7.55-6.6c-0.46-0.45-0.93-0.91-1.4-1.36c-0.73-0.7-1.51-1.38-2.27-2.03
		c-0.7-0.6-1.43-1.22-2.11-1.87c-0.41-0.39-0.84-0.73-1.27-1.08c-0.28-0.22-0.55-0.45-0.82-0.68c-0.25-0.21-0.47-0.45-0.68-0.69
		c-0.36-0.4-0.67-0.75-1.11-0.92c-0.16-0.06-0.28-0.09-0.41-0.11c-0.34-0.06-0.63-0.14-1.02-0.55c-0.32-0.33-0.53-0.72-0.73-1.1
		c-0.07-0.13-0.14-0.27-0.22-0.39c-0.58-0.98-1.18-1.84-1.84-2.63c-0.44-0.52-0.9-1.09-1.31-1.71c-0.06-0.08-0.11-0.19-0.17-0.31
		c-0.06-0.11-0.16-0.31-0.22-0.37c0.01,0.02-0.05,0.03-0.1,0.05c-0.17,0.04-0.42,0.1-0.67-0.02c-0.65-0.33-1.07-1.14-1.48-1.94
		c-0.21-0.4-0.4-0.78-0.6-1.03c-0.45-0.59-0.82-1.17-1.22-1.79l-0.24-0.38c-0.29-0.45-0.6-0.65-0.96-0.87
		c-0.19-0.12-0.37-0.24-0.56-0.39c-0.55-0.44-0.93-1.31-1.29-2.14c-0.14-0.33-0.28-0.65-0.42-0.91c-0.12-0.21-0.24-0.5-0.38-0.83
		c-0.34-0.79-0.92-2.12-1.5-2.17c-0.16-0.01-0.19,0.01-0.26,0.07c-0.6,0.44-1.02-0.06-1.24-0.32c-0.3-0.35-0.46-0.9-0.61-1.42
		c-0.09-0.29-0.17-0.59-0.27-0.79c-0.07-0.13-0.15-0.38-0.25-0.67c-0.13-0.38-0.52-1.54-0.79-1.69c0.04,0.05-0.06,0.51,0.28,2.24
		c0.08,0.41,0.17,0.78,0.25,1.15c0.12,0.51,0.23,1.01,0.32,1.53c0.38,2.23,1.21,5.36,3.02,7.59c1.92,2.38,3.53,4.59,5.06,6.94
		c0.54,0.83,1.16,1.65,1.77,2.44c0.26,0.34,0.52,0.68,0.77,1.01c0.35,0.47,0.66,0.98,0.95,1.47c0.35,0.58,0.68,1.12,1.08,1.62
		c1.78,2.21,4.23,3.98,6.59,5.7c1,0.73,2.04,1.48,3,2.24c1.22,0.97,2.48,2.02,3.39,3.23c0.64,0.85,1.55,1.45,2.51,2.08
		c0.54,0.35,1.1,0.72,1.6,1.14c1.06,0.87,2,1.76,3,2.7l0.45,0.42c0.49,0.46,1.05,0.9,1.59,1.33c0.67,0.53,1.37,1.08,1.98,1.7
		c0.84,0.86,2.09,2.14,2.54,3.23c0.3,0.7,0.13,1.47-0.02,2.15c-0.06,0.29-0.13,0.57-0.15,0.85c-0.14,1.57,0.15,3.06,0.47,4.63
		l0.1,0.49c0.07,0.38,0.11,0.81,0.15,1.25c0.09,1.02,0.18,2.08,0.79,2.66l0.56,0.53l-0.7,0.31c-1.71,0.74-3.56,1.17-5.5,1.27
		c-0.46,0.02-0.94,0.11-1.45,0.2c-0.8,0.14-1.62,0.29-2.44,0.19c-0.29-0.03-0.55-0.09-0.79-0.14c-0.46-0.1-0.75-0.16-1.08-0.03
		c0.48,0.6,0.95,0.97,1.25,0.97c0.05,0,0.17,0,0.34-0.22l0.84,0.58c-0.16,0.26,0.11,0.66,0.41,0.96c0.66,0.65,1.71,1.02,2.12,0.76
		l1.09-0.7l-0.31,1.25c-0.02,0.08,0,0.1,0,0.11c0.25,0.33,1.67,0.37,2.14,0.38c0.15,0,0.28,0.01,0.38,0.01l3.4,0.19l-3.3,0.82
		c-0.09,0.02-0.19,0.05-0.28,0.08c0.34,0.25,0.85,0.51,1.48,0.73l0.28,0.09c0.37,0.12,0.49,0.18,0.94,0.56l0.15,0.13
		c0.23,0.2,0.36,0.32,0.53,0.33l0.55,0.04l-0.08,0.51c0.13,0,0.33-0.03,0.46-0.05c0.37-0.05,0.71-0.11,1,0.02l0.57,0.25l-0.36,0.51
		c-0.06,0.08-0.11,0.17-0.17,0.25c-0.02,0.02-0.03,0.05-0.05,0.07c0.08,0.06,0.17,0.13,0.25,0.19c0.31,0.24,0.89,0.68,1.06,0.65l0,0
		c0,0,0.18-0.13,0.29-0.96l0.27-2.07l0.72,1.96c0.08,0.22,0.16,0.49,0.26,0.8c0.29,0.98,0.74,2.47,1.46,2.85
		c0.21,0.11,0.43,0.12,0.7,0.02l0.53-0.18l0.13,0.54c0.08,0.25,0.81,0.96,1.07,1.03c0,0,0,0,0.01,0c0.05-0.23-0.02-0.77-0.05-1.05
		c-0.04-0.34-0.08-0.66-0.06-0.92l0.14-1.5l0.8,1.28c0.18,0.29,0.34,0.64,0.5,0.98c0.27,0.6,0.56,1.23,0.95,1.51
		c0.21,0.15,0.3,0.16,0.3,0.16c0.02-0.09,0.08-0.7,0.1-1.03c0.03-0.37,0.06-0.72,0.15-0.99l0.49-1.55l0.49,1.55
		c0.05,0.15,0.09,0.34,0.15,0.56c0.08,0.33,0.27,1.11,0.43,1.26c0.23,0.17,0.29,0.17,0.71-0.21c0.26-0.23,0.56-0.5,0.98-0.52
		c0.59-0.02,0.82,0.39,0.94,0.59c0.03,0.05,0.07,0.12,0.09,0.14c0.1,0.05,0.31,0.04,0.51,0.04c0.27-0.01,0.58-0.01,0.88,0.1
		c0.28,0.1,0.54,0.24,0.79,0.38c0.25,0.14,0.46,0.25,0.69,0.32c0.08-0.48,0.21-0.96,0.34-1.42L1339.38,420.51z"/>
	<path class="st4" d="M1152.55,428.26c3.32-6.56,9.1-10.88,14.61-16.03c0.53,1.57,0.72,2.47,1.12,3.26c0.7,1.41-1.05,3.78,1.24,4.35
		c2.17,0.54,4.09-0.83,5.63-2.34c0.96-0.94,1.74-2.08,2.47-3.22c0.84-1.29,1.73-1.42,3.01-0.62c3.62,2.25,6.96,1.21,9.38-1.74
		c1.84-2.24,4.07-3.82,6.54-4.66c3.18-1.08,5.02-3.21,6.55-5.84c4.51-7.74,10.85-13.11,19.52-15.77c3.02-0.93,5.75-2.5,7.89-5.07
		c4.85-5.84,8.29-12.37,10.4-19.63c-3.2,2.55-3.6,6.53-5.29,9.84c-3.56,6.99-8.52,13.17-17.19,14.77c-3.75,0.69-6.55,3.04-9.33,5.87
		c-5.74,5.82-8.98,14.54-18.54,16.28c-1.44,0.26-3.02,2.72-4.71,3.95c-0.87,0.63-1.96,1.35-2.9,0.57c-3.96-3.32-5.75-0.67-7.6,2.48
		c-0.82,1.4-1.93,3.12-3.85,2.62c-1.73-0.45-1.65-2.54-1.69-3.84c-0.14-4.86-2.33-3.26-4.33-1.44c-4.14,3.77-8.44,7.43-12.05,11.67
		c-2.11,2.48-5.75,4.26-5.48,8.39C1150.06,431.51,1151.48,430.37,1152.55,428.26z"/>
	<path class="st4" d="M810.38,677.65c1.96,0.42,2.89,1.52,2.99,3.78c0.09,2.07,0.26,5.33,3.43,4.73c3.57-0.68,8.29,4.24,10.83-2.28
		c0.82-2.1,2.89-5.51,4.93-0.33c0.21,0.54,1.21,0.95,1.9,1.07c3.16,0.56,5.6-0.85,7.5-3.22c1.8-2.24,0.5-4.32-0.72-6.22
		c-1.87-2.92-4.58-5.51-5.69-8.67c-1.32-3.79-2.48-3.77-4.76-1.14c-1.99,2.3-4.21,3.78-7.48,3.09c-1.13-0.24-2.39-0.2-3.38,0.8
		c-1.93,1.93-4.29,1.93-6.95,1.33c-0.25,0.02-0.75,0.21-1.14,0.08c-2.84-0.94-4.41,0.63-5.06,2.97
		C805.99,676.49,808.14,677.17,810.38,677.65z M809.23,673.46c0.46-1.74,2.05-0.51,3.13-0.67c0.59-0.08,1.21-0.02,2.01-0.02
		c2.39,0.14,4.61-0.55,7.07-1.64c3.35-1.48,7.54-0.77,10.7-3.49c0.22-0.19,2.06,1.7,3.27,2.42c2.67,1.61,3.39,4.56,4.75,6.99
		c1.15,2.05-0.19,3.82-2.2,4.65c-1.86,0.77-3.17,0.82-3.66-2.05c-0.5-2.93-2.93-1.66-4.58-0.74c-1.15,0.64-2.64,1.5-3,2.59
		c-1.13,3.43-3.14,3.34-6.25,2.99c-3.47-0.4-5.31-1.27-5.21-5.03c0.06-2.14-1.61-3.05-3.52-3.54
		C810.43,675.61,808.74,675.3,809.23,673.46z"/>
	<path class="st4" d="M939.25,601.02c2.87,0.95,5.69,1.83,6.75,5.31c1.27,4.17,5.46,6.79,9.72,6.46c3.26-0.25,4.73-2.82,3.79-6.11
		c-1.25-4.34-4.33-7.92-5.39-12.2c-1.11-4.47-4.31-4.74-6.79-5.34c-4.23,0-6.97,1.56-9.6,3.39c-1.9,1.33-2.74,3.31-2.52,5.49
		C935.42,600.27,937.54,600.46,939.25,601.02z M942.36,591.57c2.33-0.47,4.54-1.42,6.98-0.58c2.6,0.89,3.41,4.69,4.51,6.92
		c1.44,2.92,3.01,5.82,3.64,9.05c0.61,3.17-1.33,4.66-4.33,3.41c-2.53-1.06-5.45-1.72-5.72-5.57c-0.21-3.01-3.22-3.6-5.55-4.64
		c-1.92-0.86-5.29-0.4-5.1-3.43C936.98,593.82,939.43,592.16,942.36,591.57z"/>
	<path class="st4" d="M731.61,639.56c1.44,1.18,3.48,1.46,4.01,3.92c0.68,3.15,6.05,4.77,8.15,2.28c2.45-2.89,4.72-3.92,7.5-2.15
		c3.65,0.68,4.39-1.8,5.38-3.74c1.14-2.26-0.05-3.81-2.1-4.68c-2.28-0.96-3.95-2.49-7,0.13c-3.67,3.15-8.34,0.77-12.23-1.51
		c-2.17-1.27-3.86-0.29-5.12,1.26C728.57,637.06,730.15,638.37,731.61,639.56z M731.33,635.97c0.63-0.97,1.8-1.16,2.86-0.79
		c1.41,0.5,2.78,1.13,4.13,1.78c4.26,2.05,8.55,0.77,12.78,0c1.32-0.24,2.35-0.31,3.23,0.65c0.71,0.78,0.52,1.69-0.14,2.45
		c-0.81,0.93-1.64,1.89-3.1,1.22c-3.43-1.59-5.89-0.56-8.15,2.41c-1.44,1.89-4.39,1.28-5.04-0.32c-1.11-2.72-3.21-3.69-5.3-5.02
		C731.82,637.85,730.44,637.32,731.33,635.97z"/>
	<path class="st4" d="M635.46,643.99c6.18-4.76,9.31-20.03-0.17-25.61c-2.65-1.56-5.61-1.83-7.99,0.37
		c-2.82,2.61-4.71,5.86-4.72,11.47c0.39,4.31,4.41,8.49,7.14,13.2C630.63,644.98,633.39,645.59,635.46,643.99z M624.22,627.86
		c0.25-4.58,4.19-8.86,7.74-8.65c3.75,0.23,7.89,5.63,7.53,9.91c-0.17,4.24-0.57,8.41-3.29,11.95c-1.77,2.3-3.67,2.77-5.47,0.24
		C627.81,637.21,623.92,633.5,624.22,627.86z"/>
	<path class="st4" d="M1177.69,404.56c0.85,0.49,2.01,0.46,2.5,0.56c4.4-0.36,11.04-3.26,11.96-8.14c0.2-1.07,0.35-2.18-0.4-3.02
		c-1-1.12-2.05-0.06-2.8,0.4c-3.12,1.97-6.59,1.82-10.03,1.93c-2.69,0.08-5.56,0.52-5.95,3.58
		C1172.61,402.76,1175.71,403.42,1177.69,404.56z M1175.65,399.88c0.17-1.03,1.15-1.33,2.06-1.43c3.83-0.4,7.66-0.76,11.85-1.17
		c-3.3,4.99-8.18,6.63-12.29,4.36C1176.5,401.23,1175.47,400.99,1175.65,399.88z"/>
	<path class="st4" d="M753.61,630.54c-0.84,4.62,3.59,2.9,5.54,3.62c2.34,0.86,2.83-1.63,2.51-3.46c-0.37-2.17,1.21-2.87,2.36-3.97
		c0.94-0.9,1.36-1.93,0.69-3.25c-0.57-1.12-1.47-1.37-2.6-1.44C758.43,621.83,753.56,626.49,753.61,630.54z"/>
	<path class="st4" d="M905.4,641.81c7.75-0.22,11.3-2.72,11.22-7.92c-0.07-4.46-3.75-9.37-6.93-9.24c-4.95,0.2-8.54,4.39-8.47,9.89
		C901.28,639.38,902.72,641.88,905.4,641.81z M903.48,634.53c0.64-5.81,2.81-8.78,6.63-8.47c2.21,0.18,5.55,5.21,5.13,8.18
		c-0.4,2.84-1.44,5.34-5.94,4.38C906.24,639.84,902.8,640.67,903.48,634.53z"/>
	<path class="st4" d="M568.59,609.1c-0.88,1.99,0.43,2.14,1.75,1.57c1.85-0.79,3.34-2.04,3.51-4.46c-2.11-2.94-0.79-5.92,0.1-8.98
		c0.5-1.71-0.58-2.87-2.11-3.56c-2.03-0.91-2.72,0.75-3.41,2c-0.65,1.17-1.16,2.54-0.53,3.91
		C569.33,602.68,570.06,605.77,568.59,609.1z"/>
	<path class="st4" d="M1109.86,247.52c3.93-0.15,7.84-3.03,7.9-5.83c0.07-3.02-3.3-7.7-5.6-7.78c-3.42-0.13-6.93,4.24-6.93,8.61
		C1105.24,246.21,1106.57,247.65,1109.86,247.52z M1107.23,242.8c0.91-2.6,0.45-6.9,4.64-6.66c1.79,0.1,4.03,2.48,3.83,4.94
		c-0.26,3.14-3.05,3.71-5.28,4.27C1108.6,244.99,1106.5,244.88,1107.23,242.8z"/>
	<path class="st4" d="M1047.31,313.91c3.44,0.69,6.05-2.09,6.17-5.59c0.1-2.97-3.41-6.77-6.36-6.88c-3.93-0.15-8.19,4.09-7.76,8.66
		C1039.82,314.93,1044.47,313.35,1047.31,313.91z M1041.53,309.2c0.31-2.28,1.3-6.1,5.15-5.76c2.94,0.26,5.06,2.34,4.94,5.36
		c-0.12,3-2.67,3.07-5.06,2.94C1044.81,310.79,1041.06,312.66,1041.53,309.2z"/>
	<path class="st4" d="M923.74,628.88c2.4-0.11,7.41-7.09,7.35-10.21c-0.06-2.69-3.72-5.85-6.62-5.71c-3.29,0.16-6.93,4.16-6.92,7.6
		C917.55,626.06,919.79,629.07,923.74,628.88z M924.93,614.63c2.27,0.36,4.38,1.5,4.56,4.21c0.21,3.06-3.83,7.82-6.38,7.74
		c-2.13-0.07-3.76-1.94-3.71-4.26C919.52,617.4,921.75,614.13,924.93,614.63z"/>
	<path class="st4" d="M490.7,580.73c1.93-0.14,3.32-1.39,4-3.18c0.36-0.96,0.28-2.08,0.34-2.61c0.13-5.17-1.45-6.85-7.03-8.13
		c-2.94-0.68-3.59,1.68-4.49,3.45C482.73,571.79,488.97,580.85,490.7,580.73z M485.43,570.08c0.47-1.36,1.81-1.9,3.36-1
		c1.89,1.1,5.2,0.64,4.91,4.4c-0.35,1.14-0.62,2.3-1.08,3.4c-0.21,0.5-0.68,1.02-1.17,1.25c-0.82,0.37-1.87-0.3-1.73-0.87
		C490.7,573.31,484.1,573.94,485.43,570.08z"/>
	<path class="st4" d="M910.99,620.36c2.02,0.21,3.72-1.03,3.61-2.6c-0.21-2.87,1.1-5.14,2.35-8.39c-1.66,0.44-2.61,1.05-3.28,0.82
		c-6.6-2.23-6.21,5.78-10.38,7.06c-0.09,0.03-0.1,0.94,0.13,1.22C905.44,620.99,908.36,620.09,910.99,620.36z M908.2,615.36
		c1.04-1.38,0.93-4.48,3.74-3.36c2.32,0.92-0.01,2.74,0.02,4.16c0.06,3.05-2.25,2.55-4.23,2.24c-0.42-0.07-0.82-0.27-1.38-0.47
		C907.02,617.01,907.59,616.17,908.2,615.36z"/>
	<path class="st4" d="M867.34,665.91c1.41,1.29,2.38,2.96,2.4,5.13c0.04,2.76,1.67,2.9,3.62,1.57c1.71-1.17,2.32-3.05,2.89-5.24
		c-0.99-2.5-1.34-5.67-4.55-7.05c-1.82-0.78-3.55-0.69-4.9,0.95C865.41,662.97,865.65,664.37,867.34,665.91z M868.24,662.25
		c1.11-1.09,2.17-0.54,3.5,0.25c2.12,1.27,2.02,3.1,2.16,4.59c0.06,1.54-0.27,2.86-1.23,3.07c-1.29,0.28-1.56-1.13-1.61-2.13
		c-0.08-1.44-1.29-1.89-2.02-2.78C868.34,664.41,866.98,663.48,868.24,662.25z"/>
	<path class="st4" d="M851.58,681.3c1.37,1.03,2.85,0.93,4.06-0.34c2.32-2.45,3.59-5.28,2.05-8.56c-0.7-1.5-1.82-3.57-3.09-3.85
		c-2.05-0.46-2.28,1.85-2.99,3.34c0-0.01,0-0.01,0-0.02c-0.71,1.12-1.82,2.18-2.04,3.39C849.17,677.5,849.57,679.78,851.58,681.3z
		 M851.55,672.09c1.84-1.51,3.52-1.64,4.36,0.99c0.76,2.39,0.69,4.84-1.71,6.41c-1.14,0.74-1.81-0.16-2.46-1.13
		C850.33,676.25,851.05,674.18,851.55,672.09z"/>
	<path class="st4" d="M751.98,652.77c-2.44-0.19-5.52-0.2-5.5,3.08c0.02,3.34,3.29,3.77,5.43,4.36c3.5-0.01,5.76-1.63,5.85-4.39
		C757.9,651.8,754.31,652.95,751.98,652.77z M752.63,658.55c-1.92-0.16-4.03-0.63-3.94-2.7c0.09-2,2.4-0.98,3.76-1.34
		c1.1,0.32,3.03-0.7,3.05,1.45C755.52,657.56,754.62,658.72,752.63,658.55z"/>
	<path class="st4" d="M941.08,608.43c-2.7-0.01-3.25,2.16-3.14,4.05c0.21,3.66,3.09,4.41,6.37,4.75c1.88-0.2,3.63-1.01,3.91-3.35
		C948.43,612.11,943.55,608.44,941.08,608.43z M942.81,615.32c-2.72-0.68-3-2.47-2.22-5c2.25,0.87,5.02,1.03,5.25,3.96
		C945.91,615.26,944.09,615.64,942.81,615.32z"/>
	<path class="st4" d="M962.78,601c2.19,0.08,5.12-4.74,4.55-7.86c-0.26-1.42-0.83-3.36-2.29-3.58c-1.87-0.28-1.99,1.94-2.51,3.2
		c-0.9,2.19,0.67,4.74-0.95,6.97C961.01,600.51,961.93,600.98,962.78,601z"/>
	<path class="st4" d="M1016.74,538.01c3.11-0.36,5.42-1.92,5.96-5.11c0.28-1.66-1.09-2.28-2.7-2.16c-2.91,0.27-5.14,1.59-5.8,4.58
		C1013.82,537.08,1014.75,538.24,1016.74,538.01z"/>
	<path class="st4" d="M774.89,646.52c2.77-0.52,4.53-2.21,4.91-4.98c0.21-1.5-0.27-3.34-2.33-2.99c-2.92,0.5-4.74,2.43-4.94,5.49
		C772.43,645.53,772.96,646.73,774.89,646.52z"/>
	<path class="st4" d="M474.01,624.84c1.39,0.48,3.12,0.58,3.3,2.55c0.14,1.54-0.66,2.83-2.02,3.2c-1.8,0.49-2.33-0.86-2.33-2.41
		c0-0.85-0.51-0.99-1.18-0.87c-0.88,0.16-1.28,0.72-1.15,1.61c0.28,1.94,1.12,3.34,3.21,3.86c2.4,0.6,3.63-0.55,4.61-2.51
		c1.19-2.37,0.92-4.56-1.21-6.04c-2.22-1.53-4.63-1.67-6.75,0.55C471.87,626.33,472.87,624.44,474.01,624.84z"/>
	<path class="st4" d="M784.25,663.53c1.75-0.68,2.88-0.03,3.68,1.21c0.44,0.68,0.28,1.49-0.28,2.1c-1.28,1.38-1.95,0.56-2.72-0.65
		c-0.32-0.51-1.2-0.31-1.42,0.37c-0.16,0.51-0.2,1.28,0.08,1.67c1.53,2.15,3.47,2.34,5.36,0.58c3.41-3.19,1.79-6.13-4.21-7.89
		c-0.83-0.24-1.7-1.09-2.35,0.01c-0.34,0.58-0.41,1.53-0.19,2.18C782.62,664.39,783.63,663.7,784.25,663.53z"/>
	<path class="st4" d="M712.61,641.54c1.4,0.61,2.72-0.18,3.82-0.92c1.72-1.15,2.61-3.01,2.9-4.97c0.37-2.51-1.91-3.23-3.54-4.17
		c-1.5-0.86-1.21,0.47-1.26,1.27c-3.84,0.18-2.29,3.23-2.72,5.25C711.54,639.33,710.89,640.78,712.61,641.54z M713.7,636.2
		c0.05-1.13,0.57-2.23,0.91-3.34c1.18,0.41,2.04,1.24,2.53,2.34c0.66,1.48-0.08,2.6-1.22,3.55c-0.59,0.48-1.24,1.2-1.96,0.75
		C712.58,638.62,713.65,637.28,713.7,636.2z"/>
	<path class="st4" d="M460.19,612.56c0.46-3.88-2.26-4.68-5.91-5.22c0.69,2.36,5.61,2.57,2.86,5.29c-3.04,3.01-1.91-3.36-4.61-2.62
		c-1.34,2.64-0.72,5.24,2.2,5.94C456.87,616.47,459.82,615.74,460.19,612.56z"/>
	<path class="st4" d="M530.49,636.64c2.8,0.17,3.76-1.97,4.21-3.93c0.39-1.71-0.9-3.59-2.75-3.3c-1.85,0.29-4.19,0.94-4.06,3.86
		C527.95,635.14,528.29,636.58,530.49,636.64z"/>
	<path class="st4" d="M524.32,648c2.15-0.89,3.57-2.74,3.04-4.99c-0.5-2.11-1.78-4.19-4.87-3.4c3.9,4.08,3.79,5.34-0.42,6.39
		c-0.72-1.25,1.03-2.59-0.55-4.25c-0.79,2.04-2.82,3.55-1.38,5.79C521.07,648.99,522.92,648.58,524.32,648z"/>
	<path class="st4" d="M976.76,590.69c1.17,0.48,2.29,0.22,3.35-0.63c3.07-2.45,3.07-6.71-0.17-10.18c-2.13,2.33-4.34,4.57-4.22,8.06
		C975.76,588.98,975.58,590.21,976.76,590.69z M980.49,582.49c0.67,2.9,0.65,4.84-1.38,6.28c-0.83,0.58-1.36,0.21-1.67-0.64
		C976.49,585.52,978.35,584.37,980.49,582.49z"/>
	<path class="st4" d="M981.47,572.55c2.08-0.26,3.49-1.3,3.55-3.39c0.08-2.79-2.49-2.76-4.17-3.09c-1.76-0.34-2.61,0.96-2.3,2.85
		C978.84,570.74,979.01,572.58,981.47,572.55z"/>
	<path class="st4" d="M823,659.84c1.86-0.86,4.25-1.31,4.39-3.88c0.09-1.76-1.51-1.91-2.92-2.02c-2.58-0.2-3.46,1.47-3.67,3.56
		C820.67,658.85,821.6,659.66,823,659.84z"/>
	<path class="st4" d="M593.36,684.25c2.15,0.39,4.24-0.37,5.63-2.1c1.47-1.84,1.28-3.56-1.59-4.96c-0.35,1.73,1.56,3.28-0.4,4.37
		c-0.66,0.37-1.75,1.29-1.64-0.54c0.04-0.73,1.25-1.83-0.67-1.49c-1.02,0.18-2.04,0.72-2.14,2.01
		C592.49,682.53,592.05,684.01,593.36,684.25z"/>
	<path class="st4" d="M969.6,578.51c3.45-0.26,4.53-2.38,5.06-4.56c0.44-1.83-1.13-2.24-2.64-2.03c-2.6,0.36-2.58,2.78-3.27,4.53
		C968.31,577.6,968.83,578.52,969.6,578.51z"/>
	<path class="st4" d="M754.66,614.55c2-0.43,3.1-1.7,3.38-3.46c0-2.4-1.64-1.9-2.9-2.12c-3.11-0.54-2.41,2.17-2.76,3.55
		C752.14,613.47,752.98,614.9,754.66,614.55z"/>
	<path class="st4" d="M795.41,659.13c2.1-0.17,3.03-1.56,3.58-3.66c-0.6-0.82-1-2.16-2.54-1.6c-1.54,0.56-3.71,0.45-3.62,3.08
		C792.89,658.75,793.85,659.26,795.41,659.13z"/>
	<path class="st4" d="M1242.67,360.18c3.41-3.75,5.15-8.45,7.35-12.89C1245.85,350.61,1244.67,355.62,1242.67,360.18z"/>
	<path class="st4" d="M763.1,650.58c-1.3,0.66-2.98,0.78-2.94,2.84c0.02,1.48,1.08,1.84,2.03,1.72c1.58-0.21,2.71-1.22,2.6-3.01
		C764.73,651.12,764.18,650.48,763.1,650.58z"/>
	<path class="st4" d="M863.1,673.63c1.44-0.16,2.61-0.88,2.53-2.61c-0.05-1.03,0.04-2.19-1.43-2.41c-1.35,0.63-2.92,1.04-2.92,2.98
		C861.27,672.82,861.76,673.78,863.1,673.63z"/>
	<path class="st4" d="M1295.27,483.69c1.42-2.52,0.87-4.75,0.01-7.35c-2.36-7.17-5.95-14.26-2.7-22.17
		c0.51-1.24,0.73-2.61,1.01-3.93c1.05-5-1.25-8.11-6.26-8.62c-2.23-0.23-4.99-0.03-6.14-2.22c-2.26-4.31-5.41-4.62-9.5-3.25
		c-2.56,0.86-14.66-5.88-15.35-8.34c-0.12-0.42-0.21-1-0.01-1.34c3.17-5.58,3.67-12.98,10.29-16.23c4.41-2.16,7.14-4.71,5.3-10.07
		c-0.42-1.21-0.2-2.74,0.06-4.06c0.58-2.96,0.39-5.21-3.46-5.15c-1.23,0.02-1.71-0.88-1.19-1.82c2.1-3.81,3.06-8.09,5.71-11.74
		c4.54-6.24,8.78-12.74,7.7-21.17c-0.29-2.29,0.56-4.58,2.27-6.25c3.83-3.75,4.56-8.66,5.4-13.58c0.2-1.16,0.06-1.89-0.7-2.84
		c-2.36-2.96-4.69-3.7-8.06-1.28c-2.19,1.57-4.45,4.27-7.54,3.21c-7.19-2.48-9.2-1.98-13.08,4.28c1.57-0.51,3.08-1.01,4.45-2.12
		c2.1-1.71,4.36-2.56,6.77-0.04c1.9,1.98,4.03,0.43,5.85-0.42c1.88-0.88,3.5-2.31,5.33-3.32c2.4-1.33,5.05,0.2,4.82,2.86
		c-0.18,2.08-0.26,4.25-1.49,6.12c-3.75,5.7-7.54,11.33-6.12,18.82c0.3,1.57-0.84,3.46-1.46,5.14c-2.57,7-8.67,11.96-11.05,19.1
		c-1.05,3.14-4.82,6.98,2.32,7.56c0.27,0.02,0.57,0.22,0.76,0.42c1.77,1.89,0.4,12.19-1.92,13.38c-5.69,2.9-9.17,7.55-11.19,13.46
		c-2.75,8.04-2.76,8.03,4.2,13.1c0.73,0.53,1.31,1.26,2.01,1.83c3.06,2.49,6.24,4.22,10.33,2.24c2.53-1.22,4.97-0.63,6.23,1.86
		c1.7,3.36,3.98,4.93,7.85,4.59c3.16-0.28,4.78,1.51,4.5,4.77c-0.14,1.66,0.11,3.51-0.54,4.95c-3.3,7.25-0.61,14.38,1.88,20.6
		c2.15,5.38,1.43,8.97-1.09,13.35c-1.64,2.86-3.53,6.37-2.75,9.4c2.2,8.55,3.21,16.55-3.49,23.67c-0.51,0.54-0.25,1.74-0.47,2.6
		c-1.58,6.07,1.11,11.57,2.25,17.28c0.57,2.84-0.18,5.66-3.27,6.32c-5.09,1.07-8.55,4.18-11.78,7.86c-1.48,1.69-2.73,3.53-4.69,4.87
		c-4.47,3.07-8.64,1.45-12.85-0.38c-3.4-1.48-6.18-1.22-8.9,1.75c-5.03,5.51-10.85,9.18-18.75,5.84c-1.11-0.47-2.27-1.1-3.43-1.17
		c-3.74-0.22-4.4-1.66-3.07-5.17c1.12-2.96,1.2-6.18-1.57-8.82c-3.46-3.3-2.92-5.52,1.56-7.4c4.19-1.76,5.87-5.13,4.26-9.16
		c-1.06-2.65-2.5-5.14-5.07-6.76c-2.68-1.69-4.93-3.85-7.22-6.07c-2.94-2.84-7.89-4.26-11.21-2.87
		c-12.13,5.08-20.47,14.13-24.23,27.01c-0.39,1.33-1.1,3.05,0,3.82c2.76,1.93,1.54,3.91,0.5,5.89c-2.86,5.43-3.61,10.91-2.01,17
		c0.81,3.07,0.19,6.4-2.23,9.32c-3.54,4.29-5.01,9.26-4.3,15.11c0.53,4.39,4.09,8.44,2.89,12.5c-2.34,7.94-3.01,16.6-8.77,23.36
		c-1.51,1.77-4.3,3.79-1.11,6.83c0.94,0.9-0.33,2.53-1.13,3.64c-2.31,3.17-4.98,6.15-6.74,9.6c-0.67,1.31-3.28,3.22-1.06,5.12
		c2.31,1.98,5.07,3.43,8.33,2.38c1.14-0.36,2.35-0.85,3.24-1.61c4.99-4.33,11.17-5.03,17.31-5.92c3.05-0.44,5.25,1.19,4.92,3.82
		c-0.4,3.19,0.45,6.46-0.37,9.4c-1.43,5.14,0.12,7.33,5.3,7.84c1.75,0.17,4.35,0.68,4.01,3.4c-0.33,2.63-2.42,3-4.81,2.92
		c-8.61-0.29-17.21-0.35-25.2,3.7c-1.34,0.68-2.75,1.41-4.21,1.65c-1.51,0.24-3.47,1.1-4.47-0.94c-1.7-3.48-4.26-2.63-7.24-2.06
		c-4.13,0.79-8.29,3.21-12.4,2.05c-5.5-1.56-10.26-0.38-14.73,2.34c-4.78,2.91-9.31,5.7-15.35,4.51c-2.26-0.44-4.83,0.16-7.03,1.43
		c-0.9,0.52-1.8,0.8-2.24,2.01c-2.16,5.98,0.48,10.65,6.66,11.55c7.65,1.12,9.85,3.77,9.84,11.29c0,4.48-1.35,8.64-2.46,12.88
		c-0.7,2.67-2.06,4.46-5.11,4.84c-4.32,0.54-7.53,3.49-9.59,6.8c-4.87,7.78-9.35,15.86-11.81,24.8c-0.8,2.9-1.34,5.81-2.64,8.62
		c-4.96,10.68-12.53,20.35-13.03,32.81c-0.03,0.84-0.6,1.68-1,2.48c-2.88,5.8-5.68,11.64-8.69,17.38
		c-5.39,10.26-10.47,20.56-8.68,32.58c-0.09,0.09-0.16,0.21-0.21,0.36c-2.18,7.59-4.3,15.19-6.26,22.84
		c-2.02,7.87-3.86,15.62-4.58,23.72c-0.72,8.07-0.7,16.16-0.74,24.25c-0.03,7.26-6.08,11.04-11.74,14.32
		c-10.71,6.2-21.5,12.29-32.02,18.82c-2.5,1.56-4.99,3.14-7.44,4.78c-0.97,0.65-1.94,1.31-2.9,1.99c-1.46,1.03-3.75,0.03-5.42-0.29
		c-8.27-1.63-16.5-3.42-24.71-5.32c-32.81-7.61-65.09-17.25-97.8-25.26c-32.56-7.98-65.16-15.82-97.72-23.83
		c-32.17-7.91-64.3-15.98-96.32-24.48c-3.83-1.02-7.65-2.04-11.47-3.07c-0.01-0.01-0.02-0.03-0.03-0.05
		c-5.82-6.94-11.76-13.79-17.47-20.84c-12.93-15.96-29.27-28.5-43.46-43.2c-6.17-6.4-12.29-12.93-18.82-18.97
		c-12.88-11.91-26.77-22.64-40.73-33.26c-8.57-6.52-16.5-13.64-23.34-22.04c-5.14-6.31-9.04-13.56-15.03-19.23
		c-3.83-3.62-7.43-7.51-10.42-11.91c-7.56-11.1-15.33-22.07-22.15-33.65c-3.13-5.31-5.35-10.75-4.21-17.45
		c0.81-4.78,2.89-10.2-1.32-14.8c-0.37-0.4-0.21-1.5-0.01-2.19c1.8-6.13,1.64-12.36,1-18.61c-0.18-1.82-0.76-4.14,1.7-4.4
		c2.39-0.25,4.31,1.21,4.76,3.9c0.6,3.58,1.06,7.19,1.82,10.74c0.88,4.12,3.76,4.98,6.91,2.18c1.03-0.91,1.82-2.01,2.21-3.38
		c0.19-0.67,0.31-1.62,1.34-1.5c0.9,0.1,1.14,0.88,1.23,1.66c0.23,2.03,0.64,4.47,3.11,4.15c2.31-0.31,4.53-1.73,4.97-4.63
		c0.46-2.99,2.39-5.12,4.45-7.14c2.37-2.32,4.35-2.48,4.92,1.32c0.75,4.91,2.15,9.68,2.59,14.67c0.56,6.46,1.24,12.97,3.51,19.12
		c1.29,3.49,3.41,6.05,7.71,5.38c2.61-0.41,3.54-2.67,4.89-4.44c1.84-2.41,3.61-3.85,5.84-0.33c0.8,1.27,2.07,2.71,3.53,2.65
		c5.95-0.22,8.28,4.4,10.97,8.2c2.14,3.02,3.88,5.67,8.26,4.65c1.07-0.25,2.48,0.89,3.72,1.41c4.7,1.98,8.21,6.35,13.57,6.97
		c10.59,1.22,21.21,0.16,31.82,0.34c1.63,0.03,3.02-1.14,4.48-1.99c7.33-4.29,11.97-11.95,19.79-15.61
		c0.97-0.45,1.78-1.75,2.17-2.83c1.89-5.15,6.09-8.59,9.32-12.72c3.02-3.85,5.63-3.82,9.03-0.37c2.55,2.59,4.95,3.12,8.48,1.47
		c5.12-2.38,10.22-3.26,15.92,0.05c4.66,2.7,10.33,3.99,16,1.74c2.46-0.98,5.34-1.01,7.61-0.08c5.53,2.28,10.38,0.35,15.27-1.64
		c2.88-1.17,5.83-1.41,8.14,0.5c4.36,3.62,10.05,4.99,14.2,8.84c1.03,0.95,1.95,1.26,3.24,0.67c1.43-0.65,2.03-1.7,1.92-3.24
		c-0.19-2.72-0.24-5.45-0.57-8.14c-0.2-1.68-0.75-3.83,1.14-4.21c1.74-0.35,2.57,1.81,2.96,3.42c0.51,2.13,1.1,4.58,3.21,5.11
		c4.06,1.01,7.97,2.96,12.4,2.34c2.38-0.33,5.13-1.5,6.78,1.77c1.26,2.49,5.36,2.64,5.79,5.31c0.52,3.25,2.16,3.91,4.78,4.08
		c3.09,0.21,4.8-1.25,5.41-4.25c0.18-0.88,0.76-1.81,1.83-1.75c2.65,0.15,4.15-1.55,5.62-3.3c1.48-1.76,3.14-1.98,3.33,0.56
		c0.37,5.01,3.55,5.41,7.25,4.98c5.4-0.63,9.1,2.14,11.63,6.23c1.24,2,2.52,2.58,4.51,3.06c4.87,1.17,9.35,2.83,11.99,7.79
		c3.15,5.91,9.35,7.15,15.23,3.29c2.8-1.84,5.61-2.71,8.98-2.32c8.78,1.01,17.16-1.88,25.15-4.47c7.3-2.36,13.87-7.27,20.39-11.61
		c3.5-2.33,8.52-4.87,7.51-9.94c-1.35-6.78-3.03-13.44-2.79-20.42c0.01-0.43-0.7-0.9-1.11-1.32c-2.09-2.15-3.92-4.47-7.07-5.45
		c-1.71-0.53-3.75-1.9-3.79-4.06c-0.03-1.86,1.88-2.57,3.4-3.28c3.21-1.5,6.03-3.7,9.47-4.86c1.84-0.62,3.53-2.32,5.35-0.58
		c1.62,1.54,0.5,3.34-0.31,4.98c-3.93,7.96-0.74,16.01-0.2,24.01c0.19,2.86,3.69,3.41,4.71,5.87c1.8,4.34,2.51,4.37,6.09,1.08
		c3.04-2.79,5.35-7.13,10.04-7.03c6.5,0.14,12.48-3.98,19.11-1.99c1.05,0.31,1.87-0.03,2.28-0.94c1.6-3.52,4.41-7.1,4.35-10.62
		c-0.09-4.83,2.38-6.89,5.62-8.83c2.11-1.27,4.78-2.48,5.15-4.74c0.76-4.59,3.93-6.36,7.3-8.53c2.8-1.8,6.98-3.71,6.12-7.66
		c-1.75-8.08,4.02-11.39,8.7-15.42c1.23-1.06,2.32-2.76,4.54-2.63c4.59,0.26,9.1,0.1,11.89-4.55c0.32-0.54,1.39-1.07,1.96-0.94
		c3.86,0.87,4.67-2,6.25-4.44c2.14-3.31,3.41-6.7,3.31-10.62c-0.06-2.39,1.28-3.81,3.03-5.25c2.87-2.36,3.68-6.28,1.2-8.4
		c-4.37-3.73-3.11-5.98,0.46-8.77c1.06-0.83,2.06-1.87,2.73-3.02c1.72-2.96,4.37-3.11,6.49-1.37c3.82,3.14,7.54,1.24,9.65-1.01
		c2.36-2.52,6.71-2.96,7.37-7.31c1.08-7.09,8.42-11.09,9.38-18.36c0.09-0.69,1.23-1.27,1.95-1.83c2.03-1.58,3.98-3.31,6.17-4.64
		c7.32-4.42,13.54-10.73,22.21-12.89c1.51-0.38,3.45-1.24,3.85-2.93c1.15-4.92,4.72-7.07,8.95-8.74c1.06-0.42,2.07-1.15,2.4-2.41
		c3.65-0.78,3.82-4.31,3.92-6.66c0.13-2.99,1.74-4.14,3.52-5.7c2.32-2.03,5.41-3.13,7.11-5.89c4.39-2.44,8.76-4.9,13.18-7.28
		c0.78-0.42,1.87-0.48,2.01-1.54c0.25-1.87-1.36-1-2.15-1.35c-1.94-0.86-1.27-2.21-0.34-3.26c2.08-2.34,4.76-3.5,7.91-3.75
		c5.67-0.45,8.93-4.09,11.27-8.85c-4.36,3.24-7.81,7.45-14.32,7.52c-5.13,0.05-7.66,4.26-7.05,9.34c0.25,2.09-1.07,2.18-2.05,2.92
		c-2.8,2.12-6.67,2.79-8.52,6.22c-3.74,1.45-6.64,4.24-9.95,6.38c-1.22,0.78-2.07,1.89-1.8,3.35c0.63,3.4-1.48,5.81-2.83,8.5
		c-3.41,1.49-7.76,2.19-9.9,4.75c-2.96,3.54-5.56,6.41-9.88,8.82c-9.14,5.09-17.32,11.94-25.84,18.12
		c-0.94,0.68-2.28,1.78-2.26,2.66c0.11,4.82-2.53,7.79-6.01,10.52c-1.68,1.32-2.31,3.51-2.91,5.57c-1.57,5.38-8.2,4.93-10.75,9.22
		c-0.07,0.12-1.08-0.26-1.62-0.47c-6.89-2.59-6.89-2.59-11.63,2.86c-0.79,0.91-1.42,2.1-2.4,2.7c-4.06,2.48-3.5,5.24-0.56,8.02
		c2.1,1.99,2.92,4.97,1.07,6.39c-4.09,3.13-3.85,7.38-4.94,11.54c-0.95,3.61-1.94,8.35-6.56,9.07c-2.52,0.39-4.15,1.21-5.6,2.99
		c-0.86,1.05-1.57,2.61-3.07,2.45c-7.25-0.76-12.33,3.26-17.06,7.76c-2.49,2.37-5.75,4.79-5.47,8.66c0.45,6.21-0.7,8.56-6.6,11.08
		c-1.94,0.83-4.27,2.26-4.31,4.09c-0.08,4.54-3.26,6.04-6.2,8.14c-3.52,2.52-6.51,5.05-6.58,10.43c-0.03,2.6-0.96,7.54-4.82,8.38
		c-3.43,0.75-7,1.49-10.44,1.89c-7.25,0.85-14.02,1.89-18.83,8.1c-0.73,0.95-2.4,1.98-3.08,0.8c-1.48-2.56-5.29-3.85-5.4-6.45
		c-0.28-7.08-3.48-14.24,0.09-21.32c0.67-1.34,1.19-2.78,1.56-4.24c0.96-3.75-2.06-6.66-5.71-5.44c-5.48,1.83-10.44,4.78-15.22,7.94
		c-3.33,2.21-3.13,5.28,0.11,7.78c0.95,0.73,2.05,1.29,3.14,1.81c4.28,2.04,7.57,4.55,7.22,10.11c-0.27,4.35-0.06,8.73,1.81,12.92
		c1.05,2.34,0.58,5.15-1.47,6.66c-2.07,1.53-3.65,3.59-5.71,4.96c-12.49,8.3-25.99,14.22-41.17,14.86
		c-4.82,0.2-9.17,0.57-13.37,3.24c-3.3,2.1-8.28,1.15-9.75-1.72c-3.11-6.09-8.44-8.8-14.6-10.34c-1.63-0.41-2.51-1.15-3.47-2.47
		c-3.24-4.42-7.22-7.81-13.24-7.01c-3.55,0.47-4.68-1.46-5.54-4.45c-0.99-3.47-2.95-3.9-5.45-1.32c-1.64,1.69-3.29,2.93-5.72,3.33
		c-1.72,0.28-3.16,1.11-3.34,3.55c-0.15,1.94-4.98,3.25-5.32,1.83c-1.08-4.53-5.66-5.72-7.86-9.07c-1.54-2.34-3.28-2.89-6.15-1.79
		c-6.23,2.39-13.34-0.99-16.04-6.95c-0.84-1.84-1.86-4.38-4.47-3.73c-2.59,0.64-3.36,3.15-2.68,5.51c1,3.49,0.12,6.7-0.52,10.97
		c-2.98-4.02-6.81-5.2-10.6-6.52c-1.11-0.38-2.31-1.07-3.02-1.97c-3.4-4.31-7.42-2.82-11.44-1.41c-4.3,1.5-8.46,2.83-13.23,1.38
		c-2.74-0.84-5.87-1.66-8.91-0.33c-5.01,2.18-10.26,1.28-14.4-1.27c-6.52-4.02-12.52-3.41-18.87-0.49c-2.36,1.09-4.21,0.6-6.07-1.12
		c-4.03-3.71-7.35-3.76-10.72,0.47c-3.48,4.36-7.7,8.17-10.26,13.25c-0.91,1.8-2.23,3.13-4.14,4.01c-3.62,1.67-6.28,4.49-9.04,7.37
		c-4.48,4.68-9.37,8.4-16.83,8.02c-7.31-0.37-14.67,0.32-22.07-0.11c-4.79-0.28-8.73-0.86-12.4-4.04c-2.71-2.35-6.24-5.69-9.25-5.05
		c-5.13,1.09-6.07-2.26-8.44-4.79c-2.29-2.45-3.17-6.62-7.29-6.96c-3.03-0.24-4.97-1.65-6.68-4.04c-1.89-2.65-4.31-2.44-6.5-0.23
		c-1.16,1.17-2.09,2.57-3.13,3.85c-2.18,2.68-4.55,2.32-6.39-0.12c-1.23-1.63-2-3.63-2.55-5.75c-2.57-10-2.65-20.4-5.04-30.42
		c-0.42-1.75-0.33-3.85-2.56-4.37c-2.09-0.48-3.75,0.68-5.22,2.06c-2.7,2.52-4.89,5.34-5.71,9.06c-0.23,1.03-0.68,2.08-1.98,2.17
		c-0.71,0.05-1.1-0.54-1.13-1.17c-0.13-2.37-1.11-4.29-3.53-4.63c-2.93-0.41-2.84,2.61-3.95,4.21c-0.81,1.16-1.6,2.33-3.21,2.05
		c-1.62-0.28-1.41-1.81-1.61-2.92c-0.56-3.12-0.53-6.31-1.46-9.4c-1.38-4.6-4.83-7.47-8.54-5.98c-3.79,1.53-3.63,5.04-2.64,8.44
		c1.33,4.56,1.81,9.03,0.61,13.82c-0.64,2.53-2.36,5.82-0.86,7.89c2.93,4.07,1.6,8.06,1.12,12.11c-0.56,4.74-0.73,9.29,1.83,13.65
		c11.44,19.43,23.46,38.42,39,54.94c1.96,2.09,3.76,4.37,5.36,6.75c8.38,12.46,18.83,22.82,30.97,31.61
		c12.14,8.79,23.77,18.23,34.83,28.34c7.34,6.72,14.18,13.98,21.36,20.88c10.25,9.83,20.86,19.29,30.85,29.37
		c11.55,11.66,22,24.32,32.33,37.07c0.05-0.03,0.1-0.07,0.15-0.1c0.01,0,0.02,0.01,0.03,0.01c32.51,8.75,65.14,17.02,97.82,25.1
		c32.97,8.15,65.98,16.1,98.97,24.15c16.79,4.1,33.51,8.38,50.19,12.91c16.37,4.45,32.76,8.84,49.26,12.81
		c8.3,2,16.62,3.89,24.98,5.63c2.04,0.42,4.08,0.84,6.12,1.25c1.02,0.2,2.05,0.4,3.07,0.6c0.93,0.18,2.24,0.68,3.19,0.61
		c0.85-0.07,1.62-0.89,2.32-1.37c1.2-0.83,2.41-1.65,3.63-2.45c10.63-6.98,21.72-13.26,32.74-19.6c4.8-2.76,10.22-5.27,14.06-9.36
		c1.92-2.04,3.35-4.53,3.67-7.35c0.45-3.93,0.07-8.06,0.14-12.02c0.14-8.47,0.33-17.3,2.27-25.58c1.84-7.88,3.86-15.71,6-23.51
		c1.04-3.78,2.11-7.56,3.2-11.33c0.01-0.04,0.01-0.07,0.02-0.11c0.12,0.04,0.24,0.09,0.35,0.15c-0.01-0.35-0.02-0.71-0.04-1.09
		c-0.39-9.72,1.86-18.84,6.23-27.47c1.97-3.9,4.6-7.52,6.17-11.56c2.19-5.64,7.53-10.12,6.5-16.94c-0.46-3.05,0.84-5.49,2.12-8.11
		c3.91-7.98,8.61-15.77,11.06-24.21c2.57-8.85,6.15-17.04,10.84-24.76c2.79-4.58,5.73-9.65,12.42-9.72
		c2.43-0.03,3.92-2.03,4.41-4.05c1.78-7.35,3.69-14.72,3.1-22.41c-0.12-1.56-0.67-3.16-2.26-3.65c-3.28-1.02-6.12-3.39-9.84-3.12
		c-3.6,0.26-4.76-2.26-5.11-5.16c-0.34-2.87,1.49-4.47,4.07-5.13c2.65-0.67,5.38-1,8.12-0.7c3.19,0.35,5.79-0.59,8.28-2.75
		c3.64-3.15,8.23-4.35,12.9-5.19c2.7-0.49,4.87,2.37,7.81,0.93c3.74-1.83,7.96-1.41,11.97-2c1.1-0.16,2.14-0.3,2.78,0.87
		c2.7,4.94,6.1,3.34,9.97,1.45c6.03-2.95,11.94-6.41,19.3-4.48c2.47,0.65,5.37-0.46,8.08-0.57c3.44-0.13,5.44-1.83,5.77-5.17
		c0.36-3.61-2.7-3.92-5.08-4.67c-1.84-0.58-4.71,0.57-4.86-2.7c-0.17-3.75-0.41-7.57,0.11-11.25c0.86-6.09-0.48-7.97-6.59-6.99
		c-5.75,0.91-11.81,1.16-16.47,5.53c-0.74,0.69-1.82,1.05-2.78,1.48c-2.19,1-4.57,1.52-6.31-0.48c-1.68-1.93-0.34-4.05,0.77-5.8
		c1.21-1.91,2.95-3.5,4.05-5.46c1.37-2.43,4.86-5.07,3.37-7.44c-2.08-3.29-0.15-4.83,1.12-6.84c6.48-10.34,11.13-20.75,5.77-33.38
		c-1.84-4.34-1.48-9.98,1.96-13.8c4.65-5.16,4.78-10.57,3.29-16.78c-0.75-3.1-0.02-6.13,2.09-8.96c2.55-3.42,5.27-7.2,1.19-11.51
		c-0.86-0.91-0.28-1.98,0.01-3.01c1.55-5.46,3.67-10.81,7.9-14.58c5.83-5.2,12.13-10.75,20.85-7.75c4.97,1.72,8.37,6.22,12.08,9.86
		c4.22,4.13,3.46,6.68-1.94,9.23c-5.27,2.49-6.11,7.34-1.81,10.72c2.74,2.16,2.63,4.84,1.75,7.78c-1.71,5.71-1.69,5.71,4.32,7.18
		c0.44,0.11,0.85,0.3,1.27,0.48c8.06,3.47,15.83,2.53,21.43-4.05c4.54-5.33,8.41-3.5,13.02-1.31c1.46,0.69,2.87,1.7,4.7,0.76
		c3.59-1.86,7.36-3.19,9.79-6.95c2.51-3.89,6.33-6.44,10.92-7.65c1.7-0.45,4.23,1.44,5.02-1.5c0.54-2.02,1.13-4.26,0.75-6.21
		c-0.45-2.3-0.88-4.66-1.8-6.96c-1.7-4.22-1.79-8.32,0.74-12.91c3.72-6.75,4.53-14.79,2.78-22.09c-0.88-3.68-0.45-6.23,0.71-9.18
		C1292.88,488.25,1294.01,485.92,1295.27,483.69z"/>
	<rect x="771.71" y="208.52" class="st5" width="682.21" height="652.71"/>
</g>
</svg>
