<?xml version="1.0" encoding="utf-8"?>
<!-- Generator: Adobe Illustrator 27.5.0, SVG Export Plug-In . SVG Version: 6.00 Build 0)  -->
<svg version="1.1" id="Layer_1" xmlns="http://www.w3.org/2000/svg" xmlns:xlink="http://www.w3.org/1999/xlink" x="0px" y="0px"
	 viewBox="0 0 1039.62 716.7" style="enable-background:new 0 0 1039.62 716.7;" xml:space="preserve">
<style type="text/css">
	.st0{fill:#FFFFFF;}
	.st1{opacity:0.3;}
	.st2{fill:#B12226;}
	.st3{fill:#231F20;}
	.st4{fill:#1D1D1B;}
	.st5{fill:none;}
	.st6{clip-path:url(#SVGID_00000120520902823418037960000011718404670185332361_);}
	.st7{clip-path:url(#SVGID_00000183247479466145345720000009841558677768904074_);fill:#408342;}
	.st8{clip-path:url(#SVGID_00000183247479466145345720000009841558677768904074_);fill:#1D1D1B;}
	.st9{clip-path:url(#SVGID_00000183247479466145345720000009841558677768904074_);fill:#C62F28;}
	.st10{clip-path:url(#SVGID_00000183247479466145345720000009841558677768904074_);fill:#010101;}
	.st11{fill:none;stroke:#010101;stroke-width:2;stroke-miterlimit:10;}
	.st12{fill:none;stroke:#010101;stroke-width:1.7922;stroke-miterlimit:10;}
	.st13{fill:none;stroke:#FFFFFF;stroke-width:4;stroke-miterlimit:10;}
	.st14{opacity:0.07;}
	.st15{clip-path:url(#SVGID_00000078761798850710017110000007562872202438309797_);}
	.st16{clip-path:url(#SVGID_00000145016986044596368560000007149096799745470388_);fill:#408342;}
	.st17{clip-path:url(#SVGID_00000145016986044596368560000007149096799745470388_);fill:#1D1D1B;}
	.st18{clip-path:url(#SVGID_00000145016986044596368560000007149096799745470388_);fill:#C62F28;}
	.st19{clip-path:url(#SVGID_00000145016986044596368560000007149096799745470388_);fill:#010101;}
	.st20{clip-path:url(#SVGID_00000112602657593489387100000008441186354595516844_);}
	.st21{clip-path:url(#SVGID_00000072239689704017183920000004843936622240464022_);fill:#408342;}
	.st22{clip-path:url(#SVGID_00000072239689704017183920000004843936622240464022_);fill:#1D1D1B;}
	.st23{clip-path:url(#SVGID_00000072239689704017183920000004843936622240464022_);fill:#C62F28;}
	.st24{clip-path:url(#SVGID_00000072239689704017183920000004843936622240464022_);fill:#010101;}
	.st25{clip-path:url(#SVGID_00000101103699174300042010000006319938382905684878_);}
	.st26{clip-path:url(#SVGID_00000016036341785005237050000006719138960364665785_);fill:#408342;}
	.st27{clip-path:url(#SVGID_00000016036341785005237050000006719138960364665785_);fill:#1D1D1B;}
	.st28{clip-path:url(#SVGID_00000016036341785005237050000006719138960364665785_);fill:#C62F28;}
	.st29{clip-path:url(#SVGID_00000016036341785005237050000006719138960364665785_);fill:#010101;}
	.st30{clip-path:url(#SVGID_00000052097039543563322160000016739488326599982731_);}
	.st31{clip-path:url(#SVGID_00000016783861757723675000000014527790663019739272_);fill:#408342;}
	.st32{clip-path:url(#SVGID_00000016783861757723675000000014527790663019739272_);fill:#1D1D1B;}
	.st33{clip-path:url(#SVGID_00000016783861757723675000000014527790663019739272_);fill:#C62F28;}
	.st34{clip-path:url(#SVGID_00000016783861757723675000000014527790663019739272_);fill:#010101;}
	.st35{clip-path:url(#SVGID_00000021108491903827581860000011756801657957263750_);}
	.st36{clip-path:url(#SVGID_00000036947522175302928870000014486368301514959545_);fill:#408342;}
	.st37{clip-path:url(#SVGID_00000036947522175302928870000014486368301514959545_);fill:#1D1D1B;}
	.st38{clip-path:url(#SVGID_00000036947522175302928870000014486368301514959545_);fill:#C62F28;}
	.st39{clip-path:url(#SVGID_00000036947522175302928870000014486368301514959545_);fill:#010101;}
</style>
<g>
	<g>
		<defs>
			<rect id="SVGID_00000109012462883903370280000002891903993960674716_" x="162.16" y="4.97" width="595.43" height="711.73"/>
		</defs>
		<clipPath id="SVGID_00000023984391897788225650000014311357485856294064_">
			<use xlink:href="#SVGID_00000109012462883903370280000002891903993960674716_"  style="overflow:visible;"/>
		</clipPath>
		<g style="clip-path:url(#SVGID_00000023984391897788225650000014311357485856294064_);">
			<defs>
				<rect id="SVGID_00000108999427453671333560000009516244652418806718_" x="162.16" y="4.97" width="595.43" height="711.73"/>
			</defs>
			<clipPath id="SVGID_00000004539488924753364500000012537443572047722122_">
				<use xlink:href="#SVGID_00000108999427453671333560000009516244652418806718_"  style="overflow:visible;"/>
			</clipPath>
			<path style="clip-path:url(#SVGID_00000004539488924753364500000012537443572047722122_);fill:#408342;" d="M518.54,407.17
				c1.05,1.05,1.59,3.01,1.62,5.89c0.07,2.61-0.16,4.19-0.68,4.74c-2.73,0.13-5.63,0.48-8.7,1.05c-0.66,0.1-1.01-0.24-1.05-1.02
				c-0.14-5.45-0.44-9.01-0.9-10.67c0.49-0.47,1.86-0.83,4.12-1.09C515.63,405.76,517.49,406.13,518.54,407.17"/>
			<path style="clip-path:url(#SVGID_00000004539488924753364500000012537443572047722122_);fill:#408342;" d="M527.99,395.82
				c1.05,1.05,1.6,3,1.67,5.84c0.04,2.63-0.2,4.23-0.73,4.78c-2.73,0.13-5.61,0.46-8.65,1c-0.69,0.13-1.04-0.21-1.05-1.02
				c-0.14-5.45-0.44-9.01-0.9-10.67c0.46-0.44,1.83-0.8,4.12-1.09C525.09,394.39,526.94,394.77,527.99,395.82"/>
			<path style="clip-path:url(#SVGID_00000004539488924753364500000012537443572047722122_);fill:#1D1D1B;" d="M548.6,219.61
				c-0.17-0.31-0.43-5.34-0.15-10.8c0.29-5.46,1.63-11.18,2.48-11.63c4.79-2.57,19.5-1.8,22,0.78c0,0,7.28,14.72-3.2,27.05
				c-3.62,4.26-9.83,8.07-13.87,11.01c-8.82,6.42-13.93,11.09-13.67,12.62c1.27,7.3,14.72,88.59,14.72,88.59s2.79,5.32-13.69,17.18
				c-0.33,0.24-15.57-91.7-15.43-91.88C527.2,233.42,544.4,223.75,548.6,219.61"/>
			<path style="clip-path:url(#SVGID_00000004539488924753364500000012537443572047722122_);fill:#408342;" d="M514.49,276.05
				l14.78,89.25c0,0,3.38,14.78-3.19,21.84c-9.53,10.23-27.02,32.13-27.02,32.13s-6.08,7.65-7.72,8.16
				c-0.44,0.14-16.49-96.14-16.49-96.14s-0.62-4.13,3.05-8.36c2.72-3.13,10.38-9.74,10.38-9.74s12.43,81.11,13.41,81.35
				c0.98,0.25,12.9-17.99,12.98-19.21c0.13-1.91-13.12-79.13-13.12-79.13s-1.38-6.34,2.95-10.76
				C508.94,280.89,514.49,276.05,514.49,276.05"/>
			<path style="clip-path:url(#SVGID_00000004539488924753364500000012537443572047722122_);fill:#C62F28;" d="M461.4,345.79
				c0,0,9.29,61.89,9.3,61.97c1.18,12.18-0.39,18.17-3.14,21.9c-1.72,2.33-4.32,5.21-9.81,5.59c-0.04,0.01-30.33-1.66-30.33-1.66
				c-0.4,0.18-10.4-60.34-10.4-60.34s-1.14-5.12,2.48-9.4c2.68-3.17,10.7-10.48,10.7-10.48s10.8,67.37,11.58,68.01
				c1.07,0.89,14.14,0.63,14.96-0.5c0.79-1.09-8.31-54.53-8.31-54.53s-1.47-6.32,2.8-10.8C455.62,350.96,461.4,345.79,461.4,345.79"
				/>
			<path style="clip-path:url(#SVGID_00000004539488924753364500000012537443572047722122_);fill:#C62F28;" d="M401.51,406.29
				c-0.92,1.05-9.35,10.31-9.35,10.31c-0.4,0.18-8.58-48.16-8.58-48.16s-1.11-5.52,2.83-10.59c2.55-3.28,10.2-9.39,10.2-9.39
				s6.72,35.68,7.31,39.27C403.92,387.73,406.13,401.03,401.51,406.29"/>
			<path style="clip-path:url(#SVGID_00000004539488924753364500000012537443572047722122_);fill:#C62F28;" d="M362.25,354.59
				c1.16-0.89,2.16-2.91,5.15-1.65c0.11-0.06,5.81,5.25,5.81,5.25s-3.48,2.19-5.38,3.82c-1.57,1.35-1.01,3.36-1.07,3.56
				c0.01,0.37,2.24,13.48,2.39,16.25c0,0,0.34,3.22-2.21,6.31c-3.09,3.74-4.66,5.83-7.72,9.17c-3.16,2.04-5.85,1.06-7.53,0.04
				c-1.68-1.02-7.35-6.06-7.35-6.06s5.26-1.83,7.38-2.71c3.57-1.49,1.71-4.51,1.71-4.51s-2.58-15.05-2.64-15.22
				c0,0-0.57-3.43,2.44-6.15C356.27,359.96,361.09,355.48,362.25,354.59"/>
			<path style="clip-path:url(#SVGID_00000004539488924753364500000012537443572047722122_);fill:#C62F28;" d="M443.59,348.48
				c0.27,1.46-0.39,3.38-1.99,5.77c-1.41,2.19-2.49,3.37-3.24,3.53c-2.33-1.44-4.91-2.79-7.77-4.05c-0.6-0.29-0.7-0.77-0.29-1.43
				c2.96-4.58,4.73-7.68,5.29-9.31c0.67-0.1,2.01,0.37,4.01,1.42C441.99,345.67,443.32,347.02,443.59,348.48"/>
			<path style="clip-path:url(#SVGID_00000004539488924753364500000012537443572047722122_);fill:#C62F28;" d="M457.8,344.45
				c0.27,1.46-0.37,3.38-1.92,5.76c-1.45,2.2-2.55,3.38-3.3,3.54c-2.33-1.43-4.89-2.79-7.71-4.06c-0.64-0.28-0.74-0.76-0.29-1.43
				c2.97-4.58,4.73-7.68,5.29-9.31c0.63-0.1,1.97,0.38,4.01,1.43C456.22,341.64,457.53,342.99,457.8,344.45"/>
			<path style="clip-path:url(#SVGID_00000004539488924753364500000012537443572047722122_);fill:#C62F28;" d="M449.19,336.29
				c0.27,1.46-0.37,3.38-1.92,5.76c-1.45,2.2-2.55,3.38-3.3,3.54c-2.32-1.44-4.89-2.79-7.71-4.06c-0.64-0.29-0.74-0.76-0.29-1.43
				c2.97-4.58,4.73-7.68,5.29-9.31c0.63-0.1,1.97,0.38,4.01,1.43C447.61,333.47,448.92,334.83,449.19,336.29"/>
			<path style="clip-path:url(#SVGID_00000004539488924753364500000012537443572047722122_);fill:#010101;" d="M264.99,480.95
				c0,2.37-0.82,4.27-2.46,5.68c-1.45,1.24-3.33,1.86-5.65,1.86c-2.67,0-4.74-0.95-6.21-2.84c-1.16-1.45-1.74-3.19-1.74-5.21
				c0-1.81,0.46-3.36,1.39-4.67l2.05-0.41c-1.01,1.53-1.51,3.17-1.51,4.92c0,1.85,0.6,3.38,1.8,4.58c1.11,1.11,2.52,1.67,4.23,1.67
				c2,0,3.54-0.59,4.64-1.77c0.9-0.97,1.36-2.24,1.36-3.82V470.1l2.11-1.1V480.95z M256.98,468.37c-0.86,0-1.29-0.44-1.29-1.33
				c0-0.84,0.43-1.26,1.29-1.26c0.82,0,1.23,0.42,1.23,1.26C258.21,467.92,257.8,468.37,256.98,468.37"/>
			<path style="clip-path:url(#SVGID_00000004539488924753364500000012537443572047722122_);fill:#010101;" d="M276,482.5
				c-1.79,0-3.16-0.58-4.13-1.73c-0.8-0.99-1.2-2.24-1.2-3.75v-13.75l2.11-1.1v14.8c0,2.4,1.16,3.6,3.47,3.6h1.1v1.96H276z"/>
			<path style="clip-path:url(#SVGID_00000004539488924753364500000012537443572047722122_);fill:#010101;" d="M286.88,480.54h1.1
				v1.96h-1.36c-1.89,0-3.31-0.64-4.26-1.92c-0.99,1.28-2.42,1.92-4.29,1.92h-1.36v-1.96h1.1c2.31,0,3.47-1.2,3.47-3.6v-6.84
				l2.11-1.1v7.95C283.41,479.35,284.57,480.54,286.88,480.54 M279.72,485.81c0.84,0,1.26,0.43,1.26,1.29
				c0,0.86-0.42,1.29-1.26,1.29c-0.84,0-1.26-0.43-1.26-1.29C278.46,486.24,278.88,485.81,279.72,485.81 M283.32,485.81
				c0.84,0,1.26,0.43,1.26,1.29c0,0.86-0.42,1.29-1.26,1.29c-0.84,0-1.26-0.43-1.26-1.29C282.06,486.24,282.48,485.81,283.32,485.81
				"/>
			<path style="clip-path:url(#SVGID_00000004539488924753364500000012537443572047722122_);fill:#010101;" d="M308.17,480.54h1.1
				v1.96h-1.35c-1.91,0-3.35-0.64-4.29-1.92c-0.95,1.28-2.38,1.92-4.29,1.92h-3.12c-0.74,0-1.42-0.1-2.05-0.32
				c-0.63,0.21-1.29,0.32-1.99,0.32h-4.83v-1.96h4.04c-1.13-1.13-1.7-2.53-1.7-4.2c0-1.22,0.28-2.25,0.85-3.09
				c0.44-1.75,1.28-3.13,2.51-4.15c1.23-1.02,2.67-1.53,4.34-1.53c2.12,0,3.89,0.75,5.3,2.24c1.33,1.43,1.99,3.25,1.99,5.46v1.67
				C304.67,479.34,305.84,480.54,308.17,480.54 M294.2,480.26c1.91-0.63,2.87-1.96,2.87-3.97c0-0.99-0.26-1.78-0.77-2.38
				c-0.51-0.6-1.22-0.9-2.1-0.9s-1.59,0.29-2.11,0.88c-0.53,0.59-0.79,1.39-0.79,2.4C291.3,478.3,292.26,479.63,294.2,480.26
				 M299.18,480.54c2.27,0,3.41-1.24,3.41-3.72v-1.55c0-1.89-0.61-3.39-1.83-4.48c-0.99-0.86-2.14-1.29-3.47-1.29
				c-1.77,0-3.11,0.68-4.04,2.05c0.31-0.06,0.63-0.09,0.95-0.09c1.35,0,2.43,0.45,3.25,1.34c0.82,0.89,1.23,2.08,1.23,3.55
				c0,1.66-0.57,3.06-1.71,4.2H299.18z"/>
			<path style="clip-path:url(#SVGID_00000004539488924753364500000012537443572047722122_);fill:#010101;" d="M308.65,482.5v-1.96
				h1.1c2.31,0,3.47-1.2,3.47-3.6v-6.84l2.11-1.1v8.01c0,1.77-0.52,3.14-1.55,4.13c-0.95,0.9-2.21,1.36-3.79,1.36H308.65z
				 M314.13,464.83c-0.86,0-1.29-0.44-1.29-1.32c0-0.84,0.43-1.26,1.29-1.26c0.82,0,1.23,0.42,1.23,1.26
				C315.36,464.39,314.96,464.83,314.13,464.83"/>
			<path style="clip-path:url(#SVGID_00000004539488924753364500000012537443572047722122_);fill:#010101;" d="M344.2,480.8
				c0,2.44-0.83,4.37-2.49,5.8c-1.49,1.26-3.4,1.89-5.71,1.89c-2.74,0-4.84-0.94-6.31-2.81c-1.16-1.45-1.74-3.19-1.74-5.2
				c0-1.83,0.46-3.38,1.39-4.64l2.08-0.47c-1.03,1.51-1.55,3.17-1.55,4.98c0,1.85,0.6,3.36,1.8,4.54c1.13,1.11,2.58,1.67,4.32,1.67
				c2.02,0,3.58-0.61,4.7-1.83c0.95-1.01,1.42-2.32,1.42-3.94v-17.54l2.08-1.1V480.8z"/>
			<path style="clip-path:url(#SVGID_00000004539488924753364500000012537443572047722122_);fill:#010101;" d="M354.45,458.87
				c-0.63,1.01-1.32,1.52-2.08,1.52c-0.48,0-1.05-0.22-1.7-0.66c-0.46-0.32-0.82-0.47-1.07-0.47c-0.38,0-0.81,0.34-1.29,1.01
				l-0.82-0.6c0.65-1.03,1.34-1.55,2.08-1.55c0.42,0,0.93,0.2,1.52,0.6c0.5,0.36,0.92,0.54,1.26,0.54c0.33,0,0.77-0.32,1.29-0.98
				L354.45,458.87z M349.88,482.5v-19.24l2.11-1.1v20.35H349.88z"/>
			<path style="clip-path:url(#SVGID_00000004539488924753364500000012537443572047722122_);fill:#010101;" d="M362.71,482.5
				l1.01-1.96h5.93c0.97,0,1.65-0.24,2.04-0.73c0.39-0.48,0.58-1.33,0.58-2.53c0-3.09-1.36-5.39-4.07-6.91l1.04-1.74
				c3.34,1.93,5.05,4.66,5.11,8.17c0.02,2.48,1.23,3.72,3.63,3.72h0.98v1.96h-1.2c-1.83,0-3.23-0.61-4.2-1.83
				c-0.71,1.22-1.9,1.83-3.56,1.83H362.71z"/>
			<path style="clip-path:url(#SVGID_00000004539488924753364500000012537443572047722122_);fill:#010101;" d="M398.17,480.54h1.07
				v1.96h-1.36c-1.91,0-3.34-0.66-4.29-1.99c-1.05,1.75-2.65,2.62-4.8,2.62c-2.16,0-3.76-0.86-4.79-2.59
				c-0.97,1.3-2.41,1.96-4.32,1.96h-1.36v-1.96h1.1c2.31,0,3.47-1.2,3.47-3.6v-1.07c0-2.42,0.59-4.27,1.77-5.55
				c1.03-1.13,2.41-1.7,4.13-1.7c1.98,0,3.48,0.74,4.51,2.21c0.9,1.26,1.36,2.95,1.36,5.05v1.07
				C394.67,479.34,395.83,480.54,398.17,480.54 M388.8,481.17c1.16,0,2.07-0.48,2.75-1.44c0.67-0.96,1.01-2.26,1.01-3.9
				c0-3.53-1.25-5.3-3.75-5.3c-2.52,0-3.79,1.77-3.79,5.3C385.02,479.4,386.28,481.17,388.8,481.17"/>
			<path style="clip-path:url(#SVGID_00000004539488924753364500000012537443572047722122_);fill:#010101;" d="M398.61,482.5v-1.96
				h3.53c4.59,0,8.16-1.56,10.73-4.67c-1.87-3.58-4.13-5.36-6.78-5.36c-1.81,0-3.57,0.91-5.3,2.75v-2.08
				c1.73-1.7,3.52-2.55,5.39-2.55h0.06c3.3,0,6.16,2.23,8.58,6.69v1.29c-3.07,3.93-7.31,5.9-12.71,5.9H398.61z"/>
			<path style="clip-path:url(#SVGID_00000004539488924753364500000012537443572047722122_);fill:#010101;" d="M417.51,461.71
				l0.6-1.1h0.79c-0.21-0.36-0.32-0.74-0.32-1.13c0-0.59,0.23-1.1,0.68-1.55c0.45-0.44,0.97-0.66,1.56-0.66
				c0.46,0,0.91,0.15,1.35,0.44v1.17c-0.4-0.29-0.8-0.44-1.2-0.44c-0.33,0-0.62,0.11-0.87,0.32c-0.24,0.21-0.36,0.46-0.36,0.76
				c0,0.38,0.16,0.75,0.47,1.1h2.74l-0.6,1.1H417.51z M419.24,482.5v-17.98l2.11-1.1v19.08H419.24z"/>
			<path style="clip-path:url(#SVGID_00000004539488924753364500000012537443572047722122_);fill:#010101;" d="M459.81,480.54h1.1
				v1.96h-1.36c-1.89,0-3.31-0.64-4.26-1.92c-0.99,1.28-2.43,1.92-4.32,1.92h-11.26c-1.56,0-2.8-0.49-3.72-1.47
				c-0.93-0.98-1.39-2.3-1.39-3.96v-4.13l2.11-1.1v4.98c0,2.48,1.16,3.72,3.47,3.72h10.57c2.31,0,3.47-1.24,3.47-3.72v-6.72
				l2.11-1.1v7.95C456.34,479.35,457.49,480.54,459.81,480.54 M442.96,467.83c-0.84,0-1.26-0.44-1.26-1.32
				c0-0.84,0.42-1.26,1.26-1.26c0.84,0,1.26,0.42,1.26,1.26C444.22,467.39,443.8,467.83,442.96,467.83 M446.59,467.83
				c-0.86,0-1.29-0.44-1.29-1.32c0-0.84,0.43-1.26,1.29-1.26c0.82,0,1.23,0.42,1.23,1.26C447.82,467.39,447.41,467.83,446.59,467.83
				"/>
			<path style="clip-path:url(#SVGID_00000004539488924753364500000012537443572047722122_);fill:#010101;" d="M469.81,480.54h1.1
				v1.96h-1.36c-1.89,0-3.31-0.64-4.26-1.92c-0.99,1.28-2.42,1.92-4.29,1.92h-1.36v-1.96h1.1c2.31,0,3.47-1.2,3.47-3.6v-6.84
				l2.11-1.1v7.95C466.34,479.35,467.5,480.54,469.81,480.54 M464.92,464.83c-0.86,0-1.29-0.44-1.29-1.32
				c0-0.84,0.43-1.26,1.29-1.26c0.82,0,1.23,0.42,1.23,1.26C466.15,464.39,465.74,464.83,464.92,464.83"/>
			<path style="clip-path:url(#SVGID_00000004539488924753364500000012537443572047722122_);fill:#010101;" d="M470.28,482.5v-1.96
				h1.1c2.31,0,3.47-1.2,3.47-3.6v-6.85l2.11-1.1v8.01c0,1.77-0.52,3.14-1.54,4.13c-0.95,0.9-2.21,1.36-3.79,1.36H470.28z
				 M474.47,488.4c-0.86,0-1.29-0.44-1.29-1.32c0-0.84,0.43-1.26,1.29-1.26c0.82,0,1.23,0.42,1.23,1.26
				C475.71,487.96,475.29,488.4,474.47,488.4"/>
			<path style="clip-path:url(#SVGID_00000004539488924753364500000012537443572047722122_);fill:#010101;" d="M488.48,484.2v-2.02
				c0.78-0.59,1.88-1,3.31-1.23c-1.07-1.47-1.61-3.09-1.61-4.86c0-1.71,0.42-3.12,1.25-4.24c0.83-1.12,1.96-1.81,3.39-2.07
				c0.31-0.06,0.63-0.1,0.95-0.1c1.83,0,3.34,0.75,4.51,2.24v2.11c-1.3-1.62-2.78-2.43-4.42-2.43c-0.25,0-0.49,0.02-0.73,0.06
				c-1.89,0.38-2.84,1.81-2.84,4.29c0,1.93,0.66,3.49,1.99,4.67c0.27-0.02,0.65-0.03,1.13-0.03c2.76-0.04,4.94-0.64,6.56-1.8v1.96
				c-1.77,1.16-4.07,1.74-6.91,1.74C492.3,482.5,490.1,483.07,488.48,484.2"/>
			<path style="clip-path:url(#SVGID_00000004539488924753364500000012537443572047722122_);fill:#010101;" d="M511.73,482.5
				c-1.79,0-3.16-0.58-4.13-1.73c-0.8-0.99-1.2-2.24-1.2-3.75v-13.75l2.11-1.1v14.8c0,2.4,1.16,3.6,3.47,3.6h1.1v1.96H511.73z"/>
			<path style="clip-path:url(#SVGID_00000004539488924753364500000012537443572047722122_);fill:#010101;" d="M522.61,480.54h1.1
				v1.96h-1.36c-1.89,0-3.31-0.64-4.26-1.92c-0.99,1.28-2.42,1.92-4.29,1.92h-1.36v-1.96h1.1c2.31,0,3.47-1.2,3.47-3.6v-6.85
				l2.11-1.1v7.95C519.14,479.34,520.3,480.54,522.61,480.54 M515.77,464.93c-0.86,0-1.29-0.43-1.29-1.29
				c0-0.86,0.43-1.29,1.29-1.29c0.82,0,1.23,0.43,1.23,1.29C517,464.5,516.59,464.93,515.77,464.93 M517.53,461.65
				c-0.82,0-1.23-0.42-1.23-1.26c0-0.82,0.41-1.23,1.23-1.23c0.8,0,1.2,0.41,1.2,1.23C518.73,461.23,518.33,461.65,517.53,461.65
				 M518.07,463.64c0-0.86,0.43-1.29,1.29-1.29c0.82,0,1.23,0.43,1.23,1.29c0,0.86-0.41,1.29-1.23,1.29
				C518.5,464.93,518.07,464.5,518.07,463.64"/>
			<path style="clip-path:url(#SVGID_00000004539488924753364500000012537443572047722122_);fill:#010101;" d="M533.24,480.54h1.1
				v1.96h-1.36c-1.89,0-3.31-0.64-4.26-1.92c-0.99,1.28-2.42,1.92-4.29,1.92h-1.36v-1.96h1.1c2.31,0,3.47-1.2,3.47-3.6v-6.84
				l2.11-1.1v7.95C529.77,479.35,530.93,480.54,533.24,480.54 M526.08,485.81c0.84,0,1.26,0.43,1.26,1.29
				c0,0.86-0.42,1.29-1.26,1.29c-0.84,0-1.26-0.43-1.26-1.29C524.82,486.24,525.24,485.81,526.08,485.81 M529.68,485.81
				c0.84,0,1.26,0.43,1.26,1.29c0,0.86-0.42,1.29-1.26,1.29s-1.26-0.43-1.26-1.29C528.42,486.24,528.84,485.81,529.68,485.81"/>
			<path style="clip-path:url(#SVGID_00000004539488924753364500000012537443572047722122_);fill:#010101;" d="M538.29,474.05
				c0-1.79,0.54-3.18,1.61-4.16c0.92-0.84,2.14-1.26,3.66-1.26c1.96,0,3.46,0.71,4.51,2.14c0.9,1.22,1.35,2.82,1.35,4.79
				c0,2.25-0.58,4.01-1.74,5.27c-1.01,1.12-2.32,1.67-3.94,1.67c-1.98,0-3.45-0.63-4.42-1.89c-0.95,1.26-2.37,1.89-4.26,1.89h-1.36
				v-1.96h1.1c2.31,0,3.47-1.2,3.47-3.6V474.05z M540.4,477.07c0,2.31,1.13,3.47,3.41,3.47c1.09,0,1.96-0.44,2.59-1.33
				c0.63-0.88,0.95-2.11,0.95-3.69c0-1.56-0.33-2.78-0.99-3.66c-0.67-0.88-1.59-1.33-2.79-1.33c-2.1,0-3.15,1.23-3.15,3.69V477.07z"
				/>
			<path style="clip-path:url(#SVGID_00000004539488924753364500000012537443572047722122_);fill:#010101;" d="M574.94,480.54h1.07
				v1.96h-1.35c-2.25,0-3.82-0.88-4.7-2.65c-1.09,1.13-2.44,1.71-4.04,1.71c-1.81,0-3.24-0.68-4.29-2.05
				c-0.88-1.16-1.32-2.6-1.32-4.32c0-2.02,0.59-3.64,1.77-4.86c1.03-1.07,2.3-1.61,3.82-1.61c1.37,0,2.51,0.4,3.44,1.2v-1.7
				l2.11-1.1v9.84C571.44,479.35,572.61,480.54,574.94,480.54 M569.33,472.31c-0.93-1.12-2.05-1.67-3.37-1.67
				c-1.05,0-1.91,0.43-2.57,1.28c-0.66,0.85-0.99,1.95-0.99,3.3c0,1.37,0.33,2.46,0.99,3.28c0.66,0.82,1.53,1.23,2.6,1.23
				c1.37,0,2.5-0.6,3.41-1.8c-0.04-0.38-0.06-0.68-0.06-0.91V472.31z M565.23,464.68c-0.86,0-1.29-0.44-1.29-1.32
				c0-0.84,0.43-1.26,1.29-1.26c0.82,0,1.23,0.42,1.23,1.26C566.46,464.24,566.05,464.68,565.23,464.68 M568.82,464.68
				c-0.86,0-1.29-0.44-1.29-1.32c0-0.84,0.43-1.26,1.29-1.26c0.82,0,1.23,0.42,1.23,1.26C570.06,464.24,569.64,464.68,568.82,464.68
				"/>
			<path style="clip-path:url(#SVGID_00000004539488924753364500000012537443572047722122_);fill:#010101;" d="M575.38,482.5v-1.96
				h1.92c2.33,0,3.5-1.2,3.5-3.6v-4.54l2.11-1.1v5.65c0,2.4,1.15,3.6,3.47,3.6h1.17c2.31,0,3.47-1.2,3.47-3.6v-5.68l2.11-1.14v6.81
				c0,2.4,1.17,3.6,3.5,3.6h1.13c2.34,0,3.5-1.2,3.5-3.6v-6.85l2.11-1.1v7.82c0,2.48,1.2,3.72,3.6,3.72h1.83v1.96h-2.05
				c-2,0-3.46-0.71-4.39-2.11c-0.93,1.41-2.35,2.11-4.29,2.11h-1.74c-1.96,0-3.38-0.69-4.26-2.08c-0.9,1.39-2.31,2.08-4.23,2.08
				h-1.74c-1.96,0-3.39-0.69-4.29-2.08c-0.88,1.39-2.3,2.08-4.26,2.08H575.38z"/>
			<path style="clip-path:url(#SVGID_00000004539488924753364500000012537443572047722122_);fill:#010101;" d="M608.19,482.5v-1.96
				h1.92c2.34,0,3.5-1.2,3.5-3.6v-4.54l2.11-1.1v5.65c0,2.4,1.15,3.6,3.47,3.6h1.17c2.31,0,3.47-1.2,3.47-3.6v-5.68l2.11-1.14v6.81
				c0,2.4,1.16,3.6,3.5,3.6h1.13c2.34,0,3.5-1.2,3.5-3.6v-6.85l2.11-1.1v8.01c0,1.75-0.51,3.11-1.54,4.1
				c-0.93,0.9-2.18,1.37-3.75,1.39h-1.74c-1.96,0-3.38-0.69-4.26-2.08c-0.9,1.39-2.31,2.08-4.23,2.08h-1.73
				c-1.96,0-3.39-0.69-4.29-2.08c-0.88,1.39-2.3,2.08-4.26,2.08H608.19z"/>
			<path style="clip-path:url(#SVGID_00000004539488924753364500000012537443572047722122_);fill:#010101;" d="M655.73,480.54v1.96
				h-3.34c-0.02,1.39-0.47,2.61-1.34,3.68c-0.87,1.06-2,1.76-3.39,2.1c-0.5,0.15-1.05,0.22-1.64,0.22c-1.22,0-2.41-0.29-3.56-0.88
				v-1.86c1.09,0.59,2.17,0.88,3.25,0.88c0.86,0,1.62-0.19,2.27-0.57c0.65-0.34,1.2-0.85,1.64-1.53c0.44-0.68,0.66-1.36,0.66-2.04
				l-2.68-0.09c-2.33-0.1-4.08-0.84-5.24-2.21c-0.95-1.16-1.42-2.7-1.42-4.64c0-2.27,0.59-4.03,1.77-5.27
				c1.05-1.11,2.46-1.67,4.23-1.67c1.83,0,3.23,0.55,4.19,1.64c0.84,0.95,1.26,2.21,1.26,3.79v6.5H655.73z M650.27,474.27
				c0-2.48-1.11-3.72-3.34-3.72c-1.24,0-2.2,0.44-2.89,1.31c-0.68,0.87-1.03,2.1-1.03,3.67c0,3.13,1.55,4.77,4.64,4.92
				c0.93,0.06,1.8,0.09,2.62,0.09V474.27z M648.85,463.67l-0.6,1.13h-4.89l0.6-1.13h0.82c-0.21-0.38-0.31-0.76-0.31-1.14
				c0-0.59,0.22-1.1,0.66-1.53c0.44-0.43,0.97-0.65,1.58-0.65c0.47,0,0.91,0.14,1.36,0.41v1.2c-0.42-0.32-0.83-0.47-1.23-0.47
				c-0.34,0-0.62,0.11-0.85,0.33c-0.23,0.22-0.35,0.48-0.35,0.77c0,0.36,0.15,0.72,0.44,1.07H648.85z"/>
			<path style="clip-path:url(#SVGID_00000004539488924753364500000012537443572047722122_);fill:#010101;" d="M659.67,474.05
				c0-1.79,0.54-3.18,1.61-4.16c0.93-0.84,2.14-1.26,3.66-1.26c1.96,0,3.46,0.71,4.51,2.14c0.9,1.22,1.36,2.82,1.36,4.79
				c0,2.25-0.58,4.01-1.74,5.27c-1.01,1.12-2.32,1.67-3.94,1.67c-1.98,0-3.45-0.63-4.42-1.89c-0.95,1.26-2.36,1.89-4.26,1.89h-1.36
				v-1.96h1.1c2.31,0,3.47-1.2,3.47-3.6V474.05z M661.79,477.07c0,2.31,1.14,3.47,3.41,3.47c1.09,0,1.96-0.44,2.59-1.33
				c0.63-0.88,0.95-2.11,0.95-3.69c0-1.56-0.33-2.78-0.99-3.66c-0.66-0.88-1.59-1.33-2.79-1.33c-2.1,0-3.16,1.23-3.16,3.69V477.07z"
				/>
			<path style="clip-path:url(#SVGID_00000004539488924753364500000012537443572047722122_);fill:#010101;" d="M249.6,521.26v-16.39
				h3.27l3.88,11.6c0.36,1.08,0.62,1.89,0.78,2.43c0.19-0.6,0.48-1.47,0.87-2.63l3.92-11.4h2.92v16.39h-2.09v-13.72l-4.76,13.72
				h-1.95l-4.74-13.95v13.95H249.6z"/>
			<path style="clip-path:url(#SVGID_00000004539488924753364500000012537443572047722122_);fill:#010101;" d="M276.23,519.79
				c-0.75,0.63-1.46,1.08-2.15,1.34c-0.69,0.26-1.43,0.39-2.22,0.39c-1.3,0-2.31-0.32-3.01-0.96c-0.7-0.64-1.05-1.45-1.05-2.44
				c0-0.58,0.13-1.11,0.4-1.59c0.26-0.48,0.61-0.87,1.04-1.16c0.43-0.29,0.91-0.51,1.45-0.66c0.39-0.1,0.99-0.21,1.79-0.3
				c1.62-0.19,2.82-0.43,3.59-0.69c0.01-0.28,0.01-0.45,0.01-0.52c0-0.82-0.19-1.4-0.57-1.73c-0.52-0.46-1.28-0.68-2.29-0.68
				c-0.95,0-1.64,0.17-2.1,0.5c-0.45,0.33-0.78,0.92-1,1.76l-1.97-0.27c0.18-0.84,0.47-1.52,0.88-2.04s1-0.92,1.78-1.2
				c0.77-0.28,1.67-0.42,2.69-0.42c1.01,0,1.84,0.12,2.47,0.36c0.63,0.24,1.1,0.54,1.39,0.9c0.3,0.36,0.51,0.82,0.63,1.37
				c0.07,0.34,0.1,0.96,0.1,1.86v2.68c0,1.87,0.04,3.05,0.13,3.55c0.09,0.5,0.26,0.97,0.51,1.42h-2.1
				C276.42,520.84,276.29,520.35,276.23,519.79 M276.06,515.3c-0.73,0.3-1.83,0.55-3.29,0.76c-0.83,0.12-1.41,0.25-1.76,0.4
				c-0.34,0.15-0.61,0.37-0.79,0.65c-0.19,0.29-0.28,0.61-0.28,0.96c0,0.54,0.2,0.99,0.61,1.34c0.41,0.36,1,0.54,1.78,0.54
				c0.78,0,1.46-0.17,2.07-0.51c0.6-0.34,1.05-0.8,1.33-1.39c0.22-0.46,0.32-1.13,0.32-2.01V515.3z"/>
			<path style="clip-path:url(#SVGID_00000004539488924753364500000012537443572047722122_);fill:#010101;" d="M281.23,504.87h2.01
				v2.31h-2.01V504.87z M281.23,509.39h2.01v11.87h-2.01V509.39z"/>
			<path style="clip-path:url(#SVGID_00000004539488924753364500000012537443572047722122_);fill:#010101;" d="M290.69,519.46
				l0.29,1.78c-0.57,0.12-1.07,0.18-1.52,0.18c-0.73,0-1.3-0.11-1.7-0.35c-0.4-0.23-0.68-0.53-0.85-0.91
				c-0.16-0.37-0.25-1.17-0.25-2.37v-6.83h-1.48v-1.57h1.48v-2.94l2-1.21v4.15h2.02v1.57h-2.02v6.94c0,0.57,0.03,0.94,0.1,1.11
				c0.07,0.17,0.19,0.29,0.35,0.39c0.16,0.1,0.39,0.15,0.69,0.15C290.03,519.54,290.33,519.51,290.69,519.46"/>
			<path style="clip-path:url(#SVGID_00000004539488924753364500000012537443572047722122_);fill:#010101;" d="M292.66,521.26
				v-16.39h2.01v5.88c0.94-1.09,2.12-1.63,3.56-1.63c0.88,0,1.64,0.17,2.29,0.52c0.65,0.34,1.11,0.82,1.39,1.44
				c0.28,0.61,0.42,1.5,0.42,2.66v7.52h-2.01v-7.52c0-1.01-0.22-1.74-0.65-2.2c-0.44-0.46-1.05-0.69-1.85-0.69
				c-0.6,0-1.16,0.16-1.68,0.47c-0.53,0.31-0.9,0.73-1.12,1.26c-0.22,0.53-0.34,1.26-0.34,2.19v6.49H292.66z"/>
			<path style="clip-path:url(#SVGID_00000004539488924753364500000012537443572047722122_);fill:#010101;" d="M313.14,519.79
				c-0.75,0.63-1.46,1.08-2.15,1.34c-0.69,0.26-1.43,0.39-2.22,0.39c-1.3,0-2.31-0.32-3.01-0.96c-0.7-0.64-1.05-1.45-1.05-2.44
				c0-0.58,0.13-1.11,0.4-1.59c0.26-0.48,0.61-0.87,1.04-1.16c0.43-0.29,0.91-0.51,1.45-0.66c0.39-0.1,0.99-0.21,1.79-0.3
				c1.62-0.19,2.82-0.43,3.59-0.69c0.01-0.28,0.01-0.45,0.01-0.52c0-0.82-0.19-1.4-0.57-1.73c-0.52-0.46-1.28-0.68-2.29-0.68
				c-0.95,0-1.64,0.17-2.09,0.5c-0.45,0.33-0.79,0.92-1,1.76l-1.97-0.27c0.18-0.84,0.47-1.52,0.88-2.04c0.41-0.52,1-0.92,1.78-1.2
				c0.77-0.28,1.67-0.42,2.69-0.42c1.01,0,1.84,0.12,2.47,0.36c0.63,0.24,1.1,0.54,1.39,0.9c0.3,0.36,0.51,0.82,0.63,1.37
				c0.07,0.34,0.1,0.96,0.1,1.86v2.68c0,1.87,0.04,3.05,0.13,3.55c0.09,0.5,0.26,0.97,0.51,1.42h-2.1
				C313.34,520.84,313.2,520.35,313.14,519.79 M312.97,515.3c-0.73,0.3-1.83,0.55-3.29,0.76c-0.83,0.12-1.41,0.25-1.76,0.4
				c-0.34,0.15-0.61,0.37-0.79,0.65c-0.19,0.29-0.28,0.61-0.28,0.96c0,0.54,0.2,0.99,0.61,1.34c0.41,0.36,1,0.54,1.78,0.54
				c0.78,0,1.46-0.17,2.07-0.51c0.6-0.34,1.05-0.8,1.33-1.39c0.22-0.46,0.32-1.13,0.32-2.01V515.3z"/>
			<path style="clip-path:url(#SVGID_00000004539488924753364500000012537443572047722122_);fill:#010101;" d="M324.66,521.26
				v-16.39h6.15c1.25,0,2.26,0.17,3.01,0.5c0.76,0.33,1.35,0.84,1.78,1.53c0.43,0.69,0.64,1.41,0.64,2.16c0,0.7-0.19,1.36-0.57,1.98
				c-0.38,0.62-0.95,1.12-1.72,1.5c0.99,0.29,1.75,0.79,2.29,1.49c0.53,0.7,0.8,1.53,0.8,2.48c0,0.77-0.16,1.48-0.49,2.14
				c-0.32,0.66-0.72,1.17-1.2,1.53c-0.48,0.36-1.07,0.63-1.8,0.81c-0.72,0.18-1.6,0.27-2.64,0.27H324.66z M326.82,511.76h3.55
				c0.96,0,1.65-0.06,2.07-0.19c0.55-0.16,0.97-0.44,1.25-0.81c0.28-0.38,0.42-0.86,0.42-1.43c0-0.54-0.13-1.02-0.39-1.44
				c-0.26-0.41-0.63-0.7-1.12-0.85c-0.48-0.15-1.32-0.23-2.49-0.23h-3.28V511.76z M326.82,519.33h4.08c0.7,0,1.19-0.03,1.48-0.08
				c0.5-0.09,0.92-0.24,1.25-0.45c0.33-0.21,0.61-0.51,0.83-0.91c0.22-0.4,0.32-0.86,0.32-1.38c0-0.61-0.16-1.14-0.47-1.59
				c-0.31-0.45-0.75-0.77-1.3-0.95c-0.56-0.18-1.36-0.27-2.4-0.27h-3.79V519.33z"/>
			<path style="clip-path:url(#SVGID_00000004539488924753364500000012537443572047722122_);fill:#010101;" d="M339.77,504.87h2.01
				v2.31h-2.01V504.87z M339.77,509.39h2.01v11.87h-2.01V509.39z"/>
			<path style="clip-path:url(#SVGID_00000004539488924753364500000012537443572047722122_);fill:#010101;" d="M344.85,521.26
				v-11.87h1.81v1.69c0.87-1.3,2.13-1.96,3.78-1.96c0.72,0,1.37,0.13,1.97,0.38c0.6,0.26,1.05,0.59,1.35,1.01
				c0.3,0.42,0.51,0.91,0.63,1.49c0.08,0.37,0.11,1.03,0.11,1.96v7.3h-2.01v-7.22c0-0.82-0.08-1.43-0.23-1.84
				c-0.16-0.41-0.44-0.73-0.83-0.97c-0.4-0.24-0.87-0.36-1.4-0.36c-0.86,0-1.6,0.27-2.22,0.82c-0.62,0.54-0.93,1.58-0.93,3.1v6.48
				H344.85z"/>
			<path style="clip-path:url(#SVGID_00000004539488924753364500000012537443572047722122_);fill:#010101;" d="M361.97,519.46
				l0.29,1.78c-0.57,0.12-1.07,0.18-1.52,0.18c-0.73,0-1.3-0.11-1.7-0.35c-0.4-0.23-0.69-0.53-0.85-0.91
				c-0.16-0.37-0.25-1.17-0.25-2.37v-6.83h-1.48v-1.57h1.48v-2.94l2-1.21v4.15h2.02v1.57h-2.02v6.94c0,0.57,0.03,0.94,0.1,1.11
				c0.07,0.17,0.19,0.29,0.35,0.39c0.16,0.1,0.39,0.15,0.69,0.15C361.31,519.54,361.6,519.51,361.97,519.46"/>
			<path style="clip-path:url(#SVGID_00000004539488924753364500000012537443572047722122_);fill:#010101;" d="M367.49,521.26
				l6.29-16.39h2.34l6.71,16.39h-2.47l-1.91-4.96h-6.85l-1.8,4.96H367.49z M372.22,514.53h5.56l-1.71-4.54
				c-0.52-1.38-0.91-2.51-1.16-3.4c-0.21,1.05-0.5,2.09-0.88,3.13L372.22,514.53z"/>
			<path style="clip-path:url(#SVGID_00000004539488924753364500000012537443572047722122_);fill:#010101;" d="M384.31,521.26
				v-16.39h2.01v5.88c0.94-1.09,2.12-1.63,3.55-1.63c0.88,0,1.64,0.17,2.29,0.52c0.65,0.34,1.11,0.82,1.39,1.44
				c0.28,0.61,0.42,1.5,0.42,2.66v7.52h-2.01v-7.52c0-1.01-0.22-1.74-0.66-2.2c-0.44-0.46-1.05-0.69-1.85-0.69
				c-0.6,0-1.16,0.16-1.68,0.47c-0.53,0.31-0.9,0.73-1.12,1.26c-0.22,0.53-0.33,1.26-0.33,2.19v6.49H384.31z"/>
			<path style="clip-path:url(#SVGID_00000004539488924753364500000012537443572047722122_);fill:#010101;" d="M397.04,521.26
				v-11.87h1.8v1.66c0.37-0.58,0.87-1.05,1.49-1.4c0.62-0.35,1.32-0.53,2.11-0.53c0.88,0,1.6,0.18,2.16,0.55
				c0.56,0.36,0.96,0.87,1.19,1.53c0.94-1.38,2.16-2.08,3.67-2.08c1.18,0,2.08,0.33,2.71,0.98c0.63,0.65,0.95,1.66,0.95,3.01v8.15
				h-2v-7.48c0-0.81-0.07-1.38-0.2-1.74c-0.13-0.35-0.37-0.64-0.71-0.85c-0.34-0.22-0.75-0.32-1.21-0.32
				c-0.83,0-1.53,0.28-2.08,0.83c-0.55,0.56-0.82,1.45-0.82,2.67v6.9h-2.01v-7.71c0-0.89-0.16-1.56-0.49-2.01s-0.86-0.67-1.61-0.67
				c-0.57,0-1.09,0.15-1.57,0.45c-0.48,0.3-0.83,0.73-1.04,1.31c-0.22,0.57-0.32,1.4-0.32,2.48v6.16H397.04z"/>
			<path style="clip-path:url(#SVGID_00000004539488924753364500000012537443572047722122_);fill:#010101;" d="M424.24,517.44
				l2.08,0.26c-0.33,1.22-0.94,2.16-1.82,2.83c-0.88,0.67-2.02,1.01-3.4,1.01c-1.74,0-3.11-0.54-4.13-1.6
				c-1.02-1.07-1.53-2.57-1.53-4.5c0-2,0.51-3.55,1.54-4.65c1.03-1.1,2.36-1.66,4-1.66c1.59,0,2.88,0.54,3.89,1.62
				c1.01,1.08,1.51,2.6,1.51,4.56c0,0.12,0,0.3-0.01,0.54h-8.85c0.07,1.3,0.44,2.3,1.11,2.99c0.66,0.69,1.49,1.04,2.48,1.04
				c0.74,0,1.37-0.19,1.89-0.58C423.52,518.9,423.93,518.29,424.24,517.44 M417.63,514.18h6.63c-0.09-1-0.34-1.75-0.76-2.25
				c-0.64-0.77-1.47-1.16-2.5-1.16c-0.92,0-1.7,0.31-2.33,0.93C418.05,512.32,417.7,513.15,417.63,514.18"/>
			<path style="clip-path:url(#SVGID_00000004539488924753364500000012537443572047722122_);fill:#010101;" d="M436.54,521.26v-1.5
				c-0.75,1.18-1.86,1.77-3.32,1.77c-0.95,0-1.82-0.26-2.61-0.78c-0.79-0.52-1.41-1.25-1.84-2.19c-0.43-0.94-0.65-2.01-0.65-3.22
				c0-1.19,0.2-2.26,0.59-3.22c0.4-0.97,0.99-1.71,1.78-2.22c0.79-0.52,1.67-0.77,2.65-0.77c0.72,0,1.35,0.15,1.91,0.45
				c0.56,0.3,1.01,0.7,1.36,1.18v-5.88h2v16.39H436.54z M430.18,515.33c0,1.52,0.32,2.66,0.96,3.41c0.64,0.75,1.4,1.13,2.27,1.13
				c0.88,0,1.63-0.36,2.24-1.08c0.61-0.72,0.92-1.82,0.92-3.29c0-1.62-0.31-2.82-0.94-3.58c-0.63-0.76-1.4-1.14-2.31-1.14
				c-0.89,0-1.64,0.36-2.24,1.09C430.48,512.61,430.18,513.76,430.18,515.33"/>
			<path style="clip-path:url(#SVGID_00000004539488924753364500000012537443572047722122_);fill:#010101;" d="M445.13,521.26
				l6.29-16.39h2.34l6.71,16.39H458l-1.91-4.96h-6.85l-1.8,4.96H445.13z M449.86,514.53h5.56l-1.71-4.54
				c-0.52-1.38-0.91-2.51-1.16-3.4c-0.21,1.05-0.5,2.09-0.88,3.13L449.86,514.53z"/>
			
				<rect x="461.9" y="504.87" style="clip-path:url(#SVGID_00000004539488924753364500000012537443572047722122_);fill:#010101;" width="2.01" height="16.39"/>
			<polygon style="clip-path:url(#SVGID_00000004539488924753364500000012537443572047722122_);fill:#010101;" points="
				473.62,521.26 473.62,504.87 475.85,504.87 484.46,517.74 484.46,504.87 486.54,504.87 486.54,521.26 484.31,521.26 
				475.7,508.38 475.7,521.26 			"/>
			<path style="clip-path:url(#SVGID_00000004539488924753364500000012537443572047722122_);fill:#010101;" d="M497.67,519.79
				c-0.75,0.63-1.46,1.08-2.15,1.34c-0.69,0.26-1.43,0.39-2.22,0.39c-1.3,0-2.31-0.32-3.01-0.96c-0.7-0.64-1.05-1.45-1.05-2.44
				c0-0.58,0.13-1.11,0.4-1.59c0.26-0.48,0.61-0.87,1.04-1.16c0.43-0.29,0.91-0.51,1.45-0.66c0.39-0.1,0.99-0.21,1.79-0.3
				c1.62-0.19,2.82-0.43,3.59-0.69c0.01-0.28,0.01-0.45,0.01-0.52c0-0.82-0.19-1.4-0.57-1.73c-0.52-0.46-1.28-0.68-2.29-0.68
				c-0.95,0-1.64,0.17-2.1,0.5c-0.45,0.33-0.78,0.92-1,1.76l-1.97-0.27c0.18-0.84,0.47-1.52,0.88-2.04c0.41-0.52,1-0.92,1.78-1.2
				c0.77-0.28,1.67-0.42,2.69-0.42c1.01,0,1.84,0.12,2.47,0.36c0.63,0.24,1.1,0.54,1.39,0.9c0.3,0.36,0.51,0.82,0.63,1.37
				c0.07,0.34,0.1,0.96,0.1,1.86v2.68c0,1.87,0.04,3.05,0.13,3.55c0.09,0.5,0.26,0.97,0.51,1.42h-2.1
				C497.87,520.84,497.73,520.35,497.67,519.79 M497.5,515.3c-0.73,0.3-1.83,0.55-3.29,0.76c-0.83,0.12-1.41,0.25-1.76,0.4
				c-0.34,0.15-0.61,0.37-0.79,0.65c-0.19,0.29-0.28,0.61-0.28,0.96c0,0.54,0.2,0.99,0.61,1.34c0.41,0.36,1,0.54,1.78,0.54
				c0.78,0,1.46-0.17,2.07-0.51c0.6-0.34,1.05-0.8,1.33-1.39c0.22-0.46,0.32-1.13,0.32-2.01V515.3z"/>
			<path style="clip-path:url(#SVGID_00000004539488924753364500000012537443572047722122_);fill:#010101;" d="M502.66,521.26
				v-16.39h2.01v5.88c0.94-1.09,2.12-1.63,3.56-1.63c0.88,0,1.64,0.17,2.29,0.52c0.65,0.34,1.11,0.82,1.39,1.44
				c0.28,0.61,0.42,1.5,0.42,2.66v7.52h-2.01v-7.52c0-1.01-0.22-1.74-0.65-2.2c-0.44-0.46-1.05-0.69-1.85-0.69
				c-0.6,0-1.16,0.16-1.68,0.47c-0.53,0.31-0.9,0.73-1.12,1.26c-0.22,0.53-0.34,1.26-0.34,2.19v6.49H502.66z"/>
			<path style="clip-path:url(#SVGID_00000004539488924753364500000012537443572047722122_);fill:#010101;" d="M515.3,525.83
				l-0.22-1.89c0.44,0.12,0.82,0.18,1.15,0.18c0.45,0,0.8-0.07,1.07-0.22c0.27-0.15,0.49-0.36,0.66-0.63c0.13-0.2,0.33-0.7,0.62-1.5
				c0.04-0.11,0.1-0.28,0.18-0.49l-4.5-11.9h2.17l2.47,6.87c0.32,0.87,0.61,1.79,0.86,2.75c0.23-0.92,0.51-1.83,0.83-2.71l2.54-6.92
				h2.01l-4.51,12.07c-0.49,1.3-0.86,2.2-1.13,2.69c-0.36,0.66-0.77,1.15-1.23,1.46c-0.46,0.31-1.01,0.46-1.65,0.46
				C516.21,526.08,515.78,526,515.3,525.83"/>
			<path style="clip-path:url(#SVGID_00000004539488924753364500000012537443572047722122_);fill:#010101;" d="M534.58,519.79
				c-0.75,0.63-1.46,1.08-2.15,1.34c-0.69,0.26-1.43,0.39-2.22,0.39c-1.3,0-2.31-0.32-3.01-0.96c-0.7-0.64-1.05-1.45-1.05-2.44
				c0-0.58,0.13-1.11,0.4-1.59c0.26-0.48,0.61-0.87,1.04-1.16c0.43-0.29,0.91-0.51,1.45-0.66c0.39-0.1,0.99-0.21,1.79-0.3
				c1.62-0.19,2.82-0.43,3.59-0.69c0.01-0.28,0.01-0.45,0.01-0.52c0-0.82-0.19-1.4-0.57-1.73c-0.52-0.46-1.28-0.68-2.29-0.68
				c-0.95,0-1.64,0.17-2.09,0.5s-0.79,0.92-1,1.76l-1.97-0.27c0.18-0.84,0.47-1.52,0.88-2.04c0.41-0.52,1-0.92,1.78-1.2
				c0.77-0.28,1.67-0.42,2.69-0.42c1.01,0,1.84,0.12,2.47,0.36c0.63,0.24,1.1,0.54,1.39,0.9c0.3,0.36,0.51,0.82,0.63,1.37
				c0.07,0.34,0.1,0.96,0.1,1.86v2.68c0,1.87,0.04,3.05,0.13,3.55c0.09,0.5,0.26,0.97,0.51,1.42h-2.1
				C534.78,520.84,534.64,520.35,534.58,519.79 M534.42,515.3c-0.73,0.3-1.83,0.55-3.29,0.76c-0.83,0.12-1.41,0.25-1.76,0.4
				c-0.34,0.15-0.61,0.37-0.79,0.65c-0.19,0.29-0.28,0.61-0.28,0.96c0,0.54,0.2,0.99,0.61,1.34c0.41,0.36,1,0.54,1.78,0.54
				c0.78,0,1.46-0.17,2.07-0.51c0.6-0.34,1.05-0.8,1.33-1.39c0.22-0.46,0.32-1.13,0.32-2.01V515.3z"/>
			<path style="clip-path:url(#SVGID_00000004539488924753364500000012537443572047722122_);fill:#010101;" d="M539.57,521.26
				v-11.87h1.81v1.69c0.87-1.3,2.13-1.96,3.78-1.96c0.71,0,1.37,0.13,1.97,0.38c0.6,0.26,1.05,0.59,1.35,1.01
				c0.3,0.42,0.51,0.91,0.62,1.49c0.08,0.37,0.11,1.03,0.11,1.96v7.3h-2.01v-7.22c0-0.82-0.08-1.43-0.23-1.84
				c-0.16-0.41-0.44-0.73-0.83-0.97c-0.4-0.24-0.87-0.36-1.4-0.36c-0.86,0-1.6,0.27-2.22,0.82c-0.62,0.54-0.93,1.58-0.93,3.1v6.48
				H539.57z"/>
			<polygon style="clip-path:url(#SVGID_00000004539488924753364500000012537443572047722122_);fill:#010101;" points="
				559.03,521.26 559.03,504.87 570.09,504.87 570.09,506.81 561.2,506.81 561.2,511.88 568.89,511.88 568.89,513.81 561.2,513.81 
				561.2,521.26 			"/>
			<path style="clip-path:url(#SVGID_00000004539488924753364500000012537443572047722122_);fill:#010101;" d="M571.9,515.32
				c0-2.2,0.61-3.83,1.83-4.88c1.02-0.88,2.27-1.32,3.73-1.32c1.63,0,2.97,0.53,4,1.6c1.04,1.07,1.55,2.55,1.55,4.43
				c0,1.53-0.23,2.73-0.69,3.61c-0.46,0.88-1.12,1.56-2,2.04c-0.88,0.48-1.83,0.73-2.87,0.73c-1.66,0-3.01-0.53-4.03-1.6
				C572.41,518.86,571.9,517.33,571.9,515.32 M573.97,515.32c0,1.52,0.33,2.66,0.99,3.42c0.66,0.76,1.5,1.13,2.5,1.13
				c1,0,1.83-0.38,2.5-1.14c0.66-0.76,0.99-1.92,0.99-3.48c0-1.47-0.33-2.58-1-3.34c-0.67-0.76-1.5-1.13-2.49-1.13
				c-1.01,0-1.84,0.38-2.5,1.13C574.3,512.67,573.97,513.8,573.97,515.32"/>
			<path style="clip-path:url(#SVGID_00000004539488924753364500000012537443572047722122_);fill:#010101;" d="M593.16,521.26v-1.74
				c-0.92,1.34-2.18,2.01-3.77,2.01c-0.7,0-1.35-0.14-1.96-0.4c-0.61-0.27-1.06-0.61-1.35-1.01c-0.29-0.41-0.5-0.9-0.62-1.49
				c-0.08-0.4-0.12-1.02-0.12-1.88v-7.35h2.01v6.58c0,1.05,0.04,1.76,0.12,2.13c0.13,0.53,0.4,0.94,0.8,1.25
				c0.41,0.3,0.92,0.45,1.52,0.45c0.6,0,1.17-0.15,1.7-0.46c0.53-0.31,0.9-0.73,1.12-1.26c0.22-0.53,0.33-1.31,0.33-2.32v-6.36h2.01
				v11.87H593.16z"/>
			<path style="clip-path:url(#SVGID_00000004539488924753364500000012537443572047722122_);fill:#010101;" d="M598.11,521.26
				v-11.87h1.81v1.69c0.87-1.3,2.13-1.96,3.78-1.96c0.72,0,1.37,0.13,1.97,0.38c0.6,0.26,1.05,0.59,1.35,1.01
				c0.3,0.42,0.51,0.91,0.63,1.49c0.08,0.37,0.11,1.03,0.11,1.96v7.3h-2.01v-7.22c0-0.82-0.08-1.43-0.23-1.84
				c-0.16-0.41-0.44-0.73-0.83-0.97c-0.4-0.24-0.86-0.36-1.4-0.36c-0.86,0-1.6,0.27-2.22,0.82c-0.62,0.54-0.93,1.58-0.93,3.1v6.48
				H598.11z"/>
			<path style="clip-path:url(#SVGID_00000004539488924753364500000012537443572047722122_);fill:#010101;" d="M618.55,521.26v-1.5
				c-0.75,1.18-1.86,1.77-3.32,1.77c-0.95,0-1.82-0.26-2.61-0.78c-0.79-0.52-1.41-1.25-1.84-2.19c-0.43-0.94-0.65-2.01-0.65-3.22
				c0-1.19,0.2-2.26,0.59-3.22c0.39-0.97,0.99-1.71,1.78-2.22c0.79-0.52,1.67-0.77,2.65-0.77c0.72,0,1.35,0.15,1.91,0.45
				c0.56,0.3,1.01,0.7,1.36,1.18v-5.88h2v16.39H618.55z M612.19,515.33c0,1.52,0.32,2.66,0.96,3.41c0.64,0.75,1.4,1.13,2.27,1.13
				c0.88,0,1.63-0.36,2.24-1.08c0.61-0.72,0.92-1.82,0.92-3.29c0-1.62-0.31-2.82-0.94-3.58c-0.63-0.76-1.4-1.14-2.31-1.14
				c-0.89,0-1.64,0.36-2.24,1.09C612.49,512.61,612.19,513.76,612.19,515.33"/>
			<path style="clip-path:url(#SVGID_00000004539488924753364500000012537443572047722122_);fill:#010101;" d="M631.32,519.79
				c-0.75,0.63-1.46,1.08-2.15,1.34c-0.69,0.26-1.43,0.39-2.22,0.39c-1.3,0-2.31-0.32-3.01-0.96c-0.7-0.64-1.05-1.45-1.05-2.44
				c0-0.58,0.13-1.11,0.4-1.59c0.26-0.48,0.61-0.87,1.04-1.16c0.43-0.29,0.91-0.51,1.45-0.66c0.39-0.1,0.99-0.21,1.79-0.3
				c1.62-0.19,2.82-0.43,3.59-0.69c0.01-0.28,0.01-0.45,0.01-0.52c0-0.82-0.19-1.4-0.57-1.73c-0.52-0.46-1.28-0.68-2.29-0.68
				c-0.95,0-1.64,0.17-2.1,0.5c-0.45,0.33-0.78,0.92-1,1.76l-1.97-0.27c0.18-0.84,0.47-1.52,0.88-2.04c0.41-0.52,1-0.92,1.78-1.2
				c0.77-0.28,1.67-0.42,2.69-0.42c1.01,0,1.84,0.12,2.47,0.36c0.63,0.24,1.1,0.54,1.39,0.9c0.3,0.36,0.51,0.82,0.63,1.37
				c0.07,0.34,0.1,0.96,0.1,1.86v2.68c0,1.87,0.04,3.05,0.13,3.55c0.09,0.5,0.26,0.97,0.51,1.42h-2.1
				C631.52,520.84,631.39,520.35,631.32,519.79 M631.16,515.3c-0.73,0.3-1.83,0.55-3.29,0.76c-0.83,0.12-1.41,0.25-1.76,0.4
				c-0.34,0.15-0.61,0.37-0.79,0.65c-0.19,0.29-0.28,0.61-0.28,0.96c0,0.54,0.2,0.99,0.61,1.34c0.41,0.36,1,0.54,1.78,0.54
				c0.78,0,1.46-0.17,2.07-0.51c0.6-0.34,1.05-0.8,1.33-1.39c0.22-0.46,0.32-1.13,0.32-2.01V515.3z"/>
			<path style="clip-path:url(#SVGID_00000004539488924753364500000012537443572047722122_);fill:#010101;" d="M640.7,519.46
				l0.29,1.78c-0.57,0.12-1.08,0.18-1.52,0.18c-0.73,0-1.3-0.11-1.7-0.35c-0.4-0.23-0.69-0.53-0.85-0.91
				c-0.16-0.37-0.25-1.17-0.25-2.37v-6.83h-1.48v-1.57h1.48v-2.94l2-1.21v4.15h2.02v1.57h-2.02v6.94c0,0.57,0.03,0.94,0.1,1.11
				c0.07,0.17,0.19,0.29,0.34,0.39c0.16,0.1,0.39,0.15,0.69,0.15C640.04,519.54,640.34,519.51,640.7,519.46"/>
			<path style="clip-path:url(#SVGID_00000004539488924753364500000012537443572047722122_);fill:#010101;" d="M642.68,504.87h2.01
				v2.31h-2.01V504.87z M642.68,509.39h2.01v11.87h-2.01V509.39z"/>
			<path style="clip-path:url(#SVGID_00000004539488924753364500000012537443572047722122_);fill:#010101;" d="M647.01,515.32
				c0-2.2,0.61-3.83,1.83-4.88c1.02-0.88,2.27-1.32,3.73-1.32c1.63,0,2.97,0.53,4,1.6c1.03,1.07,1.55,2.55,1.55,4.43
				c0,1.53-0.23,2.73-0.69,3.61c-0.46,0.88-1.12,1.56-2,2.04c-0.88,0.48-1.83,0.73-2.87,0.73c-1.66,0-3.01-0.53-4.03-1.6
				C647.52,518.86,647.01,517.33,647.01,515.32 M649.08,515.32c0,1.52,0.33,2.66,0.99,3.42c0.66,0.76,1.5,1.13,2.5,1.13
				c1,0,1.83-0.38,2.5-1.14c0.66-0.76,0.99-1.92,0.99-3.48c0-1.47-0.33-2.58-1-3.34c-0.67-0.76-1.5-1.13-2.49-1.13
				c-1.01,0-1.84,0.38-2.5,1.13C649.41,512.67,649.08,513.8,649.08,515.32"/>
			<path style="clip-path:url(#SVGID_00000004539488924753364500000012537443572047722122_);fill:#010101;" d="M660.49,521.26
				v-11.87h1.81v1.69c0.87-1.3,2.13-1.96,3.78-1.96c0.72,0,1.37,0.13,1.97,0.38c0.6,0.26,1.05,0.59,1.35,1.01s0.51,0.91,0.62,1.49
				c0.08,0.37,0.11,1.03,0.11,1.96v7.3h-2.01v-7.22c0-0.82-0.08-1.43-0.23-1.84c-0.16-0.41-0.44-0.73-0.83-0.97
				c-0.4-0.24-0.87-0.36-1.4-0.36c-0.86,0-1.6,0.27-2.22,0.82c-0.62,0.54-0.93,1.58-0.93,3.1v6.48H660.49z"/>
		</g>
	</g>
</g>
</svg>
