<svg xmlns="http://www.w3.org/2000/svg" xmlns:xlink="http://www.w3.org/1999/xlink" width="1080" zoomAndPan="magnify" viewBox="0 0 810 1439.999935" height="1920" preserveAspectRatio="xMidYMid meet" version="1.0"><defs><clipPath id="7959519dd3"><path d="M 29 364.078125 L 35 364.078125 L 35 539 L 29 539 Z M 29 364.078125 " clip-rule="nonzero"/></clipPath><clipPath id="080d108c25"><path d="M 299.492188 523.410156 L 375 523.410156 L 375 627.328125 L 299.492188 627.328125 Z M 299.492188 523.410156 " clip-rule="nonzero"/></clipPath><clipPath id="2b0605c2ac"><path d="M 434 523.410156 L 509.449219 523.410156 L 509.449219 627.328125 L 434 627.328125 Z M 434 523.410156 " clip-rule="nonzero"/></clipPath><clipPath id="8fcdf6cdd6"><path d="M 568.078125 523.410156 L 643.746094 523.410156 L 643.746094 627.328125 L 568.078125 627.328125 Z M 568.078125 523.410156 " clip-rule="nonzero"/></clipPath><clipPath id="8f9cee99b5"><path d="M 702.875 523.410156 L 778.542969 523.410156 L 778.542969 627.328125 L 702.875 627.328125 Z M 702.875 523.410156 " clip-rule="nonzero"/></clipPath><clipPath id="ac71b08182"><path d="M 239 537 L 319.535156 537 L 319.535156 627.328125 L 239 627.328125 Z M 239 537 " clip-rule="nonzero"/></clipPath><clipPath id="4093fcffe3"><path d="M 374.152344 537 L 454.832031 537 L 454.832031 627.328125 L 374.152344 627.328125 Z M 374.152344 537 " clip-rule="nonzero"/></clipPath><clipPath id="80f5988782"><path d="M 508.449219 537 L 588.625 537 L 588.625 627.328125 L 508.449219 627.328125 Z M 508.449219 537 " clip-rule="nonzero"/></clipPath><clipPath id="6b2c5c6fe2"><path d="M 643.246094 537 L 723.421875 537 L 723.421875 627.328125 L 643.246094 627.328125 Z M 643.246094 537 " clip-rule="nonzero"/></clipPath><clipPath id="532d23dd23"><path d="M 53 524 L 128.617188 524 L 128.617188 627.328125 L 53 627.328125 Z M 53 524 " clip-rule="nonzero"/></clipPath><clipPath id="b1b901d73b"><path d="M 83.515625 521.40625 L 172.210938 521.40625 L 172.210938 627.328125 L 83.515625 627.328125 Z M 83.515625 521.40625 " clip-rule="nonzero"/></clipPath><clipPath id="2a59b7561c"><path d="M 75.5 596.0625 L 117 596.0625 L 117 627.328125 L 75.5 627.328125 Z M 75.5 596.0625 " clip-rule="nonzero"/></clipPath><clipPath id="a6f6722c11"><path d="M 246.375 458.777344 L 366.636719 458.777344 L 366.636719 627.328125 L 246.375 627.328125 Z M 246.375 458.777344 " clip-rule="nonzero"/></clipPath><clipPath id="456c373fdc"><path d="M 388.183594 454.269531 L 497.425781 454.269531 L 497.425781 627.328125 L 388.183594 627.328125 Z M 388.183594 454.269531 " clip-rule="nonzero"/></clipPath><clipPath id="9fb685dd43"><path d="M 518 456.773438 L 637.730469 456.773438 L 637.730469 627.328125 L 518 627.328125 Z M 518 456.773438 " clip-rule="nonzero"/></clipPath><clipPath id="f54ef9a135"><path d="M 658.277344 451 L 780.371094 451 L 780.371094 627.328125 L 658.277344 627.328125 Z M 658.277344 451 " clip-rule="nonzero"/></clipPath><clipPath id="ec2bb55a27"><path d="M 180 404.164062 L 258.902344 404.164062 L 258.902344 627.328125 L 180 627.328125 Z M 180 404.164062 " clip-rule="nonzero"/></clipPath></defs><g clip-path="url(#7959519dd3)"><path fill="#000000" d="M 34.941406 538.320312 L 29.898438 538.320312 L 29.898438 364.078125 L 34.941406 364.078125 L 34.941406 538.320312 " fill-opacity="1" fill-rule="nonzero"/></g><g clip-path="url(#080d108c25)"><path fill="#000000" d="M 374.734375 624.550781 L 374.105469 622.160156 C 373.960938 621.613281 373.566406 621.191406 373.039062 620.941406 C 370.753906 611.75 364.871094 588.101562 363.003906 580.597656 C 364.371094 580.148438 365.484375 579.457031 366.152344 578.398438 C 369.398438 573.277344 366.59375 564.484375 367.121094 557.628906 C 368.304688 542.199219 374.851562 524.257812 373.609375 523.914062 C 368.183594 522.421875 363.875 550.800781 363.46875 556.347656 C 363.0625 561.898438 362.25 574.273438 356.574219 574.699219 C 350.898438 575.128906 324.941406 573.949219 320.078125 573.847656 C 312.527344 573.691406 307.972656 579.191406 307.972656 580.898438 C 307.972656 582.511719 310.632812 580.789062 314.339844 579.152344 C 313.199219 583.027344 310.015625 593.546875 307.035156 603.375 C 305.441406 608.632812 303.90625 613.695312 302.765625 617.441406 C 302.355469 618.792969 302 619.964844 301.710938 620.921875 C 301.097656 621.136719 300.617188 621.570312 300.445312 622.167969 L 299.753906 624.542969 C 299.4375 625.636719 300.25 626.835938 301.574219 627.21875 C 302.898438 627.605469 304.230469 627.03125 304.546875 625.9375 L 305.238281 623.5625 C 305.398438 623.011719 305.269531 622.4375 304.9375 621.949219 C 306.136719 617.996094 308.515625 610.175781 310.917969 602.246094 C 312.628906 596.601562 314.351562 590.90625 315.675781 586.511719 C 316.335938 584.316406 316.898438 582.445312 317.308594 581.066406 C 317.515625 580.375 317.679688 579.8125 317.804688 579.386719 C 317.804688 579.382812 317.804688 579.378906 317.808594 579.375 C 318.84375 579.195312 320.949219 579.039062 323.582031 578.941406 C 325.75 578.863281 328.3125 578.816406 331.039062 578.804688 C 336.136719 579.226562 341.078125 579.773438 343.703125 579.957031 C 347.613281 580.230469 354.429688 581.617188 359.667969 581.210938 C 360.652344 585.167969 362.875 594.109375 365.074219 602.949219 C 366.890625 610.25 368.683594 617.46875 369.734375 621.695312 C 369.3125 622.195312 369.117188 622.820312 369.277344 623.425781 L 369.90625 625.820312 C 370.191406 626.921875 371.507812 627.53125 372.84375 627.179688 C 374.175781 626.828125 375.019531 625.652344 374.734375 624.550781 " fill-opacity="1" fill-rule="nonzero"/></g><g clip-path="url(#2b0605c2ac)"><path fill="#000000" d="M 509.28125 624.554688 L 508.652344 622.160156 C 508.507812 621.613281 508.113281 621.191406 507.585938 620.941406 C 505.300781 611.75 499.417969 588.101562 497.550781 580.597656 C 498.917969 580.148438 500.03125 579.457031 500.703125 578.398438 C 503.945312 573.277344 501.140625 564.484375 501.667969 557.628906 C 502.847656 542.199219 509.394531 524.257812 508.15625 523.914062 C 502.734375 522.421875 498.421875 550.800781 498.019531 556.347656 C 497.613281 561.898438 496.800781 574.273438 491.125 574.699219 C 485.441406 575.128906 459.488281 573.949219 454.625 573.847656 C 447.074219 573.691406 442.523438 579.191406 442.523438 580.898438 C 442.523438 582.511719 445.179688 580.789062 448.890625 579.152344 C 447.742188 583.027344 444.5625 593.546875 441.582031 603.375 C 439.988281 608.632812 438.453125 613.695312 437.3125 617.441406 C 436.902344 618.792969 436.550781 619.964844 436.257812 620.921875 C 435.648438 621.136719 435.167969 621.570312 434.992188 622.167969 L 434.300781 624.542969 C 433.984375 625.636719 434.800781 626.835938 436.121094 627.21875 C 437.445312 627.605469 438.777344 627.03125 439.097656 625.9375 L 439.785156 623.5625 C 439.945312 623.011719 439.820312 622.4375 439.484375 621.949219 C 440.683594 617.996094 443.0625 610.175781 445.464844 602.246094 C 447.175781 596.601562 448.898438 590.90625 450.222656 586.511719 C 450.886719 584.316406 451.445312 582.445312 451.855469 581.066406 C 452.0625 580.375 452.226562 579.8125 452.351562 579.386719 C 452.351562 579.382812 452.355469 579.378906 452.355469 579.375 C 453.390625 579.195312 455.496094 579.039062 458.128906 578.941406 C 460.296875 578.863281 462.863281 578.816406 465.59375 578.804688 C 470.6875 579.226562 475.625 579.773438 478.246094 579.957031 C 482.160156 580.230469 488.976562 581.617188 494.214844 581.210938 C 495.199219 585.167969 497.421875 594.109375 499.621094 602.949219 C 501.4375 610.253906 503.230469 617.46875 504.285156 621.695312 C 503.859375 622.195312 503.667969 622.820312 503.824219 623.425781 L 504.453125 625.820312 C 504.742188 626.921875 506.054688 627.53125 507.386719 627.179688 C 508.722656 626.832031 509.570312 625.652344 509.28125 624.554688 " fill-opacity="1" fill-rule="nonzero"/></g><g clip-path="url(#8fcdf6cdd6)"><path fill="#000000" d="M 643.371094 624.554688 L 642.738281 622.160156 C 642.597656 621.613281 642.203125 621.191406 641.675781 620.941406 C 639.386719 611.75 633.507812 588.101562 631.640625 580.597656 C 633.007812 580.148438 634.117188 579.457031 634.789062 578.398438 C 638.035156 573.277344 635.226562 564.484375 635.753906 557.628906 C 636.9375 542.199219 643.484375 524.257812 642.242188 523.914062 C 636.820312 522.421875 632.511719 550.800781 632.105469 556.347656 C 631.699219 561.898438 630.886719 574.273438 625.210938 574.699219 C 619.53125 575.128906 593.574219 573.949219 588.710938 573.847656 C 581.164062 573.691406 576.609375 579.191406 576.609375 580.898438 C 576.609375 582.511719 579.269531 580.789062 582.976562 579.152344 C 581.835938 583.027344 578.652344 593.546875 575.671875 603.375 C 574.078125 608.632812 572.539062 613.695312 571.402344 617.441406 C 570.992188 618.792969 570.636719 619.964844 570.34375 620.921875 C 569.734375 621.136719 569.253906 621.570312 569.082031 622.167969 L 568.390625 624.542969 C 568.070312 625.636719 568.886719 626.835938 570.210938 627.21875 C 571.53125 627.605469 572.867188 627.03125 573.1875 625.9375 L 573.871094 623.5625 C 574.03125 623.011719 573.90625 622.4375 573.570312 621.949219 C 574.773438 618 577.148438 610.175781 579.550781 602.246094 C 581.261719 596.601562 582.988281 590.90625 584.308594 586.511719 C 584.972656 584.316406 585.53125 582.445312 585.941406 581.066406 C 586.148438 580.375 586.316406 579.8125 586.441406 579.390625 C 586.441406 579.382812 586.441406 579.378906 586.445312 579.375 C 587.476562 579.195312 589.582031 579.039062 592.210938 578.941406 C 594.386719 578.863281 596.949219 578.816406 599.679688 578.804688 C 604.773438 579.226562 609.714844 579.773438 612.335938 579.957031 C 616.25 580.230469 623.066406 581.617188 628.300781 581.210938 C 629.289062 585.167969 631.507812 594.109375 633.707031 602.949219 C 635.523438 610.253906 637.316406 617.46875 638.367188 621.695312 C 637.949219 622.195312 637.75 622.820312 637.914062 623.425781 L 638.539062 625.820312 C 638.824219 626.921875 640.140625 627.53125 641.476562 627.179688 C 642.808594 626.832031 643.65625 625.652344 643.371094 624.554688 " fill-opacity="1" fill-rule="nonzero"/></g><g clip-path="url(#8f9cee99b5)"><path fill="#000000" d="M 778.035156 624.554688 L 777.402344 622.160156 C 777.257812 621.613281 776.863281 621.191406 776.339844 620.941406 C 774.050781 611.75 768.171875 588.101562 766.304688 580.597656 C 767.671875 580.148438 768.785156 579.457031 769.457031 578.398438 C 772.699219 573.277344 769.890625 564.484375 770.417969 557.628906 C 771.601562 542.199219 778.148438 524.257812 776.90625 523.914062 C 771.480469 522.421875 767.171875 550.800781 766.765625 556.347656 C 766.359375 561.898438 765.550781 574.273438 759.875 574.699219 C 754.191406 575.128906 728.242188 573.949219 723.375 573.847656 C 715.828125 573.691406 711.273438 579.191406 711.273438 580.898438 C 711.273438 582.511719 713.929688 580.789062 717.640625 579.152344 C 716.496094 583.027344 713.3125 593.546875 710.335938 603.375 C 708.742188 608.632812 707.203125 613.695312 706.066406 617.441406 C 705.65625 618.792969 705.300781 619.964844 705.011719 620.921875 C 704.398438 621.136719 703.917969 621.570312 703.742188 622.167969 L 703.050781 624.542969 C 702.734375 625.636719 703.550781 626.835938 704.875 627.21875 C 706.195312 627.605469 707.527344 627.03125 707.847656 625.9375 L 708.539062 623.5625 C 708.699219 623.011719 708.566406 622.4375 708.238281 621.949219 C 709.441406 618 711.816406 610.175781 714.214844 602.246094 C 715.921875 596.601562 717.648438 590.90625 718.976562 586.511719 C 719.636719 584.316406 720.191406 582.445312 720.605469 581.066406 C 720.808594 580.375 720.980469 579.8125 721.101562 579.386719 C 721.101562 579.382812 721.105469 579.378906 721.105469 579.375 C 722.140625 579.195312 724.242188 579.039062 726.878906 578.941406 C 729.046875 578.863281 731.613281 578.816406 734.34375 578.804688 C 739.441406 579.226562 744.375 579.773438 747 579.957031 C 750.917969 580.230469 757.730469 581.617188 762.96875 581.210938 C 763.949219 585.167969 766.175781 594.109375 768.375 602.949219 C 770.1875 610.25 771.980469 617.46875 773.035156 621.695312 C 772.613281 622.195312 772.417969 622.820312 772.578125 623.425781 L 773.207031 625.820312 C 773.492188 626.921875 774.808594 627.53125 776.140625 627.179688 C 777.472656 626.832031 778.320312 625.652344 778.035156 624.554688 " fill-opacity="1" fill-rule="nonzero"/></g><g clip-path="url(#ac71b08182)"><path fill="#000000" d="M 319.222656 537.242188 L 239.257812 537.242188 L 239.257812 542.6875 L 244.371094 542.6875 L 244.371094 556.25 L 247.109375 556.25 L 248.207031 627.339844 L 252.863281 627.339844 L 253.960938 556.25 L 304.296875 556.25 L 305.390625 627.339844 L 310.046875 627.339844 L 311.144531 556.25 L 314.109375 556.25 L 314.109375 542.6875 L 319.222656 542.6875 L 319.222656 537.242188 " fill-opacity="1" fill-rule="evenodd"/></g><g clip-path="url(#4093fcffe3)"><path fill="#000000" d="M 454.433594 537.242188 L 374.46875 537.242188 L 374.46875 542.6875 L 379.582031 542.6875 L 379.582031 556.25 L 382.324219 556.25 L 383.417969 627.339844 L 388.074219 627.339844 L 389.171875 556.25 L 439.503906 556.25 L 440.601562 627.339844 L 445.257812 627.339844 L 446.355469 556.25 L 449.320312 556.25 L 449.320312 542.6875 L 454.433594 542.6875 L 454.433594 537.242188 " fill-opacity="1" fill-rule="evenodd"/></g><g clip-path="url(#80f5988782)"><path fill="#000000" d="M 588.59375 537.242188 L 508.625 537.242188 L 508.625 542.6875 L 513.742188 542.6875 L 513.742188 556.25 L 516.480469 556.25 L 517.578125 627.339844 L 522.234375 627.339844 L 523.332031 556.25 L 573.667969 556.25 L 574.757812 627.339844 L 579.417969 627.339844 L 580.515625 556.25 L 583.480469 556.25 L 583.480469 542.6875 L 588.59375 542.6875 L 588.59375 537.242188 " fill-opacity="1" fill-rule="evenodd"/></g><g clip-path="url(#6b2c5c6fe2)"><path fill="#000000" d="M 723.277344 537.242188 L 643.316406 537.242188 L 643.316406 542.6875 L 648.425781 542.6875 L 648.425781 556.25 L 651.167969 556.25 L 652.265625 627.339844 L 656.917969 627.339844 L 658.015625 556.25 L 708.351562 556.25 L 709.449219 627.339844 L 714.105469 627.339844 L 715.203125 556.25 L 718.164062 556.25 L 718.164062 542.6875 L 723.277344 542.6875 L 723.277344 537.242188 " fill-opacity="1" fill-rule="evenodd"/></g><g clip-path="url(#532d23dd23)"><path fill="#000000" d="M 53.503906 624.566406 L 54.128906 622.183594 C 54.273438 621.640625 54.667969 621.21875 55.1875 620.972656 C 57.464844 611.816406 63.320312 588.28125 65.175781 580.8125 C 63.816406 580.363281 62.710938 579.675781 62.042969 578.621094 C 58.8125 573.523438 61.605469 564.773438 61.082031 557.949219 C 59.90625 542.589844 53.386719 524.726562 54.625 524.386719 C 60.023438 522.902344 64.3125 551.148438 64.714844 556.675781 C 65.121094 562.199219 65.925781 574.515625 71.578125 574.941406 C 77.230469 575.367188 103.066406 574.195312 107.910156 574.09375 C 115.425781 573.9375 119.957031 579.410156 119.957031 581.109375 C 119.957031 582.714844 117.3125 581 113.617188 579.371094 C 114.757812 583.230469 117.925781 593.703125 120.890625 603.484375 C 122.476562 608.71875 124.007812 613.757812 125.140625 617.484375 C 125.550781 618.832031 125.90625 620 126.191406 620.949219 C 126.800781 621.164062 127.277344 621.597656 127.453125 622.191406 L 128.140625 624.554688 C 128.457031 625.644531 127.644531 626.835938 126.328125 627.21875 C 125.011719 627.605469 123.683594 627.03125 123.367188 625.945312 L 122.679688 623.582031 C 122.519531 623.03125 122.648438 622.457031 122.980469 621.972656 C 121.785156 618.039062 119.417969 610.253906 117.027344 602.359375 C 115.324219 596.742188 113.609375 591.074219 112.292969 586.695312 C 111.632812 584.511719 111.074219 582.648438 110.667969 581.277344 C 110.460938 580.59375 110.296875 580.027344 110.171875 579.609375 C 110.171875 579.605469 110.171875 579.601562 110.167969 579.597656 C 109.136719 579.414062 107.039062 579.257812 104.421875 579.164062 C 102.261719 579.082031 99.714844 579.039062 96.996094 579.023438 C 91.921875 579.445312 87.003906 579.988281 84.394531 580.171875 C 80.5 580.445312 73.710938 581.824219 68.5 581.425781 C 67.519531 585.363281 65.304688 594.261719 63.121094 603.058594 C 61.308594 610.328125 59.523438 617.511719 58.476562 621.71875 C 58.898438 622.214844 59.09375 622.839844 58.933594 623.441406 L 58.308594 625.824219 C 58.023438 626.921875 56.714844 627.53125 55.386719 627.179688 C 54.058594 626.832031 53.214844 625.660156 53.503906 624.566406 " fill-opacity="1" fill-rule="nonzero"/></g><g clip-path="url(#b1b901d73b)"><path fill="#000000" d="M 172.019531 521.40625 L 83.992188 521.40625 L 83.992188 527.546875 L 89.621094 527.546875 L 89.621094 593.050781 L 91.328125 593.050781 L 91.328125 627.339844 L 97.980469 627.339844 L 97.980469 593.050781 L 157.722656 593.050781 L 157.722656 627.339844 L 164.375 627.339844 L 164.375 593.050781 L 166.390625 593.050781 L 166.390625 527.546875 L 172.019531 527.546875 L 172.019531 521.40625 " fill-opacity="1" fill-rule="evenodd"/></g><path fill="#000000" d="M 122.226562 521.433594 L 92.746094 521.433594 L 92.746094 516.707031 L 122.226562 516.707031 L 122.226562 521.433594 " fill-opacity="1" fill-rule="evenodd"/><path fill="#000000" d="M 164.773438 521.433594 L 138.910156 521.433594 L 138.910156 520.707031 L 164.773438 520.707031 L 164.773438 521.433594 " fill-opacity="1" fill-rule="evenodd"/><path fill="#000000" d="M 166.578125 520.773438 L 140.714844 520.773438 L 140.714844 520.042969 L 166.578125 520.042969 L 166.578125 520.773438 " fill-opacity="1" fill-rule="evenodd"/><path fill="#000000" d="M 163.800781 520.066406 L 137.9375 520.066406 L 137.9375 519.335938 L 163.800781 519.335938 L 163.800781 520.066406 " fill-opacity="1" fill-rule="evenodd"/><path fill="#000000" d="M 165.675781 519.34375 L 139.8125 519.34375 L 139.8125 518.613281 L 165.675781 518.613281 L 165.675781 519.34375 " fill-opacity="1" fill-rule="evenodd"/><path fill="#000000" d="M 164.792969 518.636719 L 138.929688 518.636719 L 138.929688 517.90625 L 164.792969 517.90625 L 164.792969 518.636719 " fill-opacity="1" fill-rule="evenodd"/><path fill="#000000" d="M 168.40625 517.921875 L 142.542969 517.921875 L 142.542969 517.191406 L 168.40625 517.191406 L 168.40625 517.921875 " fill-opacity="1" fill-rule="evenodd"/><path fill="#000000" d="M 165.675781 517.226562 L 139.8125 517.226562 L 139.8125 516.492188 L 165.675781 516.492188 L 165.675781 517.226562 " fill-opacity="1" fill-rule="evenodd"/><path fill="#000000" d="M 164.75 516.511719 L 138.886719 516.511719 L 138.886719 515.777344 L 164.75 515.777344 L 164.75 516.511719 " fill-opacity="1" fill-rule="evenodd"/><path fill="#000000" d="M 165.011719 515.855469 L 139.148438 515.855469 L 139.148438 515.125 L 165.011719 515.125 L 165.011719 515.855469 " fill-opacity="1" fill-rule="evenodd"/><path fill="#000000" d="M 166.839844 515.140625 L 140.976562 515.140625 L 140.976562 514.40625 L 166.839844 514.40625 L 166.839844 515.140625 " fill-opacity="1" fill-rule="evenodd"/><path fill="#000000" d="M 162.363281 514.421875 L 136.5 514.421875 L 136.5 513.691406 L 162.363281 513.691406 L 162.363281 514.421875 " fill-opacity="1" fill-rule="evenodd"/><path fill="#000000" d="M 165.230469 513.707031 L 139.367188 513.707031 L 139.367188 512.972656 L 165.230469 512.972656 L 165.230469 513.707031 " fill-opacity="1" fill-rule="evenodd"/><path fill="#000000" d="M 302.59375 520.210938 C 302.59375 520.210938 296.523438 519.757812 290.890625 519.527344 C 285.257812 519.300781 274.855469 519.757812 274.855469 519.757812 L 272.902344 537.617188 L 309.3125 537.617188 C 309.3125 537.617188 307.359375 532.738281 304.976562 532.96875 C 302.59375 533.195312 300.859375 534.335938 300.859375 534.335938 C 300.859375 534.335938 302.375 532.058594 302.375 528.867188 C 302.375 525.679688 302.59375 520.210938 302.59375 520.210938 " fill-opacity="1" fill-rule="evenodd"/><path fill="#000000" d="M 448.507812 537.5 L 407.515625 537.5 L 407.515625 535.191406 L 448.507812 535.191406 L 448.507812 537.5 " fill-opacity="1" fill-rule="evenodd"/><path fill="#000000" d="M 578.359375 519.90625 L 572.675781 532.648438 C 572.675781 532.648438 571.296875 534.816406 571.183594 534.78125 C 571.0625 534.75 571.898438 532.296875 571.898438 532.296875 L 577.574219 519.554688 L 578.359375 519.90625 " fill-opacity="1" fill-rule="evenodd"/><path fill="#000000" d="M 430.027344 527.40625 L 426.730469 513.878906 C 426.730469 513.878906 426.625 511.292969 426.78125 511.234375 C 426.9375 511.179688 427.859375 513.605469 427.859375 513.605469 L 431.15625 527.128906 L 430.027344 527.40625 " fill-opacity="1" fill-rule="evenodd"/><path fill="#000000" d="M 576.027344 537.367188 L 543.707031 537.367188 L 543.707031 534.925781 L 576.027344 534.925781 L 576.027344 537.367188 " fill-opacity="1" fill-rule="evenodd"/><path fill="#000000" d="M 724.347656 535.078125 L 689.792969 524.054688 L 690.683594 521.261719 L 725.238281 532.285156 L 724.347656 535.078125 " fill-opacity="1" fill-rule="evenodd"/><g clip-path="url(#2a59b7561c)"><path fill="#000000" d="M 116.175781 615.105469 C 115.375 614.144531 116.015625 606.773438 116.015625 606.128906 C 116.015625 605.699219 115.652344 605.347656 114.457031 605.011719 C 114.402344 604.855469 114.339844 604.6875 114.273438 604.511719 C 113.867188 603.476562 113.289062 602.203125 112.453125 601.175781 C 111.632812 600.175781 110.242188 598.972656 108.210938 597.988281 C 106.183594 597.003906 103.511719 596.25 100.171875 596.164062 C 99.90625 596.160156 99.640625 596.15625 99.378906 596.15625 C 96.367188 596.15625 93.566406 596.574219 91.03125 596.980469 C 88.5 597.390625 86.230469 597.78125 84.320312 597.777344 C 84.15625 597.777344 83.996094 597.777344 83.835938 597.769531 L 83.832031 597.769531 L 83.648438 597.765625 C 82.90625 597.765625 82.234375 597.945312 81.6875 598.285156 C 80.855469 598.796875 80.382812 599.601562 80.125 600.402344 C 79.867188 601.210938 79.792969 602.046875 79.792969 602.820312 C 79.792969 603.246094 79.816406 603.648438 79.851562 604.019531 C 79.753906 604.03125 79.671875 604.039062 79.628906 604.046875 C 78.667969 604.207031 78.34375 607.894531 78.667969 610.460938 C 78.988281 613.023438 76.742188 617.03125 75.941406 618.792969 C 75.140625 620.554688 75.941406 621.996094 75.621094 624.402344 C 75.300781 626.808594 80.589844 626.808594 84.757812 627.289062 C 84.757812 627.289062 109.601562 627.421875 113.769531 627.261719 C 117.9375 627.097656 115.695312 622.640625 116.496094 620.554688 C 117.296875 618.472656 116.976562 616.070312 116.175781 615.105469 Z M 112.007812 604.527344 C 108.800781 604.046875 105.113281 604.367188 100.144531 603.40625 C 96.21875 602.644531 86.285156 603.386719 81.816406 603.808594 C 81.789062 603.5 81.769531 603.164062 81.769531 602.820312 C 81.765625 601.964844 81.902344 601.085938 82.199219 600.550781 C 82.347656 600.28125 82.515625 600.097656 82.722656 599.96875 C 82.933594 599.839844 83.210938 599.746094 83.648438 599.742188 L 83.757812 599.746094 C 83.945312 599.753906 84.132812 599.753906 84.320312 599.753906 C 86.488281 599.753906 88.828125 599.335938 91.347656 598.933594 C 93.863281 598.53125 96.554688 598.132812 99.378906 598.132812 C 99.625 598.132812 99.871094 598.136719 100.121094 598.144531 C 103.191406 598.21875 105.570312 598.90625 107.347656 599.769531 C 109.125 600.625 110.300781 601.667969 110.921875 602.429688 C 111.386719 602.992188 111.8125 603.789062 112.148438 604.550781 C 112.097656 604.542969 112.054688 604.535156 112.007812 604.527344 " fill-opacity="1" fill-rule="nonzero"/></g><g clip-path="url(#a6f6722c11)"><path fill="#000000" d="M 366.261719 552.558594 C 366.0625 551.769531 366.503906 544.761719 366.566406 543.316406 C 366.632812 541.871094 364.082031 526.84375 363.503906 520.773438 C 362.925781 514.703125 362.117188 508.109375 359.226562 499.554688 C 356.335938 491 352.230469 489.4375 351.363281 488.917969 C 350.496094 488.398438 349.746094 489.148438 349.746094 489.148438 C 347.433594 487.703125 345.757812 484.925781 345.757812 484.925781 C 345.757812 484.925781 346.105469 483.367188 346.449219 482.734375 C 351.769531 474.695312 351.769531 470.707031 349.628906 464.699219 C 347.492188 458.683594 339.28125 458.050781 334.019531 459.78125 C 328.757812 461.515625 329.453125 463.078125 329.339844 463.136719 C 326.449219 466.546875 326.332031 470.59375 326.332031 471.460938 C 326.332031 472.328125 326.792969 473.023438 326.734375 473.597656 C 326.679688 474.175781 325.351562 475.738281 324.714844 476.429688 C 323.789062 477.644531 323.5 478.105469 323.789062 478.570312 C 324.078125 479.03125 325.40625 479.554688 325.40625 479.554688 C 325.40625 479.554688 325.523438 480.480469 324.945312 480.824219 C 324.367188 481.171875 325.582031 482.328125 325.582031 482.328125 C 325.582031 482.328125 324.828125 483.65625 325.582031 483.597656 C 326.332031 483.542969 326.101562 484.410156 326.042969 485.277344 C 325.8125 487.011719 326.679688 488.109375 327.894531 488.109375 C 329.109375 488.109375 333.617188 487.125 333.617188 487.355469 C 333.617188 487.585938 334.253906 490.304688 335.179688 491.691406 C 336.101562 493.078125 337.085938 495.507812 337.085938 495.507812 C 337.085938 495.507812 334.523438 498.804688 333.933594 499.328125 C 333.34375 499.851562 334.199219 500.183594 334.199219 500.183594 C 333.800781 500.507812 328.222656 508.980469 326.054688 511.34375 C 323.886719 513.707031 319.292969 518.828125 319.226562 518.828125 C 314.761719 517.84375 302.285156 518.304688 301.757812 518.238281 C 301.234375 518.171875 301.101562 517.777344 299.722656 516.925781 C 298.34375 516.070312 297.292969 516.070312 297.292969 516.003906 C 296.242188 515.414062 295.390625 515.808594 295.324219 515.871094 C 293.421875 515.085938 293.15625 515.742188 293.089844 515.742188 C 291.714844 515.675781 291.253906 516.660156 291.253906 516.59375 C 290.859375 516.53125 289.347656 516.992188 289.085938 517.644531 C 288.824219 518.304688 287.839844 519.15625 288.429688 519.417969 C 289.019531 519.679688 289.941406 518.695312 289.941406 518.695312 C 289.941406 518.695312 290.203125 519.417969 289.941406 520.011719 C 289.679688 520.601562 289.679688 521.058594 290.332031 521.125 C 290.992188 521.191406 291.1875 520.601562 291.1875 520.535156 C 291.84375 520.402344 292.4375 519.222656 292.4375 519.222656 C 292.4375 519.222656 293.089844 519.550781 293.617188 519.945312 C 296.308594 522.570312 299.132812 522.769531 300.710938 523.226562 C 302.285156 523.6875 302.21875 524.339844 302.152344 524.800781 C 302.089844 525.261719 302.875 526.574219 303.335938 526.640625 C 303.792969 526.707031 303.664062 525.984375 303.863281 525.328125 C 304.058594 524.671875 303.992188 523.816406 303.992188 523.816406 C 303.992188 523.816406 309.378906 525.328125 312.070312 525.589844 C 314.761719 525.851562 318.898438 526.773438 319.683594 526.773438 C 320.472656 526.773438 323.496094 525.65625 324.347656 524.476562 C 325.855469 522.242188 332.09375 518.039062 332.09375 518.039062 C 332.292969 522.371094 337.019531 524.605469 337.019531 524.605469 C 337.019531 524.605469 337.152344 525.527344 336.558594 526.511719 C 335.96875 527.496094 333.34375 532.878906 332.03125 538.390625 C 330.71875 543.90625 326.644531 551.722656 326.644531 551.722656 C 326.644531 551.722656 323.164062 552.640625 320.277344 553.558594 C 317.386719 554.480469 306.683594 557.105469 304.648438 557.171875 C 300.710938 557.367188 297.953125 560.191406 297.097656 561.632812 C 296.242188 563.082031 295.457031 566.953125 294.734375 567.808594 C 294.011719 568.660156 289.808594 574.371094 286.65625 578.378906 C 283.507812 582.382812 275.558594 589.667969 273.195312 590.71875 C 267.941406 592.886719 262.363281 595.972656 261.574219 596.300781 C 260.785156 596.628906 261.574219 597.15625 261.574219 597.15625 C 261.574219 597.15625 258.75 597.679688 257.765625 597.613281 C 256.78125 597.550781 251.460938 595.449219 250.34375 595.25 C 249.230469 595.054688 247.917969 597.285156 247.917969 597.285156 C 247.917969 597.285156 246.144531 598.664062 246.800781 599.714844 C 248.308594 602.277344 255.796875 608.183594 257.175781 608.777344 C 258.554688 609.367188 262.820312 610.21875 262.820312 610.21875 L 261.441406 611.269531 C 261.441406 611.269531 251.132812 609.167969 249.886719 609.433594 C 248.636719 609.695312 247.984375 611.796875 247.984375 611.796875 C 247.984375 611.796875 246.144531 613.699219 247.128906 615.539062 C 249.691406 620.136719 256.453125 621.777344 261.046875 623.613281 C 265.644531 625.453125 272.472656 626.960938 273.984375 627.292969 C 275.496094 627.621094 275.496094 626.175781 275.496094 626.175781 C 275.496094 626.175781 276.480469 626.765625 276.675781 626.175781 C 276.871094 625.585938 277.003906 625.386719 278.515625 621.578125 C 280.027344 617.769531 289.21875 606.476562 296.636719 598.203125 C 304.058594 589.933594 306.882812 580.871094 306.882812 580.871094 L 312.792969 576.867188 C 312.792969 576.867188 334.722656 575.488281 339.121094 575.292969 C 343.519531 575.09375 350.601562 577.234375 356.992188 573.101562 C 363.789062 568.703125 365.007812 553.8125 365.007812 553.8125 C 365.007812 553.8125 366.460938 553.34375 366.261719 552.558594 Z M 340.828125 541.019531 C 340.300781 542.132812 337.019531 548.832031 336.824219 550.015625 C 336.824219 550.082031 333.34375 550.210938 332.292969 550.605469 C 332.292969 550.738281 332.160156 550.144531 332.816406 549.292969 C 333.476562 548.4375 337.019531 543.121094 338.070312 541.347656 C 339.121094 539.574219 340.960938 535.308594 340.960938 535.308594 C 340.960938 535.308594 341.355469 539.902344 340.828125 541.019531 " fill-opacity="1" fill-rule="nonzero"/></g><g clip-path="url(#456c373fdc)"><path fill="#000000" d="M 494.144531 543.886719 C 496.226562 543.605469 493.699219 539.273438 493.699219 539.210938 C 496.785156 540.363281 493.578125 526.394531 491.339844 522.101562 C 489.105469 517.804688 487.773438 509.585938 483.359375 499.667969 C 478.945312 489.75 471.8125 487.695312 471.8125 487.695312 C 472.175781 487.273438 470.113281 484.867188 469.507812 484.203125 C 468.902344 483.539062 465.789062 484.039062 465.730469 484.039062 C 468.210938 482.105469 468.789062 478.382812 469.574219 476.933594 C 472.417969 471.855469 472.839844 465.445312 470.664062 460.304688 C 468.484375 455.164062 465.761719 457.039062 465.703125 456.917969 C 457.960938 452.867188 453.609375 455.585938 453.609375 455.585938 C 447.257812 455.285156 449.496094 457.945312 449.375 457.945312 C 447.921875 458.429688 448.226562 460.363281 448.105469 460.363281 C 445.320312 463.449219 446.046875 463.992188 446.046875 464.054688 C 446.351562 463.386719 447.257812 462.480469 447.320312 462.480469 C 447.074219 463.027344 446.953125 463.691406 446.953125 463.691406 C 447.015625 463.328125 447.863281 462.601562 447.863281 462.601562 L 447.921875 463.449219 C 447.558594 463.992188 446.410156 466.289062 446.167969 466.894531 C 445.925781 467.5 446.714844 468.648438 446.59375 469.191406 C 446.472656 469.738281 445.261719 470.402344 444.777344 471.066406 C 444.292969 471.730469 442.902344 472.941406 442.417969 473.425781 C 441.9375 473.910156 442.058594 474.878906 442.660156 475.179688 C 443.265625 475.480469 444.113281 476.269531 444.113281 476.269531 C 444.113281 476.269531 443.542969 476.25 443.199219 476.574219 C 442.996094 476.832031 443.011719 477.25 443.21875 477.429688 C 443.421875 477.613281 443.539062 477.628906 443.566406 477.597656 C 442.902344 478.082031 443.542969 478.820312 443.871094 478.929688 C 443.234375 478.972656 443.207031 480.078125 443.691406 480.078125 C 444.171875 480.078125 443.933594 480.863281 443.933594 480.863281 C 440.121094 484.554688 442.207031 488.082031 442.722656 488.421875 C 443.519531 488.953125 445.925781 488 447.015625 487.636719 C 448.105469 487.273438 450.582031 487.335938 450.582031 487.335938 C 450.582031 487.335938 450.949219 487.878906 450.828125 488.96875 C 450.703125 490.054688 451.1875 491.265625 452.035156 491.808594 C 452.882812 492.351562 454.636719 495.195312 454.636719 495.195312 C 453.992188 497.265625 451.863281 499.101562 451.929688 500.152344 C 451.996094 501.203125 453.441406 504.421875 453.441406 504.421875 C 453.441406 504.421875 453.375 507.703125 453.242188 507.703125 C 450.484375 509.871094 445.363281 515.777344 443.589844 517.027344 C 441.816406 518.273438 443.261719 519.128906 443.261719 519.128906 C 443.261719 519.128906 441.292969 520.835938 441.03125 521.03125 C 440.765625 521.226562 441.554688 522.148438 441.554688 522.148438 C 441.554688 522.148438 440.960938 522.476562 440.898438 522.34375 C 438.863281 521.6875 435.445312 522.210938 435.382812 522.148438 C 435.1875 520.898438 433.476562 520.570312 432.886719 520.636719 C 432.296875 520.703125 432.03125 520.375 431.246094 520.242188 C 430.457031 520.113281 429.339844 520.898438 429.273438 520.898438 C 426.976562 521.03125 426.78125 522.476562 426.78125 522.476562 C 426.78125 522.476562 425.53125 522.671875 425.269531 523.722656 C 425.007812 524.773438 425.007812 526.679688 425.207031 527.597656 C 425.402344 528.515625 426.253906 530.355469 426.253906 530.355469 C 424.285156 531.339844 419.558594 531.078125 418.902344 531.601562 C 418.246094 532.128906 415.550781 533.902344 415.027344 534.425781 C 414.503906 534.949219 414.960938 536.523438 414.960938 536.523438 C 414.171875 537.839844 416.734375 538.957031 417.195312 538.890625 C 417.652344 538.824219 418.574219 538.296875 418.574219 538.296875 C 418.574219 538.296875 419.359375 538.890625 419.886719 538.757812 C 420.410156 538.628906 421.59375 536.789062 421.59375 536.789062 L 423.101562 536.855469 L 425.269531 538.757812 L 425.007812 539.613281 C 424.285156 539.679688 423.300781 540.398438 422.839844 541.121094 C 422.382812 541.84375 423.367188 543.222656 423.757812 542.761719 C 424.417969 542.039062 426.453125 542.371094 426.714844 541.84375 C 426.976562 541.320312 429.144531 538.496094 429.210938 537.90625 C 429.273438 537.3125 430.675781 535.804688 430.742188 535.410156 C 430.871094 534.230469 436.234375 534.425781 436.234375 534.425781 C 436.234375 534.425781 439.527344 535.6875 440.511719 535.625 C 441.496094 535.554688 443.789062 534.425781 444.574219 533.503906 C 445.363281 532.585938 450.222656 531.011719 450.222656 531.078125 C 451.140625 531.796875 453.570312 529.828125 453.636719 529.761719 C 454.226562 530.09375 458.296875 529.960938 458.296875 530.027344 C 458.296875 530.09375 461.84375 541.386719 461.449219 542.304688 C 460.269531 545.847656 463.15625 545.78125 463.15625 545.78125 C 463.15625 545.78125 463.089844 546.765625 463.027344 546.636719 C 448.777344 548.34375 423.039062 554.320312 419.359375 554.84375 C 415.683594 555.371094 410.300781 557.996094 408.789062 560.292969 C 407.28125 562.589844 407.476562 569.023438 408.199219 570.730469 C 408.921875 572.441406 412.269531 578.742188 412.269531 578.679688 C 409.839844 585.308594 407.542969 602.640625 406.621094 605.136719 C 405.703125 607.632812 406.359375 609.46875 406.359375 609.46875 C 406.359375 609.46875 404.652344 611.898438 404.125 612.554688 C 403.601562 613.210938 404.125 613.738281 404.0625 613.738281 C 403.011719 613.867188 401.960938 615.378906 401.828125 615.3125 C 400.449219 615.050781 399.660156 616.757812 399.597656 616.691406 C 398.152344 616.957031 396.117188 618.59375 395.789062 618.792969 C 395.460938 618.988281 392.898438 619.054688 390.929688 619.253906 C 388.960938 619.449219 388.894531 621.617188 388.761719 621.617188 C 388.433594 621.550781 387.84375 622.863281 388.632812 623.453125 C 390.535156 624.898438 396.839844 627.851562 400.382812 627.261719 C 403.667969 626.671875 410.234375 626.078125 410.234375 626.078125 L 410.035156 627.261719 C 410.035156 627.261719 412.136719 627.261719 413.78125 627.261719 C 415.421875 627.261719 418.574219 626.671875 418.574219 626.671875 C 418.574219 626.671875 419.558594 627.261719 424.746094 627.261719 C 429.933594 627.261719 434.660156 625.292969 434.660156 625.292969 L 436.105469 626.476562 C 436.105469 626.476562 442.277344 626.277344 442.867188 626.210938 C 443.457031 626.144531 444.113281 625.621094 444.3125 624.503906 C 444.507812 623.386719 443.984375 623.519531 443.917969 623.519531 C 444.050781 622.863281 443.917969 621.351562 443.917969 621.351562 C 443.917969 621.351562 444.640625 621.351562 444.773438 620.761719 C 444.902344 620.171875 444.707031 609.335938 443.066406 603.558594 C 441.421875 597.78125 439.585938 597.191406 439.585938 596.996094 C 438.140625 589.3125 432.316406 575.3125 432.316406 575.3125 C 432.316406 575.3125 438.847656 575.371094 442.65625 574.765625 C 446.46875 574.164062 456.3125 573.953125 459.882812 574.253906 C 463.449219 574.554688 480.851562 575.226562 485.992188 575.347656 C 491.132812 575.46875 496.925781 568.175781 497.167969 561.648438 C 497.410156 555.117188 494.207031 544.011719 494.144531 543.886719 Z M 427.765625 529.761719 C 427.765625 529.4375 427.042969 526.679688 427.042969 526.679688 C 427.042969 526.679688 427.4375 526.941406 427.4375 526.875 C 427.566406 527.53125 428.355469 529.304688 428.355469 529.304688 Z M 426.191406 613.738281 C 425.074219 613.671875 422.578125 615.445312 422.578125 615.445312 L 425.140625 606.578125 C 425.140625 606.578125 426.058594 607.960938 425.992188 609.273438 C 425.925781 610.585938 427.371094 611.898438 427.304688 611.964844 C 426.191406 612.621094 426.253906 613.738281 426.191406 613.738281 " fill-opacity="1" fill-rule="evenodd"/></g><g clip-path="url(#9fb685dd43)"><path fill="#000000" d="M 633.722656 496.316406 C 633.722656 496.316406 636.105469 493.308594 635.1875 484.457031 C 635.003906 482.71875 634.730469 479.773438 635.332031 476.9375 C 635.925781 474.097656 635.210938 471.871094 635.183594 468.171875 C 635.15625 464.472656 629.550781 458.417969 626.503906 458.269531 C 626.503906 458.269531 617.121094 455.152344 612.292969 458.390625 C 612.292969 458.457031 608.148438 458.210938 607.78125 459.691406 C 607.414062 461.175781 608.257812 468.203125 608.257812 468.203125 C 608.257812 468.203125 607.230469 470.121094 607.210938 470.835938 C 607.191406 471.550781 607.628906 472.273438 607.480469 472.726562 C 607.339844 473.175781 605.863281 475.015625 605.394531 475.457031 C 604.929688 475.898438 604.132812 476.523438 604.4375 477.179688 C 604.625 477.511719 606.027344 478.457031 606.027344 478.457031 C 606.027344 478.457031 606.09375 479.539062 605.597656 479.875 C 604.894531 480.347656 606.089844 480.988281 606.089844 480.988281 C 606.089844 480.988281 605.285156 481.683594 605.726562 482.210938 C 605.976562 482.480469 606.628906 482.433594 606.554688 482.882812 C 606.472656 483.335938 605.660156 484.480469 606.484375 485.414062 C 607.300781 486.34375 609.050781 486.328125 612.933594 486.757812 C 613.640625 486.972656 614.601562 487.371094 615.097656 490.046875 C 615.28125 490.910156 617.214844 493.753906 617.214844 493.753906 C 617.214844 493.753906 615.75 495.203125 616.179688 496.058594 C 616.179688 495.992188 613.605469 497.609375 609.871094 498.996094 C 606.132812 500.386719 594.914062 502.605469 594.914062 502.605469 C 594.914062 502.605469 587.722656 492.867188 586.113281 489.96875 C 585.5 488.851562 583.96875 488.945312 583.96875 488.945312 C 583.96875 488.945312 583.570312 488.148438 583.382812 487.816406 C 583.199219 487.488281 581.898438 487.515625 581.898438 487.515625 C 581.898438 487.515625 582.109375 482.265625 582.390625 481.5625 C 582.667969 480.855469 582.5625 480.140625 582.261719 479.222656 C 581.960938 478.304688 581.507812 475.828125 581.273438 474.980469 C 581.039062 474.128906 580.496094 471.394531 580.542969 471 C 580.621094 470.269531 579.328125 470.609375 579.347656 471.8125 C 579.363281 472.523438 579.464844 474.667969 579.382812 475.378906 C 579.300781 476.09375 579.703125 477.789062 579.703125 477.789062 C 579.703125 477.789062 577.625 476.261719 577.019531 476.289062 C 576.402344 476.316406 574.503906 478.097656 574.304688 478.417969 C 574.097656 478.738281 573.96875 479.703125 573.96875 479.703125 C 573.96875 479.703125 572.949219 480.324219 573.0625 481.042969 C 573.171875 481.757812 573.796875 483.035156 574.003906 483.242188 C 574.308594 483.546875 575.070312 483.925781 575.070312 483.925781 C 575.070312 483.925781 575.472656 487.726562 576.191406 489.824219 C 576.1875 489.890625 575.441406 490.121094 575.203125 490.25 C 574.804688 490.46875 575.566406 491.988281 575.566406 491.988281 C 575.566406 491.988281 573.722656 492.898438 573.566406 493.1875 C 573.164062 493.929688 574.257812 496.386719 575.507812 498.105469 C 576.757812 499.828125 582.8125 508.363281 583.230469 509.609375 C 583.652344 510.855469 587.835938 516.742188 590.90625 518.449219 C 592.183594 519.070312 596.011719 516.710938 602.601562 515.402344 C 602.601562 515.339844 602.664062 520.007812 604.539062 525.054688 C 604.472656 525.054688 587.890625 526.28125 586.726562 526.25 C 585.558594 526.214844 583.714844 527.332031 583.628906 527.914062 C 583.628906 527.914062 582.261719 528.070312 581.980469 528.90625 C 581.980469 528.96875 577.957031 526.589844 577.199219 525.917969 C 576.4375 525.25 574.914062 526.308594 574.914062 526.308594 C 574.914062 526.308594 573.949219 526.152344 573.214844 526.78125 C 572.484375 527.410156 570.96875 528.210938 570.894531 528.535156 C 570.824219 528.855469 570.804688 529.503906 570.804688 529.503906 C 570.804688 529.503906 570.535156 529.820312 570.898438 530.804688 C 571.261719 531.789062 572.378906 533.503906 573.289062 533.53125 C 573.351562 533.53125 574.757812 534.351562 575.019531 534.292969 C 575.28125 534.234375 575.175781 533.386719 575.175781 533.386719 C 575.175781 533.386719 575.566406 533.335938 575.511719 532.945312 C 575.511719 533.007812 579.230469 534.539062 581.308594 534.464844 C 581.242188 534.53125 581.328125 535.960938 581.910156 536.039062 C 582.496094 536.121094 583.332031 536.273438 583.332031 536.273438 C 583.332031 536.273438 583.050781 539.445312 584.667969 539.621094 C 586.285156 539.792969 594.261719 537.679688 595.167969 537.640625 C 596.078125 537.601562 606.828125 537.316406 606.828125 537.316406 C 606.828125 537.316406 606.316406 543.15625 605.660156 543.332031 C 605.011719 543.507812 597.667969 545.816406 597.34375 545.9375 C 597.011719 546.058594 596.402344 547.144531 596.402344 547.144531 C 596.402344 547.144531 559.527344 555.003906 557.117188 555.457031 C 554.699219 555.90625 551.984375 557.84375 551.175781 558.992188 C 550.363281 560.136719 547.855469 564.085938 547.554688 565.636719 C 547.253906 567.183594 547.179688 569.777344 546.757812 570.933594 C 546.335938 572.089844 537.066406 597.523438 536.316406 598.800781 C 535.570312 600.074219 533.292969 602.605469 532.953125 603.183594 C 532.609375 603.753906 533.613281 604.953125 533.613281 604.953125 L 529.617188 606.460938 C 529.617188 606.460938 528.714844 606.308594 527.410156 606.59375 C 526.101562 606.882812 518.042969 605.101562 518.230469 607.703125 C 518.222656 607.832031 518.878906 612.390625 524.53125 614.429688 C 529.546875 615.929688 532.429688 614.90625 535.828125 614.027344 L 536.941406 616.074219 C 536.941406 616.074219 536.785156 616.972656 532.847656 618.679688 C 532.847656 618.613281 530.746094 619.53125 529.503906 619.886719 C 528.261719 620.238281 524.085938 621.097656 524.371094 622.464844 C 524.660156 623.835938 527.496094 626.835938 533.453125 627.324219 C 536.429688 627.539062 539.796875 625.292969 540.992188 624.550781 C 542.175781 623.804688 544.261719 623.472656 545.878906 623.585938 C 545.945312 623.585938 545.0625 626.085938 545.183594 626.414062 C 545.308594 626.742188 546.664062 627.039062 546.871094 626.332031 C 547.089844 625.625 548.9375 623.277344 549.796875 622.914062 C 550.648438 622.546875 551.328125 621.464844 551.113281 619.773438 C 551.117188 619.707031 552.949219 618.980469 554.550781 615.132812 C 556.148438 611.28125 565.042969 594.664062 566.089844 587.425781 C 566.394531 585.683594 567.453125 580.457031 568.167969 580.28125 C 568.886719 580.109375 577.335938 579.566406 583.335938 578.433594 C 589.335938 577.304688 602.75 575.535156 602.75 575.535156 C 602.75 575.535156 603.238281 576.652344 605.191406 576.511719 C 607.140625 576.371094 619.707031 575.753906 623.03125 575.261719 C 626.351562 574.773438 634.210938 569.898438 633.980469 552.441406 C 633.929688 542.578125 634.195312 536.640625 634.320312 532.039062 C 634.449219 527.4375 637.675781 516.238281 637.632812 510.980469 C 637.582031 505.726562 633.722656 496.316406 633.722656 496.316406 " fill-opacity="1" fill-rule="nonzero"/></g><g clip-path="url(#f54ef9a135)"><path fill="#000000" d="M 772.085938 487.753906 C 772.085938 487.753906 768.105469 483.53125 767.804688 481.292969 C 767.804688 481.175781 768.285156 480.691406 768.34375 480.269531 C 768.34375 480.328125 768.402344 480.875 768.890625 481.597656 C 768.949219 481.65625 768.582031 480.207031 769.429688 479.121094 C 770.277344 478.035156 775.769531 471.9375 776.4375 468.496094 C 776.4375 468.4375 776.738281 469.34375 776.738281 469.824219 C 776.738281 469.765625 779.785156 459.242188 771.996094 455.796875 C 771.996094 455.738281 770.960938 454.464844 769.308594 454.429688 C 769.429688 454.492188 767.316406 451.59375 763.574219 451.351562 C 759.832031 451.109375 751.984375 450.261719 747.089844 458.113281 C 747.152344 458.171875 747.695312 457.507812 748.058594 457.207031 C 748.117188 457.148438 745.039062 461.433594 745.460938 466.203125 C 745.523438 466.203125 745.644531 465.054688 745.882812 464.574219 C 745.882812 464.632812 746.183594 465.839844 746.304688 466.140625 C 746.304688 466.082031 746.183594 463.609375 747.695312 462.398438 C 747.695312 462.398438 747.511719 464.210938 747.273438 464.511719 C 747.03125 464.816406 747.632812 465.417969 747.394531 465.960938 C 747.152344 466.503906 745.34375 468.617188 744.738281 469.097656 C 744.136719 469.582031 743.230469 470.1875 743.410156 471.273438 C 743.589844 471.9375 745.402344 472.300781 745.402344 472.84375 C 745.402344 473.386719 745.039062 474.292969 744.796875 474.414062 C 744.554688 474.53125 744.195312 475.199219 744.859375 475.738281 C 744.859375 475.800781 744.375 476.464844 744.554688 476.769531 C 744.738281 477.070312 745.585938 477.128906 745.15625 477.734375 C 744.738281 478.335938 743.46875 480.453125 745.460938 481.65625 C 746.246094 482.140625 750.480469 482.160156 750.714844 482.5625 C 751.5625 484.007812 750.980469 484.792969 752.109375 485.917969 C 752.925781 486.734375 754.863281 487.546875 755.367188 490.351562 C 755.367188 490.351562 752.464844 491.742188 751.679688 495.0625 C 751.804688 495.0625 745.765625 500.679688 745.15625 507.742188 C 744.738281 512.210938 745.882812 515.589844 745.945312 516.496094 C 746.003906 517.402344 745.523438 521.207031 745.039062 522.957031 C 745.039062 523.015625 735.738281 527.0625 732.539062 528.933594 C 729.335938 530.804688 728.011719 531.710938 727.527344 531.710938 C 727.042969 531.710938 725.714844 531.710938 725.355469 531.53125 C 724.992188 531.351562 720.28125 528.574219 719.554688 528.332031 C 718.832031 528.089844 717.6875 527.246094 717.261719 526.820312 C 716.839844 526.398438 714.964844 525.734375 714.488281 526.582031 C 714.003906 527.425781 715.089844 528.632812 715.992188 529.117188 C 716.898438 529.597656 717.988281 530.445312 717.867188 530.6875 C 717.746094 530.929688 716.71875 531.773438 715.8125 532.074219 C 715.875 532.015625 715.992188 530.746094 715.511719 530.445312 C 715.03125 530.144531 714.003906 531.710938 713.640625 532.015625 C 713.578125 532.015625 712.25 530.929688 712.25 530.929688 C 712.25 530.929688 712.308594 527.789062 711.410156 528.089844 C 711.464844 528.152344 710.742188 526.519531 710.078125 526.761719 C 709.414062 527.003906 709.175781 527.546875 709.292969 528.574219 C 709.414062 529.597656 709.050781 530.265625 709.050781 530.265625 C 709.050781 530.265625 708.027344 528.089844 707.359375 528.332031 C 706.699219 528.574219 707.058594 530.445312 707.058594 531.351562 C 707.058594 532.253906 708.566406 533.460938 709.414062 534.429688 C 710.257812 535.394531 713.824219 535.453125 713.824219 535.453125 C 713.824219 535.453125 714.964844 537.207031 716.480469 537.328125 C 717.988281 537.445312 726.621094 537.386719 727.890625 537.570312 C 729.15625 537.75 731.152344 536.300781 733.867188 535.757812 C 736.582031 535.214844 741.957031 533.945312 741.957031 533.945312 C 741.957031 533.945312 738.578125 543.492188 738.03125 544.277344 C 737.492188 545.0625 737.671875 545.722656 737.671875 545.722656 C 737.671875 545.722656 736.523438 545.242188 736.164062 546.027344 C 735.796875 546.808594 735.015625 548.5625 735.4375 549.226562 C 735.496094 549.226562 735.496094 549.890625 735.496094 549.890625 C 735.496094 549.890625 728.070312 550.980469 726.257812 551.460938 C 724.449219 551.945312 718.46875 551.765625 718.042969 551.824219 C 717.621094 551.882812 718.527344 552.851562 718.527344 552.851562 C 718.527344 552.851562 708.449219 553.816406 705.546875 554.238281 C 702.648438 554.660156 697.640625 557.136719 696.128906 558.886719 C 694.617188 560.636719 690.933594 571.988281 690.152344 574.765625 C 689.363281 577.542969 685.683594 589.257812 684.835938 593.84375 C 683.988281 598.433594 680.125 602.597656 680.304688 605.980469 C 680.304688 605.980469 673.238281 612.707031 673.785156 615.726562 C 673.847656 615.726562 671.613281 616.691406 670.765625 617.898438 C 670.710938 618.019531 667.867188 618.382812 666.902344 619.527344 C 666.722656 619.769531 660.261719 619.710938 659.296875 621.039062 C 658.328125 622.367188 658.269531 623.996094 658.8125 624.839844 C 659.355469 625.6875 663.789062 626.589844 674.1875 626.714844 C 676.816406 626.714844 685.257812 624.59375 685.257812 624.59375 C 685.257812 624.59375 686.867188 625.835938 687.71875 625.835938 C 688.96875 625.835938 696.484375 626.210938 695.238281 623.082031 C 695.238281 623.023438 696.613281 622.917969 696.613281 621.953125 C 696.613281 620.988281 698.058594 618.132812 696.425781 616.804688 C 696.367188 616.742188 705.246094 597.042969 705.96875 589.195312 C 706.027344 589.253906 711.222656 598.613281 713.390625 600.90625 C 715.566406 603.203125 718.648438 611.894531 720.398438 612.015625 C 720.457031 611.957031 717.382812 612.980469 717.742188 614.792969 C 717.742188 614.734375 714.421875 616.421875 713.699219 616.664062 C 712.972656 616.90625 702.921875 618.800781 702.375 619.949219 C 701.832031 621.097656 700.957031 623.183594 702.285156 624.269531 C 703.609375 625.359375 710.738281 627.894531 717.621094 627.230469 C 724.503906 626.566406 729.699219 625.238281 729.699219 625.238281 C 729.699219 625.238281 730.058594 626.023438 731.269531 625.902344 C 732.476562 625.78125 740.441406 625.71875 740.6875 624.089844 C 740.808594 623.125 740.566406 621.976562 740.566406 621.976562 C 740.566406 621.976562 741.335938 620.199219 741.335938 618.195312 C 743.089844 617.820312 742.5 612.78125 741.960938 612.058594 C 740.871094 610.609375 739.507812 609.238281 739.203125 607.546875 C 738.902344 605.859375 737.667969 603.5 734.890625 598.910156 C 732.113281 594.324219 730.839844 590.21875 727.160156 585.449219 C 723.476562 580.679688 721.660156 578.292969 721.660156 578.292969 C 721.660156 578.292969 749.382812 576.574219 752.21875 575.847656 C 755.054688 575.125 761.519531 573.917969 765.324219 562.445312 C 765.382812 562.503906 765.863281 563.109375 766.164062 562.988281 C 766.46875 562.867188 767.617188 556.953125 767.675781 553.453125 C 767.675781 553.390625 768.886719 553.933594 768.824219 553.027344 C 768.765625 552.121094 768.707031 537.875 771.839844 531.835938 C 774.984375 525.800781 778.425781 516.441406 779.265625 510.34375 C 780.113281 504.246094 781.988281 498.511719 777.398438 494.042969 C 776.070312 492.714844 773.480469 486.960938 772.085938 487.753906 " fill-opacity="1" fill-rule="nonzero"/></g><g clip-path="url(#ec2bb55a27)"><path fill="#000000" d="M 258.074219 478.355469 C 257.992188 478.433594 257.675781 477.402344 256.484375 478.039062 C 255.292969 478.675781 254.976562 478.355469 254.023438 478.753906 C 254.023438 478.832031 252.988281 478.597656 252.195312 478.753906 C 252.195312 478.832031 250.289062 478.433594 250.210938 478.433594 C 250.128906 478.433594 248.382812 476.449219 248.382812 476.210938 C 248.382812 475.972656 249.335938 474.941406 250.050781 474.464844 C 250.765625 473.988281 252.164062 471.613281 251.40625 471.003906 C 250.511719 470.292969 248.882812 472.371094 248.324219 472.925781 C 247.769531 473.480469 246.535156 474.738281 245.898438 474.898438 C 245.265625 475.054688 242.664062 478.199219 242.109375 478.199219 C 241.554688 478.199219 231.863281 475.894531 231.863281 475.894531 C 231.863281 475.894531 231.703125 474.625 229.875 473.910156 C 228.046875 473.195312 224.554688 472.796875 224.554688 472.796875 C 224.554688 472.796875 223.679688 472.082031 222.964844 471.921875 C 223.046875 471.921875 223.679688 467.953125 224.15625 465.886719 C 224.632812 463.824219 223.761719 457.546875 222.804688 456.117188 C 221.851562 454.6875 213.59375 444.601562 210.574219 442.539062 C 210.496094 442.617188 210.335938 439.679688 210.097656 439.359375 C 209.859375 439.042969 208.40625 437.898438 208.40625 437.898438 C 208.40625 437.898438 209.996094 437.582031 210.867188 438.214844 C 211.742188 438.851562 213.410156 439.882812 214.203125 439.167969 C 215 438.453125 214.679688 436.152344 215.792969 436.230469 C 216.90625 436.308594 217.378906 435.433594 217.0625 434.800781 C 216.746094 434.164062 216.101562 433.171875 216.101562 433.171875 C 216.101562 433.171875 216.824219 433.371094 217.0625 433.371094 C 217.300781 433.371094 217.4375 432.902344 217.4375 432.902344 C 217.4375 432.902344 218.207031 433.195312 218.660156 432.957031 C 219.023438 432.769531 219.164062 432.097656 218.949219 431.835938 C 218.847656 431.714844 219.070312 431.363281 219.242188 431.34375 C 219.792969 431.273438 221.117188 431.464844 221.035156 430.589844 C 220.957031 429.71875 219.527344 425.90625 219.84375 424.875 C 220.164062 423.839844 220.875 423.363281 221.117188 421.933594 C 221.351562 420.503906 221.75 416.933594 221.195312 415.421875 C 221.117188 415.421875 222.261719 416.082031 223.722656 415.351562 C 224.625 414.902344 224.820312 411.09375 222.992188 409.746094 C 221.164062 408.394531 217.300781 404.300781 211.347656 405.175781 C 211.347656 405.257812 203.640625 402.316406 196.730469 408.433594 C 189.820312 414.546875 188.707031 423.601562 188.46875 429.398438 C 188.46875 429.320312 189.261719 437.105469 190.375 436.070312 C 190.375 435.992188 191.964844 437.105469 192.679688 436.152344 C 192.679688 436.152344 193.871094 437.660156 194.507812 436.628906 C 194.585938 436.707031 195.300781 436.867188 195.300781 436.867188 L 195.140625 438.136719 C 195.140625 438.136719 191.011719 444.886719 190.691406 447.429688 C 190.375 449.972656 192.121094 458.949219 192.679688 461.171875 C 192.757812 461.25 190.773438 473.324219 191.089844 476.261719 C 191.40625 479.199219 192.601562 480.945312 192.601562 480.945312 C 192.601562 480.945312 191.488281 491.039062 189.027344 498.582031 C 188.628906 499.929688 189.027344 500.648438 189.027344 500.648438 C 189.027344 500.648438 187.515625 506.683594 189.582031 513.195312 C 190.296875 515.339844 189.582031 534.558594 187.914062 544.25 C 187.675781 545.757812 192.441406 545.363281 192.441406 545.363281 C 192.441406 545.363281 191.804688 553.304688 191.328125 555.132812 C 190.851562 556.957031 186.960938 567.519531 186.960938 567.519531 C 186.960938 567.519531 185.769531 567.125 185.769531 567.601562 C 185.769531 568.078125 185.054688 574.671875 184.65625 578.480469 C 184.257812 582.292969 184.65625 589.523438 185.289062 595.003906 C 185.925781 600.480469 184.417969 604.214844 181.957031 607.789062 C 179.492188 611.363281 179.96875 614.144531 181.160156 615.414062 C 181.160156 615.492188 182.828125 618.832031 182.511719 626.929688 C 182.429688 627.644531 186.800781 627.328125 186.71875 626.695312 C 186.640625 626.058594 185.449219 619.785156 188.386719 618.988281 C 188.863281 618.910156 192.757812 621.929688 194.105469 626.136719 C 194.347656 626.851562 208.402344 626.851562 209.039062 626.535156 C 209.675781 626.214844 209.992188 625.863281 209.992188 625.304688 C 210.070312 625.226562 215.738281 626.128906 223.0625 625.703125 C 223.535156 625.625 223.855469 623.71875 223.535156 623.398438 C 223.535156 623.480469 224.425781 620.5 223.140625 619.984375 C 221.8125 619.453125 209.742188 614.304688 208.109375 608.253906 C 206.199219 601.148438 208.03125 590.738281 208.191406 587.167969 C 208.347656 583.59375 209.300781 570.726562 209.144531 569.769531 C 208.984375 568.820312 208.109375 569.214844 208.109375 569.214844 C 208.109375 569.214844 208.109375 566.832031 208.429688 566.355469 C 208.746094 565.878906 210.175781 559.765625 210.253906 558.097656 C 210.332031 556.429688 212.632812 545.175781 212.632812 545.175781 C 212.632812 545.175781 219.046875 545.265625 220.441406 544.710938 C 221.101562 544.445312 220.835938 528.003906 219.882812 521.097656 C 218.929688 514.1875 218.832031 501.070312 218.992188 498.132812 C 218.914062 498.054688 220.421875 498.453125 220.421875 497.894531 C 220.421875 497.339844 220.503906 493.84375 220.503906 493.84375 C 220.503906 493.84375 221.296875 494.003906 221.21875 494.320312 C 221.136719 494.640625 221.136719 497.972656 221.691406 499.003906 C 222.25 500.039062 222.886719 501.546875 222.886719 501.546875 C 222.886719 501.546875 222.644531 503.136719 222.804688 503.453125 C 222.804688 503.375 222.328125 504.566406 222.328125 504.886719 C 222.328125 504.886719 220.976562 505.597656 221.453125 506.789062 C 221.691406 507.1875 223.757812 505.441406 224.078125 505.042969 C 224.078125 505.042969 225.425781 503.851562 225.984375 503.214844 C 226.300781 502.816406 226.300781 501.707031 226.300781 501.707031 C 226.300781 501.707031 227.171875 501.230469 227.253906 500.671875 C 227.332031 500.121094 227.730469 497.894531 227.730469 497.894531 C 227.730469 497.894531 228.601562 497.417969 228.761719 497.019531 C 228.921875 496.625 228.285156 495.351562 227.96875 494.796875 C 227.652344 494.242188 226.855469 493.609375 226.0625 491.621094 C 225.265625 489.632812 220.183594 487.410156 220.183594 487.410156 C 220.183594 487.410156 220.023438 484.550781 220.503906 481.851562 C 220.503906 481.691406 225.980469 482.726562 227.09375 483.121094 C 228.207031 483.519531 230.273438 481.535156 230.273438 481.535156 C 230.273438 481.535156 236.3125 482.089844 237.738281 482.960938 C 239.167969 483.835938 241.394531 484.617188 242.109375 484.695312 C 242.824219 484.773438 248.195312 484.660156 248.679688 484.644531 C 249.628906 484.613281 252.882812 482.710938 253.679688 482.472656 C 254.472656 482.234375 257.355469 480.851562 257.914062 480.371094 C 258.46875 479.894531 259.742188 478.433594 258.074219 478.355469 Z M 196.675781 608.050781 C 194.132812 601.699219 196.121094 594.710938 196.121094 594.710938 C 199.929688 603.523438 196.675781 608.050781 196.675781 608.050781 " fill-opacity="1" fill-rule="nonzero"/></g><path fill="#000000" d="M 706.363281 536.945312 L 713.605469 524.382812 C 713.605469 524.382812 715.261719 522.289062 715.382812 522.335938 C 715.5 522.378906 714.371094 524.828125 714.371094 524.828125 L 707.128906 537.390625 L 706.363281 536.945312 " fill-opacity="1" fill-rule="evenodd"/></svg>